G75*
%MOIN*%
%OFA0B0*%
%FSLAX25Y25*%
%IPPOS*%
%LPD*%
%AMOC8*
5,1,8,0,0,1.08239X$1,22.5*
%
%ADD10C,0.00000*%
%ADD11C,0.10000*%
%ADD12C,0.04800*%
%ADD13R,0.10000X0.20000*%
%ADD14OC8,0.08500*%
%ADD15C,0.05000*%
%ADD16C,0.02381*%
%ADD17C,0.01600*%
%ADD18C,0.00787*%
%ADD19C,0.05906*%
D10*
X0007412Y0020559D02*
X0374341Y0020559D01*
X0374341Y0020558D02*
X0374488Y0020560D01*
X0374634Y0020566D01*
X0374781Y0020576D01*
X0374927Y0020589D01*
X0375073Y0020607D01*
X0375218Y0020628D01*
X0375362Y0020653D01*
X0375506Y0020683D01*
X0375649Y0020715D01*
X0375791Y0020752D01*
X0375932Y0020793D01*
X0376072Y0020837D01*
X0376211Y0020885D01*
X0376348Y0020936D01*
X0376484Y0020992D01*
X0376619Y0021051D01*
X0376751Y0021113D01*
X0376883Y0021179D01*
X0377012Y0021248D01*
X0377139Y0021321D01*
X0377265Y0021397D01*
X0377388Y0021477D01*
X0377509Y0021560D01*
X0377628Y0021645D01*
X0377745Y0021735D01*
X0377859Y0021827D01*
X0377971Y0021922D01*
X0378080Y0022020D01*
X0378186Y0022121D01*
X0378290Y0022225D01*
X0378391Y0022331D01*
X0378489Y0022440D01*
X0378584Y0022552D01*
X0378676Y0022666D01*
X0378766Y0022783D01*
X0378851Y0022902D01*
X0378934Y0023023D01*
X0379014Y0023146D01*
X0379090Y0023272D01*
X0379163Y0023399D01*
X0379232Y0023528D01*
X0379298Y0023660D01*
X0379360Y0023792D01*
X0379419Y0023927D01*
X0379475Y0024063D01*
X0379526Y0024200D01*
X0379574Y0024339D01*
X0379618Y0024479D01*
X0379659Y0024620D01*
X0379696Y0024762D01*
X0379728Y0024905D01*
X0379758Y0025049D01*
X0379783Y0025193D01*
X0379804Y0025338D01*
X0379822Y0025484D01*
X0379835Y0025630D01*
X0379845Y0025777D01*
X0379851Y0025923D01*
X0379853Y0026070D01*
X0379853Y0062291D01*
X0379851Y0062438D01*
X0379845Y0062584D01*
X0379835Y0062731D01*
X0379822Y0062877D01*
X0379804Y0063023D01*
X0379783Y0063168D01*
X0379758Y0063312D01*
X0379728Y0063456D01*
X0379696Y0063599D01*
X0379659Y0063741D01*
X0379618Y0063882D01*
X0379574Y0064022D01*
X0379526Y0064161D01*
X0379475Y0064298D01*
X0379419Y0064434D01*
X0379360Y0064569D01*
X0379298Y0064701D01*
X0379232Y0064833D01*
X0379163Y0064962D01*
X0379090Y0065089D01*
X0379014Y0065215D01*
X0378934Y0065338D01*
X0378851Y0065459D01*
X0378766Y0065578D01*
X0378676Y0065695D01*
X0378584Y0065809D01*
X0378489Y0065921D01*
X0378391Y0066030D01*
X0378290Y0066136D01*
X0378186Y0066240D01*
X0378080Y0066341D01*
X0377971Y0066439D01*
X0377859Y0066534D01*
X0377745Y0066626D01*
X0377628Y0066716D01*
X0377509Y0066801D01*
X0377388Y0066884D01*
X0377265Y0066964D01*
X0377139Y0067040D01*
X0377012Y0067113D01*
X0376883Y0067182D01*
X0376751Y0067248D01*
X0376619Y0067310D01*
X0376484Y0067369D01*
X0376348Y0067425D01*
X0376211Y0067476D01*
X0376072Y0067524D01*
X0375932Y0067568D01*
X0375791Y0067609D01*
X0375649Y0067646D01*
X0375506Y0067678D01*
X0375362Y0067708D01*
X0375218Y0067733D01*
X0375073Y0067754D01*
X0374927Y0067772D01*
X0374781Y0067785D01*
X0374634Y0067795D01*
X0374488Y0067801D01*
X0374341Y0067803D01*
X0007412Y0067803D01*
X0007265Y0067801D01*
X0007119Y0067795D01*
X0006972Y0067785D01*
X0006826Y0067772D01*
X0006680Y0067754D01*
X0006535Y0067733D01*
X0006391Y0067708D01*
X0006247Y0067678D01*
X0006104Y0067646D01*
X0005962Y0067609D01*
X0005821Y0067568D01*
X0005681Y0067524D01*
X0005542Y0067476D01*
X0005405Y0067425D01*
X0005269Y0067369D01*
X0005134Y0067310D01*
X0005002Y0067248D01*
X0004870Y0067182D01*
X0004741Y0067113D01*
X0004614Y0067040D01*
X0004488Y0066964D01*
X0004365Y0066884D01*
X0004244Y0066801D01*
X0004125Y0066716D01*
X0004008Y0066626D01*
X0003894Y0066534D01*
X0003782Y0066439D01*
X0003673Y0066341D01*
X0003567Y0066240D01*
X0003463Y0066136D01*
X0003362Y0066030D01*
X0003264Y0065921D01*
X0003169Y0065809D01*
X0003077Y0065695D01*
X0002987Y0065578D01*
X0002902Y0065459D01*
X0002819Y0065338D01*
X0002739Y0065215D01*
X0002663Y0065089D01*
X0002590Y0064962D01*
X0002521Y0064833D01*
X0002455Y0064701D01*
X0002393Y0064569D01*
X0002334Y0064434D01*
X0002278Y0064298D01*
X0002227Y0064161D01*
X0002179Y0064022D01*
X0002135Y0063882D01*
X0002094Y0063741D01*
X0002057Y0063599D01*
X0002025Y0063456D01*
X0001995Y0063312D01*
X0001970Y0063168D01*
X0001949Y0063023D01*
X0001931Y0062877D01*
X0001918Y0062731D01*
X0001908Y0062584D01*
X0001902Y0062438D01*
X0001900Y0062291D01*
X0001900Y0026070D01*
X0001902Y0025923D01*
X0001908Y0025777D01*
X0001918Y0025630D01*
X0001931Y0025484D01*
X0001949Y0025338D01*
X0001970Y0025193D01*
X0001995Y0025049D01*
X0002025Y0024905D01*
X0002057Y0024762D01*
X0002094Y0024620D01*
X0002135Y0024479D01*
X0002179Y0024339D01*
X0002227Y0024200D01*
X0002278Y0024063D01*
X0002334Y0023927D01*
X0002393Y0023792D01*
X0002455Y0023660D01*
X0002521Y0023528D01*
X0002590Y0023399D01*
X0002663Y0023272D01*
X0002739Y0023146D01*
X0002819Y0023023D01*
X0002902Y0022902D01*
X0002987Y0022783D01*
X0003077Y0022666D01*
X0003169Y0022552D01*
X0003264Y0022440D01*
X0003362Y0022331D01*
X0003463Y0022225D01*
X0003567Y0022121D01*
X0003673Y0022020D01*
X0003782Y0021922D01*
X0003894Y0021827D01*
X0004008Y0021735D01*
X0004125Y0021645D01*
X0004244Y0021560D01*
X0004365Y0021477D01*
X0004488Y0021397D01*
X0004614Y0021321D01*
X0004741Y0021248D01*
X0004870Y0021179D01*
X0005002Y0021113D01*
X0005134Y0021051D01*
X0005269Y0020992D01*
X0005405Y0020936D01*
X0005542Y0020885D01*
X0005681Y0020837D01*
X0005821Y0020793D01*
X0005962Y0020752D01*
X0006104Y0020715D01*
X0006247Y0020683D01*
X0006391Y0020653D01*
X0006535Y0020628D01*
X0006680Y0020607D01*
X0006826Y0020589D01*
X0006972Y0020576D01*
X0007119Y0020566D01*
X0007265Y0020560D01*
X0007412Y0020558D01*
D11*
X0105837Y0028433D03*
X0105837Y0039456D03*
X0220798Y0030007D03*
X0231822Y0030007D03*
D12*
X0148357Y0053354D03*
X0148357Y0063354D03*
D13*
X0008200Y0044181D03*
D14*
X0008987Y0060716D03*
X0094814Y0062291D03*
X0139696Y0045756D03*
X0117648Y0041031D03*
X0234971Y0062291D03*
X0374341Y0044181D03*
D15*
X0302688Y0033944D03*
X0283003Y0026070D03*
X0252294Y0024496D03*
X0300326Y0054417D03*
X0219223Y0055992D03*
X0177491Y0055992D03*
X0137333Y0063866D03*
X0079853Y0039456D03*
X0069617Y0036307D03*
X0054656Y0024496D03*
X0033396Y0032370D03*
X0030247Y0059929D03*
X0155444Y0037881D03*
D16*
X0156231Y0041819D03*
X0160956Y0046543D03*
X0156231Y0050480D03*
X0146782Y0046543D03*
X0145207Y0049693D03*
X0143633Y0054417D03*
X0140483Y0057567D03*
X0142845Y0059929D03*
X0142845Y0063078D03*
X0138908Y0064653D03*
X0119223Y0064653D03*
X0114499Y0059929D03*
X0112137Y0057567D03*
X0108200Y0057567D03*
X0095601Y0052055D03*
X0104263Y0046543D03*
X0108987Y0037094D03*
X0097963Y0037881D03*
X0091664Y0037881D03*
X0076704Y0041031D03*
X0071979Y0036307D03*
X0060956Y0033157D03*
X0039696Y0032370D03*
X0024735Y0034732D03*
X0023948Y0041031D03*
X0031822Y0041031D03*
X0048357Y0041819D03*
X0064893Y0044968D03*
X0051507Y0048118D03*
X0052294Y0054417D03*
X0052294Y0059141D03*
X0057019Y0059141D03*
X0061743Y0063078D03*
X0057019Y0063866D03*
X0052294Y0063866D03*
X0047570Y0064653D03*
X0041270Y0064653D03*
X0034184Y0064653D03*
X0016074Y0064653D03*
X0029459Y0058354D03*
X0011349Y0052055D03*
X0005050Y0052055D03*
X0005050Y0036307D03*
X0011349Y0036307D03*
X0005050Y0031582D03*
X0005837Y0024496D03*
X0021585Y0022921D03*
X0027885Y0024496D03*
X0031822Y0024496D03*
X0045995Y0026070D03*
X0058593Y0022921D03*
X0065680Y0026070D03*
X0071192Y0025283D03*
X0082215Y0025283D03*
X0091664Y0031582D03*
X0097963Y0031582D03*
X0109774Y0030007D03*
X0114499Y0026070D03*
X0110562Y0022921D03*
X0125522Y0026070D03*
X0135759Y0026070D03*
X0121585Y0031582D03*
X0127097Y0033157D03*
X0121585Y0035519D03*
X0135759Y0032370D03*
X0144420Y0037094D03*
X0160956Y0028433D03*
X0175916Y0029220D03*
X0169617Y0033944D03*
X0168830Y0037094D03*
X0181428Y0038669D03*
X0193239Y0037881D03*
X0187727Y0032370D03*
X0208200Y0026070D03*
X0212924Y0026070D03*
X0222373Y0033157D03*
X0225522Y0035519D03*
X0216074Y0036307D03*
X0223160Y0038669D03*
X0229459Y0043393D03*
X0215286Y0047330D03*
X0218436Y0048905D03*
X0210562Y0047330D03*
X0213711Y0041819D03*
X0208987Y0039456D03*
X0198751Y0043393D03*
X0187727Y0044181D03*
X0193239Y0048905D03*
X0181428Y0049693D03*
X0186940Y0055204D03*
X0176704Y0059929D03*
X0171192Y0055992D03*
X0160168Y0060716D03*
X0194814Y0061504D03*
X0200326Y0057567D03*
X0203475Y0055992D03*
X0211349Y0061504D03*
X0218436Y0059929D03*
X0222373Y0059929D03*
X0227885Y0059929D03*
X0210562Y0064653D03*
X0249932Y0063078D03*
X0250719Y0056779D03*
X0257019Y0056779D03*
X0268042Y0055204D03*
X0271192Y0055204D03*
X0274341Y0053630D03*
X0272767Y0048905D03*
X0269617Y0048905D03*
X0275129Y0046543D03*
X0286940Y0045756D03*
X0293239Y0045756D03*
X0290089Y0048905D03*
X0286940Y0052055D03*
X0293239Y0052055D03*
X0301900Y0055992D03*
X0305050Y0053630D03*
X0305837Y0059141D03*
X0297176Y0059141D03*
X0293239Y0064653D03*
X0310562Y0064653D03*
X0317648Y0064653D03*
X0325522Y0064653D03*
X0334971Y0064653D03*
X0344420Y0056779D03*
X0356231Y0056779D03*
X0364893Y0056779D03*
X0370404Y0052055D03*
X0376704Y0051267D03*
X0352294Y0041819D03*
X0345207Y0041819D03*
X0338121Y0041819D03*
X0331822Y0034732D03*
X0323948Y0034732D03*
X0315286Y0034732D03*
X0305837Y0039456D03*
X0297963Y0037881D03*
X0301900Y0034732D03*
X0289302Y0036307D03*
X0280641Y0038669D03*
X0271192Y0037881D03*
X0253081Y0039456D03*
X0245995Y0040244D03*
X0242058Y0046543D03*
X0248357Y0030795D03*
X0243633Y0030007D03*
X0250719Y0023708D03*
X0241664Y0023315D03*
X0268042Y0023708D03*
X0273554Y0022921D03*
X0283003Y0027645D03*
X0286940Y0031582D03*
X0296389Y0025283D03*
X0315286Y0023708D03*
X0338121Y0023708D03*
X0357019Y0023708D03*
X0361743Y0030795D03*
X0353081Y0034732D03*
X0370404Y0036307D03*
X0376704Y0037094D03*
X0375916Y0024496D03*
X0304263Y0045756D03*
X0267255Y0064653D03*
X0356231Y0064653D03*
X0375916Y0063866D03*
X0187727Y0022921D03*
X0175916Y0044181D03*
X0088515Y0059141D03*
X0083790Y0059141D03*
X0078278Y0063078D03*
X0083790Y0063866D03*
X0088515Y0063866D03*
X0068042Y0056779D03*
X0079853Y0047330D03*
D17*
X0187727Y0022921D02*
X0208200Y0022921D01*
X0241270Y0022921D01*
X0241664Y0023315D01*
X0242058Y0024496D01*
X0242058Y0028433D01*
X0243633Y0030007D01*
X0208200Y0026070D02*
X0208200Y0022921D01*
X0208200Y0026070D02*
X0208200Y0038669D01*
X0208987Y0039456D01*
X0242058Y0046543D02*
X0242058Y0055204D01*
X0249932Y0063078D01*
D18*
X0252116Y0062998D02*
X0378390Y0062998D01*
X0378380Y0063094D02*
X0378459Y0062291D01*
X0378459Y0047478D01*
X0376513Y0049424D01*
X0372169Y0049424D01*
X0369098Y0046353D01*
X0369098Y0042009D01*
X0372169Y0038937D01*
X0376513Y0038937D01*
X0378459Y0040883D01*
X0378459Y0026070D01*
X0378380Y0025267D01*
X0377765Y0023783D01*
X0376629Y0022646D01*
X0375145Y0022031D01*
X0374341Y0021952D01*
X0254692Y0021952D01*
X0255256Y0022517D01*
X0255788Y0023801D01*
X0255788Y0025191D01*
X0255256Y0026475D01*
X0254273Y0027457D01*
X0252989Y0027989D01*
X0251599Y0027989D01*
X0250315Y0027457D01*
X0249332Y0026475D01*
X0248800Y0025191D01*
X0248800Y0024878D01*
X0248535Y0024613D01*
X0248535Y0022804D01*
X0249386Y0021952D01*
X0243391Y0021952D01*
X0243848Y0022410D01*
X0243848Y0023750D01*
X0243852Y0023753D01*
X0243852Y0024205D01*
X0243994Y0024633D01*
X0243852Y0024919D01*
X0243852Y0027690D01*
X0243985Y0027823D01*
X0244537Y0027823D01*
X0245817Y0029103D01*
X0245817Y0030912D01*
X0244537Y0032192D01*
X0242728Y0032192D01*
X0241448Y0030912D01*
X0241448Y0030360D01*
X0240264Y0029176D01*
X0240264Y0025004D01*
X0239975Y0024715D01*
X0234706Y0024715D01*
X0235217Y0024926D01*
X0236903Y0026612D01*
X0237815Y0028815D01*
X0237815Y0031200D01*
X0236903Y0033403D01*
X0235217Y0035089D01*
X0233014Y0036001D01*
X0230629Y0036001D01*
X0228426Y0035089D01*
X0228171Y0034833D01*
X0227707Y0035297D01*
X0227707Y0036424D01*
X0226427Y0037704D01*
X0224618Y0037704D01*
X0223338Y0036424D01*
X0223338Y0035443D01*
X0221990Y0036001D01*
X0219606Y0036001D01*
X0218258Y0035443D01*
X0218258Y0036529D01*
X0219823Y0038094D01*
X0219823Y0047204D01*
X0220620Y0048000D01*
X0220620Y0049810D01*
X0219341Y0051089D01*
X0217531Y0051089D01*
X0216252Y0049810D01*
X0216252Y0048000D01*
X0217048Y0047204D01*
X0217048Y0039244D01*
X0216296Y0038491D01*
X0215169Y0038491D01*
X0213889Y0037211D01*
X0213889Y0035402D01*
X0215169Y0034122D01*
X0216437Y0034122D01*
X0215717Y0033403D01*
X0214804Y0031200D01*
X0214804Y0028815D01*
X0215717Y0026612D01*
X0217403Y0024926D01*
X0217914Y0024715D01*
X0209993Y0024715D01*
X0209993Y0024775D01*
X0210384Y0025166D01*
X0210384Y0026975D01*
X0209993Y0027366D01*
X0209993Y0037374D01*
X0211171Y0038552D01*
X0211171Y0040361D01*
X0209892Y0041641D01*
X0208082Y0041641D01*
X0206803Y0040361D01*
X0206803Y0039809D01*
X0206406Y0039412D01*
X0206406Y0027366D01*
X0206015Y0026975D01*
X0206015Y0025166D01*
X0206406Y0024775D01*
X0206406Y0024715D01*
X0189022Y0024715D01*
X0188632Y0025105D01*
X0186822Y0025105D01*
X0185543Y0023826D01*
X0185543Y0022016D01*
X0185607Y0021952D01*
X0112682Y0021952D01*
X0112746Y0022016D01*
X0112746Y0023826D01*
X0111467Y0025105D01*
X0110947Y0025105D01*
X0111831Y0027240D01*
X0111831Y0028975D01*
X0111959Y0029103D01*
X0111959Y0030912D01*
X0110679Y0032192D01*
X0110555Y0032192D01*
X0110269Y0032477D01*
X0112711Y0034919D01*
X0113524Y0035732D01*
X0113524Y0037740D01*
X0115476Y0035787D01*
X0119820Y0035787D01*
X0122892Y0038859D01*
X0122892Y0043203D01*
X0119820Y0046275D01*
X0115476Y0046275D01*
X0113524Y0044322D01*
X0113524Y0052267D01*
X0115073Y0053817D01*
X0115886Y0054630D01*
X0115886Y0058227D01*
X0116683Y0059024D01*
X0116683Y0060833D01*
X0115404Y0062113D01*
X0113594Y0062113D01*
X0112315Y0060833D01*
X0112315Y0059751D01*
X0111232Y0059751D01*
X0109952Y0058471D01*
X0109952Y0056662D01*
X0110749Y0055865D01*
X0110749Y0055779D01*
X0109174Y0054204D01*
X0109174Y0044755D01*
X0109037Y0044618D01*
X0107030Y0045450D01*
X0104645Y0045450D01*
X0102442Y0044537D01*
X0100756Y0042851D01*
X0099844Y0040649D01*
X0099844Y0038264D01*
X0100756Y0036061D01*
X0102442Y0034375D01*
X0103482Y0033944D01*
X0102442Y0033514D01*
X0100756Y0031828D01*
X0099844Y0029625D01*
X0099844Y0027240D01*
X0100756Y0025038D01*
X0102273Y0023521D01*
X0072518Y0023521D01*
X0073376Y0024378D01*
X0073376Y0026188D01*
X0072096Y0027467D01*
X0070287Y0027467D01*
X0069007Y0026188D01*
X0069007Y0025096D01*
X0061530Y0025096D01*
X0057618Y0029007D01*
X0056806Y0029820D01*
X0052507Y0029820D01*
X0050145Y0027458D01*
X0049332Y0026645D01*
X0049332Y0024283D01*
X0048570Y0023521D01*
X0023770Y0023521D01*
X0023770Y0023826D01*
X0022490Y0025105D01*
X0020681Y0025105D01*
X0019401Y0023826D01*
X0019401Y0022016D01*
X0019465Y0021952D01*
X0007412Y0021952D01*
X0006609Y0022031D01*
X0005124Y0022646D01*
X0003988Y0023783D01*
X0003373Y0025267D01*
X0003294Y0026070D01*
X0003294Y0033187D01*
X0013611Y0033187D01*
X0014193Y0033769D01*
X0014193Y0054592D01*
X0013611Y0055174D01*
X0011427Y0055174D01*
X0014631Y0058378D01*
X0014631Y0060322D01*
X0009381Y0060322D01*
X0009381Y0061110D01*
X0014631Y0061110D01*
X0014631Y0063054D01*
X0011325Y0066360D01*
X0009381Y0066360D01*
X0009381Y0061110D01*
X0008593Y0061110D01*
X0008593Y0060322D01*
X0003343Y0060322D01*
X0003343Y0058378D01*
X0006547Y0055174D01*
X0003294Y0055174D01*
X0003294Y0062291D01*
X0003343Y0062791D01*
X0003343Y0061110D01*
X0008593Y0061110D01*
X0008593Y0066360D01*
X0006912Y0066360D01*
X0007412Y0066409D01*
X0090951Y0066409D01*
X0089170Y0064629D01*
X0089170Y0062685D01*
X0094420Y0062685D01*
X0094420Y0061897D01*
X0095207Y0061897D01*
X0095207Y0056647D01*
X0097151Y0056647D01*
X0100457Y0059953D01*
X0100457Y0061897D01*
X0095208Y0061897D01*
X0095208Y0062685D01*
X0100457Y0062685D01*
X0100457Y0064629D01*
X0098677Y0066409D01*
X0134936Y0066409D01*
X0134372Y0065845D01*
X0133840Y0064561D01*
X0133840Y0063171D01*
X0134372Y0061887D01*
X0135354Y0060904D01*
X0136639Y0060372D01*
X0138028Y0060372D01*
X0139312Y0060904D01*
X0140295Y0061887D01*
X0140827Y0063171D01*
X0140827Y0063483D01*
X0141093Y0063748D01*
X0141093Y0065558D01*
X0140241Y0066409D01*
X0146865Y0066409D01*
X0146435Y0066231D01*
X0145480Y0065276D01*
X0144963Y0064029D01*
X0144963Y0062679D01*
X0145480Y0061432D01*
X0146383Y0060529D01*
X0145030Y0060529D01*
X0145030Y0060833D01*
X0143750Y0062113D01*
X0141941Y0062113D01*
X0140661Y0060833D01*
X0140661Y0059751D01*
X0139578Y0059751D01*
X0138299Y0058471D01*
X0138299Y0056662D01*
X0139578Y0055382D01*
X0141388Y0055382D01*
X0142185Y0056179D01*
X0146383Y0056179D01*
X0145480Y0055276D01*
X0144963Y0054029D01*
X0144963Y0052679D01*
X0145296Y0051877D01*
X0144303Y0051877D01*
X0143023Y0050597D01*
X0143023Y0049844D01*
X0141868Y0050999D01*
X0137524Y0050999D01*
X0134452Y0047928D01*
X0134452Y0043584D01*
X0137524Y0040512D01*
X0141868Y0040512D01*
X0144939Y0043584D01*
X0144939Y0047508D01*
X0146112Y0047508D01*
X0146909Y0048305D01*
X0152507Y0048305D01*
X0154844Y0045968D01*
X0155656Y0045156D01*
X0159254Y0045156D01*
X0160051Y0044359D01*
X0161860Y0044359D01*
X0163140Y0045638D01*
X0163140Y0047448D01*
X0161860Y0048727D01*
X0160051Y0048727D01*
X0159254Y0047930D01*
X0156806Y0047930D01*
X0153656Y0051080D01*
X0150882Y0051080D01*
X0151234Y0051432D01*
X0151751Y0052679D01*
X0151751Y0054029D01*
X0151234Y0055276D01*
X0150331Y0056179D01*
X0152081Y0056179D01*
X0152894Y0056992D01*
X0158381Y0062478D01*
X0186365Y0062478D01*
X0191852Y0056992D01*
X0192664Y0056179D01*
X0198624Y0056179D01*
X0199421Y0055382D01*
X0201230Y0055382D01*
X0201291Y0055443D01*
X0201291Y0055087D01*
X0202570Y0053807D01*
X0204380Y0053807D01*
X0205659Y0055087D01*
X0205659Y0056896D01*
X0204863Y0057693D01*
X0204863Y0058929D01*
X0203288Y0060503D01*
X0202475Y0061316D01*
X0198176Y0061316D01*
X0197389Y0060529D01*
X0194601Y0060529D01*
X0189115Y0066015D01*
X0188721Y0066409D01*
X0231674Y0066409D01*
X0229728Y0064463D01*
X0229728Y0060119D01*
X0232799Y0057047D01*
X0237143Y0057047D01*
X0240215Y0060119D01*
X0240215Y0064463D01*
X0238269Y0066409D01*
X0374341Y0066409D01*
X0375145Y0066330D01*
X0376629Y0065715D01*
X0377765Y0064579D01*
X0378380Y0063094D01*
X0378095Y0063784D02*
X0252116Y0063784D01*
X0252116Y0063983D02*
X0250837Y0065263D01*
X0249027Y0065263D01*
X0247748Y0063983D01*
X0247748Y0063431D01*
X0240264Y0055947D01*
X0240264Y0047838D01*
X0239874Y0047448D01*
X0239874Y0045638D01*
X0241153Y0044359D01*
X0242963Y0044359D01*
X0244242Y0045638D01*
X0244242Y0047448D01*
X0243852Y0047838D01*
X0243852Y0054461D01*
X0250284Y0060894D01*
X0250837Y0060894D01*
X0252116Y0062174D01*
X0252116Y0063983D01*
X0251529Y0064570D02*
X0377769Y0064570D01*
X0376989Y0065356D02*
X0239322Y0065356D01*
X0238536Y0066142D02*
X0375599Y0066142D01*
X0378459Y0062212D02*
X0252116Y0062212D01*
X0251369Y0061426D02*
X0378459Y0061426D01*
X0378459Y0060640D02*
X0250030Y0060640D01*
X0249245Y0059854D02*
X0378459Y0059854D01*
X0378459Y0059068D02*
X0248459Y0059068D01*
X0247673Y0058282D02*
X0378459Y0058282D01*
X0378459Y0057497D02*
X0303485Y0057497D01*
X0304085Y0056896D02*
X0302805Y0058176D01*
X0300996Y0058176D01*
X0300730Y0057911D01*
X0299631Y0057911D01*
X0298347Y0057379D01*
X0297364Y0056396D01*
X0296832Y0055112D01*
X0296832Y0053722D01*
X0297364Y0052438D01*
X0298347Y0051455D01*
X0299631Y0050923D01*
X0301021Y0050923D01*
X0302305Y0051455D01*
X0303287Y0052438D01*
X0303819Y0053722D01*
X0303819Y0054822D01*
X0304085Y0055087D01*
X0304085Y0056896D01*
X0304085Y0056711D02*
X0378459Y0056711D01*
X0378459Y0055925D02*
X0304085Y0055925D01*
X0304085Y0055139D02*
X0378459Y0055139D01*
X0378459Y0054353D02*
X0303819Y0054353D01*
X0303755Y0053567D02*
X0378459Y0053567D01*
X0378459Y0052781D02*
X0303430Y0052781D01*
X0302845Y0051995D02*
X0378459Y0051995D01*
X0378459Y0051209D02*
X0301711Y0051209D01*
X0298940Y0051209D02*
X0274154Y0051209D01*
X0274154Y0051445D02*
X0275246Y0051445D01*
X0276526Y0052725D01*
X0276526Y0054534D01*
X0275246Y0055814D01*
X0273437Y0055814D01*
X0273376Y0055753D01*
X0273376Y0056109D01*
X0272096Y0057389D01*
X0270287Y0057389D01*
X0269617Y0056719D01*
X0268947Y0057389D01*
X0267137Y0057389D01*
X0265858Y0056109D01*
X0265858Y0054300D01*
X0267137Y0053020D01*
X0267442Y0053020D01*
X0267442Y0051842D01*
X0265867Y0050267D01*
X0265867Y0047543D01*
X0266680Y0046730D01*
X0268255Y0045156D01*
X0273427Y0045156D01*
X0274224Y0044359D01*
X0276033Y0044359D01*
X0277313Y0045638D01*
X0277313Y0047448D01*
X0276033Y0048727D01*
X0274951Y0048727D01*
X0274951Y0049810D01*
X0274154Y0050607D01*
X0274154Y0051445D01*
X0274337Y0050423D02*
X0378459Y0050423D01*
X0378459Y0049637D02*
X0274951Y0049637D01*
X0274951Y0048852D02*
X0371596Y0048852D01*
X0370811Y0048066D02*
X0276695Y0048066D01*
X0277313Y0047280D02*
X0370025Y0047280D01*
X0369239Y0046494D02*
X0277313Y0046494D01*
X0277313Y0045708D02*
X0369098Y0045708D01*
X0369098Y0044922D02*
X0276597Y0044922D01*
X0275129Y0046543D02*
X0268830Y0046543D01*
X0267255Y0048118D01*
X0267255Y0049693D01*
X0268830Y0051267D01*
X0268830Y0054417D01*
X0268042Y0055204D01*
X0266459Y0056711D02*
X0246101Y0056711D01*
X0246887Y0057497D02*
X0298631Y0057497D01*
X0297678Y0056711D02*
X0272774Y0056711D01*
X0273376Y0055925D02*
X0297169Y0055925D01*
X0296843Y0055139D02*
X0275921Y0055139D01*
X0276526Y0054353D02*
X0296832Y0054353D01*
X0296896Y0053567D02*
X0276526Y0053567D01*
X0276526Y0052781D02*
X0297222Y0052781D01*
X0297806Y0051995D02*
X0275796Y0051995D01*
X0274341Y0053630D02*
X0272767Y0052055D01*
X0272767Y0048905D01*
X0271192Y0050480D02*
X0271192Y0055204D01*
X0265858Y0055139D02*
X0244529Y0055139D01*
X0243852Y0054353D02*
X0265858Y0054353D01*
X0266590Y0053567D02*
X0243852Y0053567D01*
X0243852Y0052781D02*
X0267442Y0052781D01*
X0267442Y0051995D02*
X0243852Y0051995D01*
X0243852Y0051209D02*
X0266809Y0051209D01*
X0266023Y0050423D02*
X0243852Y0050423D01*
X0243852Y0049637D02*
X0265867Y0049637D01*
X0265867Y0048852D02*
X0243852Y0048852D01*
X0243852Y0048066D02*
X0265867Y0048066D01*
X0266131Y0047280D02*
X0244242Y0047280D01*
X0244242Y0046494D02*
X0266917Y0046494D01*
X0267702Y0045708D02*
X0244242Y0045708D01*
X0243526Y0044922D02*
X0273661Y0044922D01*
X0269617Y0048905D02*
X0271192Y0050480D01*
X0265858Y0055925D02*
X0245315Y0055925D01*
X0241813Y0057497D02*
X0237593Y0057497D01*
X0238378Y0058282D02*
X0242599Y0058282D01*
X0243385Y0059068D02*
X0239164Y0059068D01*
X0239950Y0059854D02*
X0244171Y0059854D01*
X0244957Y0060640D02*
X0240215Y0060640D01*
X0240215Y0061426D02*
X0245743Y0061426D01*
X0246529Y0062212D02*
X0240215Y0062212D01*
X0240215Y0062998D02*
X0247315Y0062998D01*
X0247748Y0063784D02*
X0240215Y0063784D01*
X0240108Y0064570D02*
X0248334Y0064570D01*
X0231406Y0066142D02*
X0188988Y0066142D01*
X0189774Y0065356D02*
X0230620Y0065356D01*
X0229834Y0064570D02*
X0190560Y0064570D01*
X0191346Y0063784D02*
X0229728Y0063784D01*
X0229728Y0062998D02*
X0212944Y0062998D01*
X0213533Y0062408D02*
X0212254Y0063688D01*
X0210444Y0063688D01*
X0209165Y0062408D01*
X0209165Y0060599D01*
X0209962Y0059802D01*
X0209962Y0054630D01*
X0210749Y0053842D01*
X0210749Y0042819D01*
X0211527Y0042041D01*
X0211527Y0040914D01*
X0212807Y0039634D01*
X0214616Y0039634D01*
X0215896Y0040914D01*
X0215896Y0042723D01*
X0214616Y0044003D01*
X0213524Y0044003D01*
X0213524Y0054992D01*
X0212737Y0055779D01*
X0212737Y0059802D01*
X0213533Y0060599D01*
X0213533Y0062408D01*
X0213533Y0062212D02*
X0229728Y0062212D01*
X0229728Y0061426D02*
X0220027Y0061426D01*
X0220620Y0060833D02*
X0219341Y0062113D01*
X0217531Y0062113D01*
X0216252Y0060833D01*
X0216252Y0059024D01*
X0216783Y0058492D01*
X0216261Y0057971D01*
X0215730Y0056687D01*
X0215730Y0055297D01*
X0216261Y0054013D01*
X0217244Y0053030D01*
X0218528Y0052498D01*
X0219918Y0052498D01*
X0221202Y0053030D01*
X0222185Y0054013D01*
X0222717Y0055297D01*
X0222717Y0056687D01*
X0222185Y0057971D01*
X0221202Y0058954D01*
X0220620Y0059195D01*
X0220620Y0060833D01*
X0220620Y0060640D02*
X0229728Y0060640D01*
X0229992Y0059854D02*
X0220620Y0059854D01*
X0220925Y0059068D02*
X0230778Y0059068D01*
X0231564Y0058282D02*
X0221873Y0058282D01*
X0222381Y0057497D02*
X0232350Y0057497D01*
X0240264Y0055925D02*
X0222717Y0055925D01*
X0222707Y0056711D02*
X0241028Y0056711D01*
X0240264Y0055139D02*
X0222651Y0055139D01*
X0222326Y0054353D02*
X0240264Y0054353D01*
X0240264Y0053567D02*
X0221739Y0053567D01*
X0220602Y0052781D02*
X0240264Y0052781D01*
X0240264Y0051995D02*
X0213524Y0051995D01*
X0213524Y0051209D02*
X0240264Y0051209D01*
X0240264Y0050423D02*
X0220007Y0050423D01*
X0220620Y0049637D02*
X0240264Y0049637D01*
X0240264Y0048852D02*
X0220620Y0048852D01*
X0220620Y0048066D02*
X0240264Y0048066D01*
X0239874Y0047280D02*
X0219899Y0047280D01*
X0219823Y0046494D02*
X0239874Y0046494D01*
X0239874Y0045708D02*
X0219823Y0045708D01*
X0219823Y0044922D02*
X0240590Y0044922D01*
X0219823Y0044136D02*
X0369098Y0044136D01*
X0369098Y0043350D02*
X0219823Y0043350D01*
X0219823Y0042564D02*
X0369098Y0042564D01*
X0369328Y0041778D02*
X0219823Y0041778D01*
X0219823Y0040992D02*
X0370114Y0040992D01*
X0370900Y0040206D02*
X0219823Y0040206D01*
X0219823Y0039421D02*
X0371686Y0039421D01*
X0376997Y0039421D02*
X0378459Y0039421D01*
X0378459Y0040206D02*
X0377783Y0040206D01*
X0378459Y0038635D02*
X0219823Y0038635D01*
X0219578Y0037849D02*
X0378459Y0037849D01*
X0378459Y0037063D02*
X0304289Y0037063D01*
X0304667Y0036906D02*
X0303383Y0037438D01*
X0301993Y0037438D01*
X0300709Y0036906D01*
X0299726Y0035923D01*
X0299194Y0034639D01*
X0299194Y0033250D01*
X0299726Y0031965D01*
X0300709Y0030983D01*
X0301993Y0030451D01*
X0303383Y0030451D01*
X0304667Y0030983D01*
X0305650Y0031965D01*
X0306181Y0033250D01*
X0306181Y0034639D01*
X0305650Y0035923D01*
X0304667Y0036906D01*
X0305296Y0036277D02*
X0378459Y0036277D01*
X0378459Y0035491D02*
X0305829Y0035491D01*
X0306154Y0034705D02*
X0378459Y0034705D01*
X0378459Y0033919D02*
X0306181Y0033919D01*
X0306133Y0033133D02*
X0378459Y0033133D01*
X0378459Y0032347D02*
X0305808Y0032347D01*
X0305246Y0031561D02*
X0378459Y0031561D01*
X0378459Y0030776D02*
X0304167Y0030776D01*
X0301209Y0030776D02*
X0245817Y0030776D01*
X0245817Y0029990D02*
X0378459Y0029990D01*
X0378459Y0029204D02*
X0284568Y0029204D01*
X0284509Y0029228D02*
X0283907Y0029830D01*
X0282098Y0029830D01*
X0281497Y0029228D01*
X0281024Y0029032D01*
X0280041Y0028049D01*
X0279509Y0026765D01*
X0279509Y0025376D01*
X0280041Y0024091D01*
X0281024Y0023109D01*
X0282308Y0022577D01*
X0283698Y0022577D01*
X0284982Y0023109D01*
X0285965Y0024091D01*
X0286496Y0025376D01*
X0286496Y0026765D01*
X0285965Y0028049D01*
X0284982Y0029032D01*
X0284509Y0029228D01*
X0285596Y0028418D02*
X0378459Y0028418D01*
X0378459Y0027632D02*
X0286138Y0027632D01*
X0286463Y0026846D02*
X0378459Y0026846D01*
X0378458Y0026060D02*
X0286496Y0026060D01*
X0286454Y0025274D02*
X0378381Y0025274D01*
X0378058Y0024488D02*
X0286129Y0024488D01*
X0285575Y0023702D02*
X0377685Y0023702D01*
X0376899Y0022916D02*
X0284518Y0022916D01*
X0281488Y0022916D02*
X0255421Y0022916D01*
X0255747Y0023702D02*
X0280430Y0023702D01*
X0279877Y0024488D02*
X0255788Y0024488D01*
X0255753Y0025274D02*
X0279551Y0025274D01*
X0279509Y0026060D02*
X0255428Y0026060D01*
X0254885Y0026846D02*
X0279542Y0026846D01*
X0279868Y0027632D02*
X0253852Y0027632D01*
X0250736Y0027632D02*
X0243852Y0027632D01*
X0243852Y0026846D02*
X0249704Y0026846D01*
X0249161Y0026060D02*
X0243852Y0026060D01*
X0243852Y0025274D02*
X0248835Y0025274D01*
X0248535Y0024488D02*
X0243946Y0024488D01*
X0243848Y0023702D02*
X0248535Y0023702D01*
X0248535Y0022916D02*
X0243848Y0022916D01*
X0243569Y0022130D02*
X0249208Y0022130D01*
X0250719Y0023708D02*
X0251507Y0024496D01*
X0252294Y0024496D01*
X0254870Y0022130D02*
X0375384Y0022130D01*
X0377872Y0048066D02*
X0378459Y0048066D01*
X0378459Y0048852D02*
X0377086Y0048852D01*
X0302688Y0033944D02*
X0301900Y0034732D01*
X0300079Y0036277D02*
X0227707Y0036277D01*
X0227707Y0035491D02*
X0229398Y0035491D01*
X0227068Y0037063D02*
X0301087Y0037063D01*
X0299547Y0035491D02*
X0234246Y0035491D01*
X0235600Y0034705D02*
X0299221Y0034705D01*
X0299194Y0033919D02*
X0236386Y0033919D01*
X0237014Y0033133D02*
X0299242Y0033133D01*
X0299568Y0032347D02*
X0237340Y0032347D01*
X0237666Y0031561D02*
X0242098Y0031561D01*
X0241448Y0030776D02*
X0237815Y0030776D01*
X0237815Y0029990D02*
X0241078Y0029990D01*
X0240292Y0029204D02*
X0237815Y0029204D01*
X0237651Y0028418D02*
X0240264Y0028418D01*
X0240264Y0027632D02*
X0237325Y0027632D01*
X0237000Y0026846D02*
X0240264Y0026846D01*
X0240264Y0026060D02*
X0236351Y0026060D01*
X0235565Y0025274D02*
X0240264Y0025274D01*
X0245132Y0028418D02*
X0280409Y0028418D01*
X0281438Y0029204D02*
X0245817Y0029204D01*
X0245168Y0031561D02*
X0300130Y0031561D01*
X0283003Y0027645D02*
X0283003Y0026070D01*
X0231822Y0030007D02*
X0231034Y0030007D01*
X0225522Y0035519D01*
X0223338Y0035491D02*
X0223222Y0035491D01*
X0223338Y0036277D02*
X0218258Y0036277D01*
X0218258Y0035491D02*
X0218374Y0035491D01*
X0218792Y0037063D02*
X0223977Y0037063D01*
X0222373Y0033157D02*
X0220798Y0031582D01*
X0220798Y0030007D01*
X0214804Y0029990D02*
X0209993Y0029990D01*
X0209993Y0030776D02*
X0214804Y0030776D01*
X0214954Y0031561D02*
X0209993Y0031561D01*
X0209993Y0032347D02*
X0215280Y0032347D01*
X0215605Y0033133D02*
X0209993Y0033133D01*
X0209993Y0033919D02*
X0216233Y0033919D01*
X0214586Y0034705D02*
X0209993Y0034705D01*
X0209993Y0035491D02*
X0213889Y0035491D01*
X0213889Y0036277D02*
X0209993Y0036277D01*
X0209993Y0037063D02*
X0213889Y0037063D01*
X0214527Y0037849D02*
X0210468Y0037849D01*
X0211171Y0038635D02*
X0216440Y0038635D01*
X0217048Y0039421D02*
X0211171Y0039421D01*
X0211171Y0040206D02*
X0212234Y0040206D01*
X0211527Y0040992D02*
X0210540Y0040992D01*
X0211527Y0041778D02*
X0158415Y0041778D01*
X0158415Y0040992D02*
X0207434Y0040992D01*
X0206803Y0040206D02*
X0158060Y0040206D01*
X0157884Y0040382D02*
X0158415Y0040914D01*
X0158415Y0042723D01*
X0157136Y0044003D01*
X0155326Y0044003D01*
X0154047Y0042723D01*
X0154047Y0041084D01*
X0153465Y0040843D01*
X0152482Y0039861D01*
X0151950Y0038576D01*
X0151950Y0037187D01*
X0152482Y0035902D01*
X0153465Y0034920D01*
X0154749Y0034388D01*
X0156139Y0034388D01*
X0157423Y0034920D01*
X0158406Y0035902D01*
X0158937Y0037187D01*
X0158937Y0038576D01*
X0158406Y0039861D01*
X0157884Y0040382D01*
X0158588Y0039421D02*
X0206415Y0039421D01*
X0206406Y0038635D02*
X0170378Y0038635D01*
X0171014Y0037999D02*
X0169734Y0039278D01*
X0167925Y0039278D01*
X0167128Y0038481D01*
X0165893Y0038481D01*
X0158806Y0031395D01*
X0133184Y0031395D01*
X0130847Y0033732D01*
X0130847Y0034519D01*
X0129272Y0036094D01*
X0128459Y0036907D01*
X0125735Y0036907D01*
X0124160Y0035332D01*
X0123348Y0034519D01*
X0123348Y0032970D01*
X0123287Y0032970D01*
X0122490Y0033767D01*
X0120681Y0033767D01*
X0119401Y0032487D01*
X0119401Y0030678D01*
X0120681Y0029398D01*
X0122490Y0029398D01*
X0123287Y0030195D01*
X0124522Y0030195D01*
X0125335Y0031008D01*
X0125746Y0031419D01*
X0126192Y0030973D01*
X0127319Y0030973D01*
X0131247Y0027045D01*
X0159254Y0027045D01*
X0160051Y0026248D01*
X0161860Y0026248D01*
X0163140Y0027528D01*
X0163140Y0029337D01*
X0161906Y0030571D01*
X0167042Y0035707D01*
X0167128Y0035707D01*
X0167925Y0034910D01*
X0169734Y0034910D01*
X0171014Y0036189D01*
X0171014Y0037999D01*
X0171014Y0037849D02*
X0206406Y0037849D01*
X0206406Y0037063D02*
X0171014Y0037063D01*
X0171014Y0036277D02*
X0206406Y0036277D01*
X0206406Y0035491D02*
X0170315Y0035491D01*
X0167344Y0035491D02*
X0166826Y0035491D01*
X0166040Y0034705D02*
X0206406Y0034705D01*
X0206406Y0033919D02*
X0165254Y0033919D01*
X0164469Y0033133D02*
X0206406Y0033133D01*
X0206406Y0032347D02*
X0163683Y0032347D01*
X0162897Y0031561D02*
X0206406Y0031561D01*
X0206406Y0030776D02*
X0162111Y0030776D01*
X0162488Y0029990D02*
X0206406Y0029990D01*
X0206406Y0029204D02*
X0163140Y0029204D01*
X0163140Y0028418D02*
X0206406Y0028418D01*
X0206406Y0027632D02*
X0163140Y0027632D01*
X0162458Y0026846D02*
X0206015Y0026846D01*
X0206015Y0026060D02*
X0111342Y0026060D01*
X0111017Y0025274D02*
X0206015Y0025274D01*
X0210384Y0025274D02*
X0217055Y0025274D01*
X0216269Y0026060D02*
X0210384Y0026060D01*
X0210384Y0026846D02*
X0215620Y0026846D01*
X0215294Y0027632D02*
X0209993Y0027632D01*
X0209993Y0028418D02*
X0214969Y0028418D01*
X0214804Y0029204D02*
X0209993Y0029204D01*
X0216074Y0036307D02*
X0218436Y0038669D01*
X0218436Y0048905D01*
X0216865Y0050423D02*
X0213524Y0050423D01*
X0213524Y0049637D02*
X0216252Y0049637D01*
X0216252Y0048852D02*
X0213524Y0048852D01*
X0213524Y0048066D02*
X0216252Y0048066D01*
X0216972Y0047280D02*
X0213524Y0047280D01*
X0213524Y0046494D02*
X0217048Y0046494D01*
X0217048Y0045708D02*
X0213524Y0045708D01*
X0213524Y0044922D02*
X0217048Y0044922D01*
X0217048Y0044136D02*
X0213524Y0044136D01*
X0212137Y0043393D02*
X0213711Y0041819D01*
X0215269Y0043350D02*
X0217048Y0043350D01*
X0217048Y0042564D02*
X0215896Y0042564D01*
X0215896Y0041778D02*
X0217048Y0041778D01*
X0217048Y0040992D02*
X0215896Y0040992D01*
X0215188Y0040206D02*
X0217048Y0040206D01*
X0211004Y0042564D02*
X0158415Y0042564D01*
X0157788Y0043350D02*
X0210749Y0043350D01*
X0210749Y0044136D02*
X0144939Y0044136D01*
X0144939Y0044922D02*
X0159487Y0044922D01*
X0160956Y0046543D02*
X0156231Y0046543D01*
X0153081Y0049693D01*
X0145207Y0049693D01*
X0143635Y0051209D02*
X0113524Y0051209D01*
X0113524Y0050423D02*
X0136948Y0050423D01*
X0136162Y0049637D02*
X0113524Y0049637D01*
X0113524Y0048852D02*
X0135376Y0048852D01*
X0134590Y0048066D02*
X0113524Y0048066D01*
X0113524Y0047280D02*
X0134452Y0047280D01*
X0134452Y0046494D02*
X0113524Y0046494D01*
X0113524Y0045708D02*
X0114910Y0045708D01*
X0114124Y0044922D02*
X0113524Y0044922D01*
X0110562Y0044181D02*
X0105837Y0039456D01*
X0106625Y0039456D01*
X0108987Y0037094D01*
X0112137Y0036307D02*
X0112137Y0052842D01*
X0114499Y0055204D01*
X0114499Y0059929D01*
X0116090Y0061426D02*
X0134832Y0061426D01*
X0134237Y0062212D02*
X0095208Y0062212D01*
X0095207Y0061426D02*
X0094420Y0061426D01*
X0094420Y0061897D02*
X0094420Y0056647D01*
X0092476Y0056647D01*
X0089170Y0059953D01*
X0089170Y0061897D01*
X0094420Y0061897D01*
X0094420Y0062212D02*
X0032904Y0062212D01*
X0033209Y0061908D02*
X0032226Y0062891D01*
X0030942Y0063422D01*
X0029552Y0063422D01*
X0028268Y0062891D01*
X0027285Y0061908D01*
X0026753Y0060624D01*
X0026753Y0059234D01*
X0027275Y0057973D01*
X0027275Y0057449D01*
X0028555Y0056170D01*
X0030364Y0056170D01*
X0030630Y0056435D01*
X0030942Y0056435D01*
X0032226Y0056967D01*
X0033209Y0057950D01*
X0033741Y0059234D01*
X0033741Y0060624D01*
X0033209Y0061908D01*
X0033408Y0061426D02*
X0089170Y0061426D01*
X0089170Y0060640D02*
X0033734Y0060640D01*
X0033741Y0059854D02*
X0089269Y0059854D01*
X0090055Y0059068D02*
X0033672Y0059068D01*
X0033346Y0058282D02*
X0090841Y0058282D01*
X0091627Y0057497D02*
X0032756Y0057497D01*
X0031607Y0056711D02*
X0092413Y0056711D01*
X0094420Y0056711D02*
X0095207Y0056711D01*
X0095207Y0057497D02*
X0094420Y0057497D01*
X0094420Y0058282D02*
X0095207Y0058282D01*
X0095207Y0059068D02*
X0094420Y0059068D01*
X0094420Y0059854D02*
X0095207Y0059854D01*
X0095207Y0060640D02*
X0094420Y0060640D01*
X0089170Y0062998D02*
X0031967Y0062998D01*
X0028527Y0062998D02*
X0014631Y0062998D01*
X0014631Y0062212D02*
X0027589Y0062212D01*
X0027086Y0061426D02*
X0014631Y0061426D01*
X0014631Y0059854D02*
X0026753Y0059854D01*
X0026760Y0060640D02*
X0009381Y0060640D01*
X0009381Y0061426D02*
X0008593Y0061426D01*
X0008593Y0060640D02*
X0003294Y0060640D01*
X0003294Y0059854D02*
X0003343Y0059854D01*
X0003343Y0059068D02*
X0003294Y0059068D01*
X0003294Y0058282D02*
X0003439Y0058282D01*
X0003294Y0057497D02*
X0004225Y0057497D01*
X0005011Y0056711D02*
X0003294Y0056711D01*
X0003294Y0055925D02*
X0005797Y0055925D01*
X0012177Y0055925D02*
X0110689Y0055925D01*
X0110109Y0055139D02*
X0013647Y0055139D01*
X0014193Y0054353D02*
X0109323Y0054353D01*
X0109174Y0053567D02*
X0014193Y0053567D01*
X0014193Y0052781D02*
X0109174Y0052781D01*
X0109174Y0051995D02*
X0014193Y0051995D01*
X0014193Y0051209D02*
X0109174Y0051209D01*
X0109174Y0050423D02*
X0014193Y0050423D01*
X0014193Y0049637D02*
X0109174Y0049637D01*
X0109174Y0048852D02*
X0014193Y0048852D01*
X0014193Y0048066D02*
X0109174Y0048066D01*
X0109174Y0047280D02*
X0014193Y0047280D01*
X0014193Y0046494D02*
X0109174Y0046494D01*
X0109174Y0045708D02*
X0014193Y0045708D01*
X0014193Y0044922D02*
X0103370Y0044922D01*
X0102041Y0044136D02*
X0014193Y0044136D01*
X0014193Y0043350D02*
X0101255Y0043350D01*
X0100637Y0042564D02*
X0081479Y0042564D01*
X0081832Y0042418D02*
X0080548Y0042950D01*
X0079158Y0042950D01*
X0078250Y0042574D01*
X0077608Y0043215D01*
X0075799Y0043215D01*
X0074519Y0041936D01*
X0074519Y0040126D01*
X0075799Y0038847D01*
X0076359Y0038847D01*
X0076359Y0038761D01*
X0076891Y0037477D01*
X0077874Y0036494D01*
X0079158Y0035963D01*
X0080548Y0035963D01*
X0081832Y0036494D01*
X0082815Y0037477D01*
X0083347Y0038761D01*
X0083347Y0040151D01*
X0082815Y0041435D01*
X0081832Y0042418D01*
X0082472Y0041778D02*
X0100312Y0041778D01*
X0099986Y0040992D02*
X0082998Y0040992D01*
X0083324Y0040206D02*
X0099844Y0040206D01*
X0099844Y0039421D02*
X0083347Y0039421D01*
X0083294Y0038635D02*
X0099844Y0038635D01*
X0100016Y0037849D02*
X0082969Y0037849D01*
X0082401Y0037063D02*
X0100341Y0037063D01*
X0100667Y0036277D02*
X0081307Y0036277D01*
X0078399Y0036277D02*
X0074163Y0036277D01*
X0074163Y0037063D02*
X0077306Y0037063D01*
X0076737Y0037849D02*
X0073526Y0037849D01*
X0074163Y0037211D02*
X0072884Y0038491D01*
X0072374Y0038491D01*
X0071596Y0039269D01*
X0070312Y0039800D01*
X0068922Y0039800D01*
X0067638Y0039269D01*
X0066655Y0038286D01*
X0066123Y0037002D01*
X0066123Y0035612D01*
X0066655Y0034328D01*
X0067638Y0033345D01*
X0068922Y0032813D01*
X0070312Y0032813D01*
X0071596Y0033345D01*
X0072374Y0034122D01*
X0072884Y0034122D01*
X0074163Y0035402D01*
X0074163Y0037211D01*
X0071979Y0036307D02*
X0069617Y0036307D01*
X0066123Y0036277D02*
X0014193Y0036277D01*
X0014193Y0037063D02*
X0066149Y0037063D01*
X0066474Y0037849D02*
X0014193Y0037849D01*
X0014193Y0038635D02*
X0067004Y0038635D01*
X0068005Y0039421D02*
X0014193Y0039421D01*
X0014193Y0040206D02*
X0074519Y0040206D01*
X0074519Y0040992D02*
X0014193Y0040992D01*
X0014193Y0041778D02*
X0074519Y0041778D01*
X0075148Y0042564D02*
X0014193Y0042564D01*
X0014193Y0035491D02*
X0031803Y0035491D01*
X0031417Y0035331D02*
X0030435Y0034349D01*
X0029903Y0033065D01*
X0029903Y0031675D01*
X0030435Y0030391D01*
X0031417Y0029408D01*
X0032702Y0028876D01*
X0034091Y0028876D01*
X0035375Y0029408D01*
X0036358Y0030391D01*
X0036603Y0030982D01*
X0037994Y0030982D01*
X0038791Y0030185D01*
X0040600Y0030185D01*
X0041880Y0031465D01*
X0041880Y0033274D01*
X0040600Y0034554D01*
X0038791Y0034554D01*
X0037994Y0033757D01*
X0036603Y0033757D01*
X0036358Y0034349D01*
X0035375Y0035331D01*
X0034091Y0035863D01*
X0032702Y0035863D01*
X0031417Y0035331D01*
X0030791Y0034705D02*
X0014193Y0034705D01*
X0014193Y0033919D02*
X0030257Y0033919D01*
X0029931Y0033133D02*
X0003294Y0033133D01*
X0003294Y0032347D02*
X0029903Y0032347D01*
X0029950Y0031561D02*
X0003294Y0031561D01*
X0003294Y0030776D02*
X0030275Y0030776D01*
X0030836Y0029990D02*
X0003294Y0029990D01*
X0003294Y0029204D02*
X0031910Y0029204D01*
X0034883Y0029204D02*
X0051890Y0029204D01*
X0051105Y0028418D02*
X0003294Y0028418D01*
X0003294Y0027632D02*
X0050319Y0027632D01*
X0049533Y0026846D02*
X0003294Y0026846D01*
X0003295Y0026060D02*
X0049332Y0026060D01*
X0049332Y0025274D02*
X0003373Y0025274D01*
X0003696Y0024488D02*
X0020064Y0024488D01*
X0019401Y0023702D02*
X0004068Y0023702D01*
X0004854Y0022916D02*
X0019401Y0022916D01*
X0019401Y0022130D02*
X0006370Y0022130D01*
X0021585Y0022921D02*
X0022373Y0022133D01*
X0049144Y0022133D01*
X0050719Y0023708D01*
X0050719Y0026070D01*
X0053081Y0028433D01*
X0056231Y0028433D01*
X0060956Y0023708D01*
X0069617Y0023708D01*
X0071192Y0025283D01*
X0073376Y0025274D02*
X0100658Y0025274D01*
X0100333Y0026060D02*
X0073376Y0026060D01*
X0072718Y0026846D02*
X0100007Y0026846D01*
X0099844Y0027632D02*
X0058994Y0027632D01*
X0058208Y0028418D02*
X0099844Y0028418D01*
X0099844Y0029204D02*
X0057422Y0029204D01*
X0059780Y0026846D02*
X0069666Y0026846D01*
X0069007Y0026060D02*
X0060566Y0026060D01*
X0061352Y0025274D02*
X0069007Y0025274D01*
X0072700Y0023702D02*
X0102091Y0023702D01*
X0101305Y0024488D02*
X0073376Y0024488D01*
X0059381Y0022133D02*
X0058593Y0022921D01*
X0056231Y0022921D01*
X0054656Y0024496D01*
X0059381Y0022133D02*
X0109774Y0022133D01*
X0110562Y0022921D01*
X0112746Y0022916D02*
X0185543Y0022916D01*
X0185543Y0022130D02*
X0112746Y0022130D01*
X0112746Y0023702D02*
X0185543Y0023702D01*
X0186206Y0024488D02*
X0112083Y0024488D01*
X0111668Y0026846D02*
X0159453Y0026846D01*
X0160956Y0028433D02*
X0131822Y0028433D01*
X0127097Y0033157D01*
X0129459Y0033157D02*
X0129459Y0033944D01*
X0127885Y0035519D01*
X0126310Y0035519D01*
X0124735Y0033944D01*
X0124735Y0032370D01*
X0123948Y0031582D01*
X0121585Y0031582D01*
X0119401Y0031561D02*
X0111309Y0031561D01*
X0111959Y0030776D02*
X0119401Y0030776D01*
X0120089Y0029990D02*
X0111959Y0029990D01*
X0111959Y0029204D02*
X0129089Y0029204D01*
X0129874Y0028418D02*
X0111831Y0028418D01*
X0111831Y0027632D02*
X0130660Y0027632D01*
X0132609Y0030007D02*
X0129459Y0033157D01*
X0130847Y0033919D02*
X0161330Y0033919D01*
X0160544Y0033133D02*
X0131445Y0033133D01*
X0132231Y0032347D02*
X0159759Y0032347D01*
X0158973Y0031561D02*
X0133017Y0031561D01*
X0132609Y0030007D02*
X0159381Y0030007D01*
X0166467Y0037094D01*
X0168830Y0037094D01*
X0167281Y0038635D02*
X0158913Y0038635D01*
X0158937Y0037849D02*
X0165260Y0037849D01*
X0164474Y0037063D02*
X0158886Y0037063D01*
X0158561Y0036277D02*
X0163688Y0036277D01*
X0162902Y0035491D02*
X0157994Y0035491D01*
X0156905Y0034705D02*
X0162116Y0034705D01*
X0155444Y0037881D02*
X0155444Y0041031D01*
X0156231Y0041819D01*
X0154674Y0043350D02*
X0144706Y0043350D01*
X0143920Y0042564D02*
X0154047Y0042564D01*
X0154047Y0041778D02*
X0143134Y0041778D01*
X0142348Y0040992D02*
X0153825Y0040992D01*
X0152828Y0040206D02*
X0122892Y0040206D01*
X0122892Y0039421D02*
X0152300Y0039421D01*
X0151974Y0038635D02*
X0122668Y0038635D01*
X0121882Y0037849D02*
X0151950Y0037849D01*
X0152001Y0037063D02*
X0121096Y0037063D01*
X0120310Y0036277D02*
X0125105Y0036277D01*
X0124319Y0035491D02*
X0113283Y0035491D01*
X0113524Y0036277D02*
X0114987Y0036277D01*
X0114201Y0037063D02*
X0113524Y0037063D01*
X0112137Y0036307D02*
X0108200Y0032370D01*
X0108200Y0030795D01*
X0107412Y0030007D01*
X0105837Y0028433D01*
X0107412Y0030007D02*
X0109774Y0030007D01*
X0110399Y0032347D02*
X0119401Y0032347D01*
X0120047Y0033133D02*
X0110925Y0033133D01*
X0111711Y0033919D02*
X0123348Y0033919D01*
X0123348Y0033133D02*
X0123123Y0033133D01*
X0123534Y0034705D02*
X0112497Y0034705D01*
X0103421Y0033919D02*
X0072170Y0033919D01*
X0071085Y0033133D02*
X0102062Y0033133D01*
X0101276Y0032347D02*
X0041880Y0032347D01*
X0041880Y0031561D02*
X0100646Y0031561D01*
X0100320Y0030776D02*
X0041191Y0030776D01*
X0039696Y0032370D02*
X0033396Y0032370D01*
X0036536Y0033919D02*
X0038156Y0033919D01*
X0036002Y0034705D02*
X0066499Y0034705D01*
X0066173Y0035491D02*
X0034990Y0035491D01*
X0041235Y0033919D02*
X0067064Y0033919D01*
X0068149Y0033133D02*
X0041880Y0033133D01*
X0038201Y0030776D02*
X0036518Y0030776D01*
X0035957Y0029990D02*
X0099995Y0029990D01*
X0102112Y0034705D02*
X0073467Y0034705D01*
X0074163Y0035491D02*
X0101326Y0035491D01*
X0079853Y0039456D02*
X0076704Y0041031D01*
X0075225Y0039421D02*
X0071229Y0039421D01*
X0072230Y0038635D02*
X0076412Y0038635D01*
X0108304Y0044922D02*
X0109174Y0044922D01*
X0110562Y0044181D02*
X0110562Y0053630D01*
X0112137Y0055204D01*
X0112137Y0057567D01*
X0109952Y0057497D02*
X0098001Y0057497D01*
X0098787Y0058282D02*
X0109952Y0058282D01*
X0110549Y0059068D02*
X0099573Y0059068D01*
X0100359Y0059854D02*
X0112315Y0059854D01*
X0112315Y0060640D02*
X0100457Y0060640D01*
X0100457Y0061426D02*
X0112907Y0061426D01*
X0116683Y0060640D02*
X0135991Y0060640D01*
X0138676Y0060640D02*
X0140661Y0060640D01*
X0140661Y0059854D02*
X0116683Y0059854D01*
X0116683Y0059068D02*
X0138896Y0059068D01*
X0138299Y0058282D02*
X0115942Y0058282D01*
X0115886Y0057497D02*
X0138299Y0057497D01*
X0138299Y0056711D02*
X0115886Y0056711D01*
X0115886Y0055925D02*
X0139036Y0055925D01*
X0140483Y0057567D02*
X0151507Y0057567D01*
X0157806Y0063866D01*
X0186940Y0063866D01*
X0193239Y0057567D01*
X0200326Y0057567D01*
X0198878Y0055925D02*
X0180985Y0055925D01*
X0180985Y0055297D02*
X0180985Y0056687D01*
X0180453Y0057971D01*
X0179470Y0058954D01*
X0178888Y0059195D01*
X0178888Y0060833D01*
X0177608Y0062113D01*
X0175799Y0062113D01*
X0174519Y0060833D01*
X0174519Y0059024D01*
X0175051Y0058492D01*
X0174529Y0057971D01*
X0173997Y0056687D01*
X0173997Y0055297D01*
X0174529Y0054013D01*
X0175512Y0053030D01*
X0176796Y0052498D01*
X0178186Y0052498D01*
X0179470Y0053030D01*
X0180453Y0054013D01*
X0180985Y0055297D01*
X0180919Y0055139D02*
X0201291Y0055139D01*
X0202025Y0054353D02*
X0180594Y0054353D01*
X0180007Y0053567D02*
X0210749Y0053567D01*
X0210749Y0052781D02*
X0178869Y0052781D01*
X0176113Y0052781D02*
X0151751Y0052781D01*
X0151751Y0053567D02*
X0174975Y0053567D01*
X0174388Y0054353D02*
X0151617Y0054353D01*
X0151291Y0055139D02*
X0174063Y0055139D01*
X0173997Y0055925D02*
X0150586Y0055925D01*
X0152613Y0056711D02*
X0174007Y0056711D01*
X0174333Y0057497D02*
X0153399Y0057497D01*
X0154185Y0058282D02*
X0174841Y0058282D01*
X0174519Y0059068D02*
X0154971Y0059068D01*
X0155757Y0059854D02*
X0174519Y0059854D01*
X0174519Y0060640D02*
X0156542Y0060640D01*
X0157328Y0061426D02*
X0175112Y0061426D01*
X0176704Y0059929D02*
X0177491Y0059141D01*
X0177491Y0055992D01*
X0180649Y0057497D02*
X0191347Y0057497D01*
X0191852Y0056992D02*
X0191852Y0056992D01*
X0192133Y0056711D02*
X0180975Y0056711D01*
X0180141Y0058282D02*
X0190561Y0058282D01*
X0189775Y0059068D02*
X0179193Y0059068D01*
X0178888Y0059854D02*
X0188989Y0059854D01*
X0188203Y0060640D02*
X0178888Y0060640D01*
X0178295Y0061426D02*
X0187417Y0061426D01*
X0186631Y0062212D02*
X0158114Y0062212D01*
X0157019Y0065441D02*
X0150719Y0059141D01*
X0144420Y0059141D01*
X0143633Y0059929D01*
X0142845Y0059929D01*
X0141254Y0061426D02*
X0139835Y0061426D01*
X0140430Y0062212D02*
X0145157Y0062212D01*
X0144963Y0062998D02*
X0140756Y0062998D01*
X0141093Y0063784D02*
X0144963Y0063784D01*
X0145187Y0064570D02*
X0141093Y0064570D01*
X0141093Y0065356D02*
X0145559Y0065356D01*
X0146345Y0066142D02*
X0140509Y0066142D01*
X0138908Y0064653D02*
X0138121Y0064653D01*
X0137333Y0063866D01*
X0133840Y0063784D02*
X0100457Y0063784D01*
X0100457Y0064570D02*
X0133844Y0064570D01*
X0134169Y0065356D02*
X0099730Y0065356D01*
X0098944Y0066142D02*
X0134669Y0066142D01*
X0133911Y0062998D02*
X0100457Y0062998D01*
X0090683Y0066142D02*
X0011543Y0066142D01*
X0012329Y0065356D02*
X0089897Y0065356D01*
X0089170Y0064570D02*
X0013115Y0064570D01*
X0013901Y0063784D02*
X0089170Y0063784D01*
X0097215Y0056711D02*
X0109952Y0056711D01*
X0115609Y0054353D02*
X0145098Y0054353D01*
X0144963Y0053567D02*
X0114824Y0053567D01*
X0114038Y0052781D02*
X0144963Y0052781D01*
X0145247Y0051995D02*
X0113524Y0051995D01*
X0115886Y0055139D02*
X0145423Y0055139D01*
X0146128Y0055925D02*
X0141930Y0055925D01*
X0151012Y0051209D02*
X0210749Y0051209D01*
X0210749Y0050423D02*
X0154313Y0050423D01*
X0155099Y0049637D02*
X0210749Y0049637D01*
X0210749Y0048852D02*
X0155885Y0048852D01*
X0156670Y0048066D02*
X0159389Y0048066D01*
X0162522Y0048066D02*
X0210749Y0048066D01*
X0210749Y0047280D02*
X0163140Y0047280D01*
X0163140Y0046494D02*
X0210749Y0046494D01*
X0210749Y0045708D02*
X0163140Y0045708D01*
X0162424Y0044922D02*
X0210749Y0044922D01*
X0212137Y0043393D02*
X0212137Y0054417D01*
X0211349Y0055204D01*
X0211349Y0061504D01*
X0209755Y0062998D02*
X0192132Y0062998D01*
X0192918Y0062212D02*
X0209165Y0062212D01*
X0209165Y0061426D02*
X0193704Y0061426D01*
X0194490Y0060640D02*
X0197500Y0060640D01*
X0198751Y0059929D02*
X0197963Y0059141D01*
X0194026Y0059141D01*
X0187727Y0065441D01*
X0157019Y0065441D01*
X0146271Y0060640D02*
X0145030Y0060640D01*
X0145485Y0061426D02*
X0144437Y0061426D01*
X0151468Y0051995D02*
X0210749Y0051995D01*
X0213524Y0052781D02*
X0217845Y0052781D01*
X0216707Y0053567D02*
X0213524Y0053567D01*
X0213524Y0054353D02*
X0216120Y0054353D01*
X0215795Y0055139D02*
X0213377Y0055139D01*
X0212737Y0055925D02*
X0215730Y0055925D01*
X0215739Y0056711D02*
X0212737Y0056711D01*
X0212737Y0057497D02*
X0216065Y0057497D01*
X0216573Y0058282D02*
X0212737Y0058282D01*
X0212737Y0059068D02*
X0216252Y0059068D01*
X0216252Y0059854D02*
X0212789Y0059854D01*
X0213533Y0060640D02*
X0216252Y0060640D01*
X0216844Y0061426D02*
X0213533Y0061426D01*
X0209909Y0059854D02*
X0203937Y0059854D01*
X0204723Y0059068D02*
X0209962Y0059068D01*
X0209962Y0058282D02*
X0204863Y0058282D01*
X0205059Y0057497D02*
X0209962Y0057497D01*
X0209962Y0056711D02*
X0205659Y0056711D01*
X0205659Y0055925D02*
X0209962Y0055925D01*
X0209962Y0055139D02*
X0205659Y0055139D01*
X0204925Y0054353D02*
X0210239Y0054353D01*
X0203475Y0055992D02*
X0203475Y0058354D01*
X0201900Y0059929D01*
X0198751Y0059929D01*
X0203151Y0060640D02*
X0209165Y0060640D01*
X0218436Y0059929D02*
X0219223Y0055992D01*
X0155104Y0045708D02*
X0144939Y0045708D01*
X0144939Y0046494D02*
X0154318Y0046494D01*
X0153532Y0047280D02*
X0144939Y0047280D01*
X0146670Y0048066D02*
X0152746Y0048066D01*
X0143023Y0050423D02*
X0142444Y0050423D01*
X0134452Y0045708D02*
X0120387Y0045708D01*
X0121173Y0044922D02*
X0134452Y0044922D01*
X0134452Y0044136D02*
X0121959Y0044136D01*
X0122745Y0043350D02*
X0134685Y0043350D01*
X0135471Y0042564D02*
X0122892Y0042564D01*
X0122892Y0041778D02*
X0136257Y0041778D01*
X0137043Y0040992D02*
X0122892Y0040992D01*
X0129089Y0036277D02*
X0152327Y0036277D01*
X0152893Y0035491D02*
X0129875Y0035491D01*
X0130661Y0034705D02*
X0153983Y0034705D01*
X0128303Y0029990D02*
X0123082Y0029990D01*
X0125103Y0030776D02*
X0127517Y0030776D01*
X0049332Y0024488D02*
X0023107Y0024488D01*
X0023770Y0023702D02*
X0048751Y0023702D01*
X0028014Y0056711D02*
X0012963Y0056711D01*
X0013749Y0057497D02*
X0027275Y0057497D01*
X0027147Y0058282D02*
X0014535Y0058282D01*
X0014631Y0059068D02*
X0026822Y0059068D01*
X0029459Y0059141D02*
X0030247Y0059929D01*
X0029459Y0059141D02*
X0029459Y0058354D01*
X0009381Y0062212D02*
X0008593Y0062212D01*
X0008593Y0062998D02*
X0009381Y0062998D01*
X0009381Y0063784D02*
X0008593Y0063784D01*
X0008593Y0064570D02*
X0009381Y0064570D01*
X0009381Y0065356D02*
X0008593Y0065356D01*
X0008593Y0066142D02*
X0009381Y0066142D01*
X0003343Y0062212D02*
X0003294Y0062212D01*
X0003294Y0061426D02*
X0003343Y0061426D01*
X0300326Y0054417D02*
X0301900Y0055992D01*
D19*
X0008200Y0044181D03*
M02*
