G75*
%MOIN*%
%OFA0B0*%
%FSLAX25Y25*%
%IPPOS*%
%LPD*%
%AMOC8*
5,1,8,0,0,1.08239X$1,22.5*
%
%ADD10C,0.00000*%
%ADD11C,0.00787*%
%ADD12C,0.00500*%
%ADD13C,0.00800*%
%ADD14R,0.05984X0.01930*%
%ADD15C,0.00600*%
%ADD16C,0.00787*%
%ADD17C,0.01575*%
%ADD18R,0.00984X0.00984*%
%ADD19C,0.01600*%
%ADD20R,0.02300X0.01600*%
D10*
X0007412Y0020559D02*
X0374341Y0020559D01*
X0374341Y0020558D02*
X0374488Y0020560D01*
X0374634Y0020566D01*
X0374781Y0020576D01*
X0374927Y0020589D01*
X0375073Y0020607D01*
X0375218Y0020628D01*
X0375362Y0020653D01*
X0375506Y0020683D01*
X0375649Y0020715D01*
X0375791Y0020752D01*
X0375932Y0020793D01*
X0376072Y0020837D01*
X0376211Y0020885D01*
X0376348Y0020936D01*
X0376484Y0020992D01*
X0376619Y0021051D01*
X0376751Y0021113D01*
X0376883Y0021179D01*
X0377012Y0021248D01*
X0377139Y0021321D01*
X0377265Y0021397D01*
X0377388Y0021477D01*
X0377509Y0021560D01*
X0377628Y0021645D01*
X0377745Y0021735D01*
X0377859Y0021827D01*
X0377971Y0021922D01*
X0378080Y0022020D01*
X0378186Y0022121D01*
X0378290Y0022225D01*
X0378391Y0022331D01*
X0378489Y0022440D01*
X0378584Y0022552D01*
X0378676Y0022666D01*
X0378766Y0022783D01*
X0378851Y0022902D01*
X0378934Y0023023D01*
X0379014Y0023146D01*
X0379090Y0023272D01*
X0379163Y0023399D01*
X0379232Y0023528D01*
X0379298Y0023660D01*
X0379360Y0023792D01*
X0379419Y0023927D01*
X0379475Y0024063D01*
X0379526Y0024200D01*
X0379574Y0024339D01*
X0379618Y0024479D01*
X0379659Y0024620D01*
X0379696Y0024762D01*
X0379728Y0024905D01*
X0379758Y0025049D01*
X0379783Y0025193D01*
X0379804Y0025338D01*
X0379822Y0025484D01*
X0379835Y0025630D01*
X0379845Y0025777D01*
X0379851Y0025923D01*
X0379853Y0026070D01*
X0379853Y0062291D01*
X0379851Y0062438D01*
X0379845Y0062584D01*
X0379835Y0062731D01*
X0379822Y0062877D01*
X0379804Y0063023D01*
X0379783Y0063168D01*
X0379758Y0063312D01*
X0379728Y0063456D01*
X0379696Y0063599D01*
X0379659Y0063741D01*
X0379618Y0063882D01*
X0379574Y0064022D01*
X0379526Y0064161D01*
X0379475Y0064298D01*
X0379419Y0064434D01*
X0379360Y0064569D01*
X0379298Y0064701D01*
X0379232Y0064833D01*
X0379163Y0064962D01*
X0379090Y0065089D01*
X0379014Y0065215D01*
X0378934Y0065338D01*
X0378851Y0065459D01*
X0378766Y0065578D01*
X0378676Y0065695D01*
X0378584Y0065809D01*
X0378489Y0065921D01*
X0378391Y0066030D01*
X0378290Y0066136D01*
X0378186Y0066240D01*
X0378080Y0066341D01*
X0377971Y0066439D01*
X0377859Y0066534D01*
X0377745Y0066626D01*
X0377628Y0066716D01*
X0377509Y0066801D01*
X0377388Y0066884D01*
X0377265Y0066964D01*
X0377139Y0067040D01*
X0377012Y0067113D01*
X0376883Y0067182D01*
X0376751Y0067248D01*
X0376619Y0067310D01*
X0376484Y0067369D01*
X0376348Y0067425D01*
X0376211Y0067476D01*
X0376072Y0067524D01*
X0375932Y0067568D01*
X0375791Y0067609D01*
X0375649Y0067646D01*
X0375506Y0067678D01*
X0375362Y0067708D01*
X0375218Y0067733D01*
X0375073Y0067754D01*
X0374927Y0067772D01*
X0374781Y0067785D01*
X0374634Y0067795D01*
X0374488Y0067801D01*
X0374341Y0067803D01*
X0007412Y0067803D01*
X0007265Y0067801D01*
X0007119Y0067795D01*
X0006972Y0067785D01*
X0006826Y0067772D01*
X0006680Y0067754D01*
X0006535Y0067733D01*
X0006391Y0067708D01*
X0006247Y0067678D01*
X0006104Y0067646D01*
X0005962Y0067609D01*
X0005821Y0067568D01*
X0005681Y0067524D01*
X0005542Y0067476D01*
X0005405Y0067425D01*
X0005269Y0067369D01*
X0005134Y0067310D01*
X0005002Y0067248D01*
X0004870Y0067182D01*
X0004741Y0067113D01*
X0004614Y0067040D01*
X0004488Y0066964D01*
X0004365Y0066884D01*
X0004244Y0066801D01*
X0004125Y0066716D01*
X0004008Y0066626D01*
X0003894Y0066534D01*
X0003782Y0066439D01*
X0003673Y0066341D01*
X0003567Y0066240D01*
X0003463Y0066136D01*
X0003362Y0066030D01*
X0003264Y0065921D01*
X0003169Y0065809D01*
X0003077Y0065695D01*
X0002987Y0065578D01*
X0002902Y0065459D01*
X0002819Y0065338D01*
X0002739Y0065215D01*
X0002663Y0065089D01*
X0002590Y0064962D01*
X0002521Y0064833D01*
X0002455Y0064701D01*
X0002393Y0064569D01*
X0002334Y0064434D01*
X0002278Y0064298D01*
X0002227Y0064161D01*
X0002179Y0064022D01*
X0002135Y0063882D01*
X0002094Y0063741D01*
X0002057Y0063599D01*
X0002025Y0063456D01*
X0001995Y0063312D01*
X0001970Y0063168D01*
X0001949Y0063023D01*
X0001931Y0062877D01*
X0001918Y0062731D01*
X0001908Y0062584D01*
X0001902Y0062438D01*
X0001900Y0062291D01*
X0001900Y0026070D01*
X0001902Y0025923D01*
X0001908Y0025777D01*
X0001918Y0025630D01*
X0001931Y0025484D01*
X0001949Y0025338D01*
X0001970Y0025193D01*
X0001995Y0025049D01*
X0002025Y0024905D01*
X0002057Y0024762D01*
X0002094Y0024620D01*
X0002135Y0024479D01*
X0002179Y0024339D01*
X0002227Y0024200D01*
X0002278Y0024063D01*
X0002334Y0023927D01*
X0002393Y0023792D01*
X0002455Y0023660D01*
X0002521Y0023528D01*
X0002590Y0023399D01*
X0002663Y0023272D01*
X0002739Y0023146D01*
X0002819Y0023023D01*
X0002902Y0022902D01*
X0002987Y0022783D01*
X0003077Y0022666D01*
X0003169Y0022552D01*
X0003264Y0022440D01*
X0003362Y0022331D01*
X0003463Y0022225D01*
X0003567Y0022121D01*
X0003673Y0022020D01*
X0003782Y0021922D01*
X0003894Y0021827D01*
X0004008Y0021735D01*
X0004125Y0021645D01*
X0004244Y0021560D01*
X0004365Y0021477D01*
X0004488Y0021397D01*
X0004614Y0021321D01*
X0004741Y0021248D01*
X0004870Y0021179D01*
X0005002Y0021113D01*
X0005134Y0021051D01*
X0005269Y0020992D01*
X0005405Y0020936D01*
X0005542Y0020885D01*
X0005681Y0020837D01*
X0005821Y0020793D01*
X0005962Y0020752D01*
X0006104Y0020715D01*
X0006247Y0020683D01*
X0006391Y0020653D01*
X0006535Y0020628D01*
X0006680Y0020607D01*
X0006826Y0020589D01*
X0006972Y0020576D01*
X0007119Y0020566D01*
X0007265Y0020560D01*
X0007412Y0020558D01*
D11*
X0011349Y0026070D02*
X0011349Y0029220D01*
X0008200Y0029220D02*
X0006625Y0029220D01*
X0005050Y0029220D02*
X0005052Y0029317D01*
X0005058Y0029414D01*
X0005068Y0029510D01*
X0005082Y0029606D01*
X0005100Y0029702D01*
X0005121Y0029796D01*
X0005147Y0029890D01*
X0005176Y0029982D01*
X0005210Y0030073D01*
X0005246Y0030163D01*
X0005287Y0030251D01*
X0005331Y0030337D01*
X0005379Y0030422D01*
X0005430Y0030504D01*
X0005484Y0030585D01*
X0005542Y0030663D01*
X0005603Y0030738D01*
X0005666Y0030811D01*
X0005733Y0030882D01*
X0005803Y0030949D01*
X0005875Y0031014D01*
X0005950Y0031075D01*
X0006028Y0031134D01*
X0006107Y0031189D01*
X0006189Y0031241D01*
X0006273Y0031289D01*
X0006359Y0031334D01*
X0006447Y0031376D01*
X0006536Y0031414D01*
X0006627Y0031448D01*
X0006719Y0031478D01*
X0006812Y0031505D01*
X0006907Y0031527D01*
X0007002Y0031546D01*
X0007098Y0031561D01*
X0007194Y0031572D01*
X0007291Y0031579D01*
X0007388Y0031582D01*
X0007485Y0031581D01*
X0007582Y0031576D01*
X0007678Y0031567D01*
X0007774Y0031554D01*
X0007870Y0031537D01*
X0007965Y0031516D01*
X0008058Y0031492D01*
X0008151Y0031463D01*
X0008243Y0031431D01*
X0008333Y0031395D01*
X0008421Y0031356D01*
X0008508Y0031312D01*
X0008593Y0031266D01*
X0008676Y0031215D01*
X0008757Y0031162D01*
X0008835Y0031105D01*
X0008912Y0031045D01*
X0008985Y0030982D01*
X0009056Y0030916D01*
X0009124Y0030847D01*
X0009190Y0030775D01*
X0009252Y0030701D01*
X0009311Y0030624D01*
X0009367Y0030545D01*
X0009420Y0030463D01*
X0009470Y0030380D01*
X0009515Y0030294D01*
X0009558Y0030207D01*
X0009597Y0030118D01*
X0009632Y0030028D01*
X0009663Y0029936D01*
X0009690Y0029843D01*
X0009714Y0029749D01*
X0009734Y0029654D01*
X0009750Y0029558D01*
X0009762Y0029462D01*
X0009770Y0029365D01*
X0009774Y0029268D01*
X0009774Y0029172D01*
X0009770Y0029075D01*
X0009762Y0028978D01*
X0009750Y0028882D01*
X0009734Y0028786D01*
X0009714Y0028691D01*
X0009690Y0028597D01*
X0009663Y0028504D01*
X0009632Y0028412D01*
X0009597Y0028322D01*
X0009558Y0028233D01*
X0009515Y0028146D01*
X0009470Y0028060D01*
X0009420Y0027977D01*
X0009367Y0027895D01*
X0009311Y0027816D01*
X0009252Y0027739D01*
X0009190Y0027665D01*
X0009124Y0027593D01*
X0009056Y0027524D01*
X0008985Y0027458D01*
X0008912Y0027395D01*
X0008835Y0027335D01*
X0008757Y0027278D01*
X0008676Y0027225D01*
X0008593Y0027174D01*
X0008508Y0027128D01*
X0008421Y0027084D01*
X0008333Y0027045D01*
X0008243Y0027009D01*
X0008151Y0026977D01*
X0008058Y0026948D01*
X0007965Y0026924D01*
X0007870Y0026903D01*
X0007774Y0026886D01*
X0007678Y0026873D01*
X0007582Y0026864D01*
X0007485Y0026859D01*
X0007388Y0026858D01*
X0007291Y0026861D01*
X0007194Y0026868D01*
X0007098Y0026879D01*
X0007002Y0026894D01*
X0006907Y0026913D01*
X0006812Y0026935D01*
X0006719Y0026962D01*
X0006627Y0026992D01*
X0006536Y0027026D01*
X0006447Y0027064D01*
X0006359Y0027106D01*
X0006273Y0027151D01*
X0006189Y0027199D01*
X0006107Y0027251D01*
X0006028Y0027306D01*
X0005950Y0027365D01*
X0005875Y0027426D01*
X0005803Y0027491D01*
X0005733Y0027558D01*
X0005666Y0027629D01*
X0005603Y0027702D01*
X0005542Y0027777D01*
X0005484Y0027855D01*
X0005430Y0027936D01*
X0005379Y0028018D01*
X0005331Y0028103D01*
X0005287Y0028189D01*
X0005246Y0028277D01*
X0005210Y0028367D01*
X0005176Y0028458D01*
X0005147Y0028550D01*
X0005121Y0028644D01*
X0005100Y0028738D01*
X0005082Y0028834D01*
X0005068Y0028930D01*
X0005058Y0029026D01*
X0005052Y0029123D01*
X0005050Y0029220D01*
X0007412Y0030007D02*
X0007412Y0028433D01*
X0016074Y0029220D02*
X0016074Y0026070D01*
X0023160Y0026070D02*
X0024735Y0026070D01*
X0034184Y0028433D02*
X0034184Y0030007D01*
X0038908Y0030007D02*
X0038908Y0028433D01*
X0040483Y0028433D02*
X0040483Y0030007D01*
X0045207Y0030007D02*
X0045207Y0028433D01*
X0053081Y0026858D02*
X0054656Y0026858D01*
X0054656Y0022133D02*
X0053081Y0022133D01*
X0063318Y0031582D02*
X0063318Y0033157D01*
X0059381Y0033157D02*
X0059381Y0034732D01*
X0054656Y0034732D02*
X0054656Y0033157D01*
X0053081Y0033157D02*
X0053081Y0034732D01*
X0048357Y0034732D02*
X0048357Y0033157D01*
X0045207Y0041031D02*
X0045207Y0042606D01*
X0040483Y0042606D02*
X0040483Y0041031D01*
X0038908Y0041031D02*
X0038908Y0042606D01*
X0034184Y0042606D02*
X0034184Y0041031D01*
X0024735Y0032370D02*
X0023160Y0032370D01*
X0068042Y0031582D02*
X0068042Y0033157D01*
X0069617Y0033944D02*
X0069617Y0030795D01*
X0074341Y0030795D02*
X0074341Y0033944D01*
X0075916Y0033157D02*
X0075916Y0031582D01*
X0080641Y0031582D02*
X0080641Y0033157D01*
X0073554Y0039456D02*
X0071979Y0039456D01*
X0071979Y0044181D02*
X0073554Y0044181D01*
X0048357Y0054417D02*
X0048357Y0055992D01*
X0042058Y0055992D02*
X0042058Y0054417D01*
X0040483Y0054417D02*
X0040483Y0055992D01*
X0034184Y0055992D02*
X0034184Y0054417D01*
X0026310Y0051267D02*
X0023160Y0051267D01*
X0023160Y0062291D02*
X0026310Y0062291D01*
X0020011Y0064653D02*
X0018436Y0064653D01*
X0016861Y0064653D02*
X0016863Y0064750D01*
X0016869Y0064847D01*
X0016879Y0064943D01*
X0016893Y0065039D01*
X0016911Y0065135D01*
X0016932Y0065229D01*
X0016958Y0065323D01*
X0016987Y0065415D01*
X0017021Y0065506D01*
X0017057Y0065596D01*
X0017098Y0065684D01*
X0017142Y0065770D01*
X0017190Y0065855D01*
X0017241Y0065937D01*
X0017295Y0066018D01*
X0017353Y0066096D01*
X0017414Y0066171D01*
X0017477Y0066244D01*
X0017544Y0066315D01*
X0017614Y0066382D01*
X0017686Y0066447D01*
X0017761Y0066508D01*
X0017839Y0066567D01*
X0017918Y0066622D01*
X0018000Y0066674D01*
X0018084Y0066722D01*
X0018170Y0066767D01*
X0018258Y0066809D01*
X0018347Y0066847D01*
X0018438Y0066881D01*
X0018530Y0066911D01*
X0018623Y0066938D01*
X0018718Y0066960D01*
X0018813Y0066979D01*
X0018909Y0066994D01*
X0019005Y0067005D01*
X0019102Y0067012D01*
X0019199Y0067015D01*
X0019296Y0067014D01*
X0019393Y0067009D01*
X0019489Y0067000D01*
X0019585Y0066987D01*
X0019681Y0066970D01*
X0019776Y0066949D01*
X0019869Y0066925D01*
X0019962Y0066896D01*
X0020054Y0066864D01*
X0020144Y0066828D01*
X0020232Y0066789D01*
X0020319Y0066745D01*
X0020404Y0066699D01*
X0020487Y0066648D01*
X0020568Y0066595D01*
X0020646Y0066538D01*
X0020723Y0066478D01*
X0020796Y0066415D01*
X0020867Y0066349D01*
X0020935Y0066280D01*
X0021001Y0066208D01*
X0021063Y0066134D01*
X0021122Y0066057D01*
X0021178Y0065978D01*
X0021231Y0065896D01*
X0021281Y0065813D01*
X0021326Y0065727D01*
X0021369Y0065640D01*
X0021408Y0065551D01*
X0021443Y0065461D01*
X0021474Y0065369D01*
X0021501Y0065276D01*
X0021525Y0065182D01*
X0021545Y0065087D01*
X0021561Y0064991D01*
X0021573Y0064895D01*
X0021581Y0064798D01*
X0021585Y0064701D01*
X0021585Y0064605D01*
X0021581Y0064508D01*
X0021573Y0064411D01*
X0021561Y0064315D01*
X0021545Y0064219D01*
X0021525Y0064124D01*
X0021501Y0064030D01*
X0021474Y0063937D01*
X0021443Y0063845D01*
X0021408Y0063755D01*
X0021369Y0063666D01*
X0021326Y0063579D01*
X0021281Y0063493D01*
X0021231Y0063410D01*
X0021178Y0063328D01*
X0021122Y0063249D01*
X0021063Y0063172D01*
X0021001Y0063098D01*
X0020935Y0063026D01*
X0020867Y0062957D01*
X0020796Y0062891D01*
X0020723Y0062828D01*
X0020646Y0062768D01*
X0020568Y0062711D01*
X0020487Y0062658D01*
X0020404Y0062607D01*
X0020319Y0062561D01*
X0020232Y0062517D01*
X0020144Y0062478D01*
X0020054Y0062442D01*
X0019962Y0062410D01*
X0019869Y0062381D01*
X0019776Y0062357D01*
X0019681Y0062336D01*
X0019585Y0062319D01*
X0019489Y0062306D01*
X0019393Y0062297D01*
X0019296Y0062292D01*
X0019199Y0062291D01*
X0019102Y0062294D01*
X0019005Y0062301D01*
X0018909Y0062312D01*
X0018813Y0062327D01*
X0018718Y0062346D01*
X0018623Y0062368D01*
X0018530Y0062395D01*
X0018438Y0062425D01*
X0018347Y0062459D01*
X0018258Y0062497D01*
X0018170Y0062539D01*
X0018084Y0062584D01*
X0018000Y0062632D01*
X0017918Y0062684D01*
X0017839Y0062739D01*
X0017761Y0062798D01*
X0017686Y0062859D01*
X0017614Y0062924D01*
X0017544Y0062991D01*
X0017477Y0063062D01*
X0017414Y0063135D01*
X0017353Y0063210D01*
X0017295Y0063288D01*
X0017241Y0063369D01*
X0017190Y0063451D01*
X0017142Y0063536D01*
X0017098Y0063622D01*
X0017057Y0063710D01*
X0017021Y0063800D01*
X0016987Y0063891D01*
X0016958Y0063983D01*
X0016932Y0064077D01*
X0016911Y0064171D01*
X0016893Y0064267D01*
X0016879Y0064363D01*
X0016869Y0064459D01*
X0016863Y0064556D01*
X0016861Y0064653D01*
X0112924Y0031582D02*
X0114499Y0031582D01*
X0116861Y0033944D01*
X0116861Y0032370D01*
X0116861Y0033944D02*
X0115286Y0033944D01*
X0127885Y0038669D02*
X0129459Y0038669D01*
X0129459Y0043393D02*
X0127885Y0043393D01*
X0131822Y0045756D02*
X0133396Y0045756D01*
X0133396Y0047330D01*
X0133396Y0045756D02*
X0131034Y0048118D01*
X0152294Y0048905D02*
X0153869Y0048905D01*
X0153869Y0044181D02*
X0152294Y0044181D01*
X0152294Y0042606D02*
X0153869Y0042606D01*
X0161743Y0040244D02*
X0161743Y0038669D01*
X0166467Y0038669D02*
X0166467Y0040244D01*
X0153869Y0037881D02*
X0152294Y0037881D01*
X0152294Y0031582D02*
X0152294Y0030007D01*
X0153869Y0030007D02*
X0153869Y0031582D01*
X0158593Y0031582D02*
X0158593Y0030007D01*
X0161743Y0029220D02*
X0161743Y0027645D01*
X0166467Y0027645D02*
X0166467Y0029220D01*
X0167255Y0030007D02*
X0167255Y0028433D01*
X0171979Y0028433D02*
X0171979Y0030007D01*
X0172767Y0022133D02*
X0171979Y0021346D01*
X0166467Y0021346D01*
X0164893Y0022921D01*
X0164893Y0021346D01*
X0164893Y0022921D02*
X0166467Y0022921D01*
X0147570Y0030007D02*
X0147570Y0031582D01*
X0208987Y0026858D02*
X0210562Y0026858D01*
X0210562Y0022133D02*
X0208987Y0022133D01*
X0208987Y0043393D02*
X0208987Y0044968D01*
X0213711Y0044968D02*
X0213711Y0043393D01*
X0237333Y0042606D02*
X0238908Y0042606D01*
X0238908Y0047330D02*
X0237333Y0047330D01*
X0221585Y0057567D02*
X0220011Y0057567D01*
X0220011Y0062291D02*
X0221585Y0062291D01*
X0204263Y0062291D02*
X0202688Y0062291D01*
X0202688Y0067015D02*
X0204263Y0067015D01*
X0171979Y0063078D02*
X0170404Y0063078D01*
X0162530Y0059141D02*
X0162530Y0057567D01*
X0157806Y0057567D02*
X0157806Y0059141D01*
X0157019Y0059929D02*
X0157019Y0061504D01*
X0152294Y0061504D02*
X0152294Y0059929D01*
X0170404Y0058354D02*
X0171979Y0058354D01*
X0259381Y0059929D02*
X0259381Y0061504D01*
X0264105Y0061504D02*
X0264105Y0059929D01*
X0301113Y0061504D02*
X0302688Y0061504D01*
X0308200Y0057567D02*
X0308200Y0054417D01*
X0312924Y0054417D02*
X0312924Y0057567D01*
X0314499Y0056779D02*
X0314499Y0055204D01*
X0319223Y0055204D02*
X0319223Y0056779D01*
X0320011Y0056779D02*
X0320011Y0055204D01*
X0324735Y0055204D02*
X0324735Y0056779D01*
X0325522Y0057567D02*
X0325522Y0054417D01*
X0330247Y0054417D02*
X0330247Y0057567D01*
X0331034Y0056779D02*
X0331034Y0055204D01*
X0335759Y0055204D02*
X0335759Y0056779D01*
X0336546Y0057567D02*
X0336546Y0054417D01*
X0341270Y0054417D02*
X0341270Y0057567D01*
X0347570Y0054417D02*
X0349144Y0054417D01*
X0349144Y0049693D02*
X0347570Y0049693D01*
X0346782Y0048905D02*
X0349932Y0048905D01*
X0349932Y0044181D02*
X0346782Y0044181D01*
X0335759Y0044181D02*
X0335759Y0042606D01*
X0331034Y0042606D02*
X0331034Y0044181D01*
X0330247Y0044968D02*
X0330247Y0041819D01*
X0325522Y0041819D02*
X0325522Y0044968D01*
X0324735Y0044181D02*
X0324735Y0042606D01*
X0320011Y0042606D02*
X0320011Y0044181D01*
X0319223Y0044181D02*
X0319223Y0042606D01*
X0314499Y0042606D02*
X0314499Y0044181D01*
X0312924Y0044968D02*
X0312924Y0041819D01*
X0308200Y0041819D02*
X0308200Y0044968D01*
X0307412Y0033944D02*
X0305837Y0033944D01*
X0305837Y0029220D02*
X0307412Y0029220D01*
X0307412Y0027645D02*
X0305837Y0027645D01*
X0305837Y0022921D02*
X0307412Y0022921D01*
X0277491Y0022921D02*
X0275916Y0022921D01*
X0275916Y0027645D02*
X0277491Y0027645D01*
X0277491Y0029220D02*
X0275916Y0029220D01*
X0275916Y0033944D02*
X0277491Y0033944D01*
X0355444Y0037094D02*
X0355444Y0038669D01*
X0360168Y0038669D02*
X0360168Y0037094D01*
X0363318Y0037094D02*
X0363318Y0038669D01*
X0368042Y0038669D02*
X0368042Y0037094D01*
X0363318Y0044181D02*
X0360168Y0044181D01*
X0360168Y0048905D02*
X0363318Y0048905D01*
X0362530Y0049693D02*
X0360956Y0049693D01*
X0360956Y0054417D02*
X0362530Y0054417D01*
X0302688Y0066228D02*
X0301113Y0066228D01*
D12*
X0297963Y0056779D02*
X0282215Y0056779D01*
X0282215Y0041031D01*
X0297963Y0041031D01*
X0297963Y0056779D01*
X0297963Y0033354D02*
X0285365Y0033354D01*
X0285365Y0024889D01*
X0286743Y0023511D01*
X0285365Y0023511D01*
X0285365Y0024889D01*
X0286743Y0023511D02*
X0297963Y0023511D01*
X0297963Y0033354D01*
X0252688Y0024496D02*
X0252690Y0024565D01*
X0252696Y0024633D01*
X0252706Y0024701D01*
X0252720Y0024768D01*
X0252738Y0024835D01*
X0252759Y0024900D01*
X0252785Y0024964D01*
X0252814Y0025026D01*
X0252846Y0025086D01*
X0252882Y0025145D01*
X0252922Y0025201D01*
X0252964Y0025255D01*
X0253010Y0025306D01*
X0253059Y0025355D01*
X0253110Y0025401D01*
X0253164Y0025443D01*
X0253220Y0025483D01*
X0253278Y0025519D01*
X0253339Y0025551D01*
X0253401Y0025580D01*
X0253465Y0025606D01*
X0253530Y0025627D01*
X0253597Y0025645D01*
X0253664Y0025659D01*
X0253732Y0025669D01*
X0253800Y0025675D01*
X0253869Y0025677D01*
X0253938Y0025675D01*
X0254006Y0025669D01*
X0254074Y0025659D01*
X0254141Y0025645D01*
X0254208Y0025627D01*
X0254273Y0025606D01*
X0254337Y0025580D01*
X0254399Y0025551D01*
X0254459Y0025519D01*
X0254518Y0025483D01*
X0254574Y0025443D01*
X0254628Y0025401D01*
X0254679Y0025355D01*
X0254728Y0025306D01*
X0254774Y0025255D01*
X0254816Y0025201D01*
X0254856Y0025145D01*
X0254892Y0025086D01*
X0254924Y0025026D01*
X0254953Y0024964D01*
X0254979Y0024900D01*
X0255000Y0024835D01*
X0255018Y0024768D01*
X0255032Y0024701D01*
X0255042Y0024633D01*
X0255048Y0024565D01*
X0255050Y0024496D01*
X0255048Y0024427D01*
X0255042Y0024359D01*
X0255032Y0024291D01*
X0255018Y0024224D01*
X0255000Y0024157D01*
X0254979Y0024092D01*
X0254953Y0024028D01*
X0254924Y0023966D01*
X0254892Y0023905D01*
X0254856Y0023847D01*
X0254816Y0023791D01*
X0254774Y0023737D01*
X0254728Y0023686D01*
X0254679Y0023637D01*
X0254628Y0023591D01*
X0254574Y0023549D01*
X0254518Y0023509D01*
X0254460Y0023473D01*
X0254399Y0023441D01*
X0254337Y0023412D01*
X0254273Y0023386D01*
X0254208Y0023365D01*
X0254141Y0023347D01*
X0254074Y0023333D01*
X0254006Y0023323D01*
X0253938Y0023317D01*
X0253869Y0023315D01*
X0253800Y0023317D01*
X0253732Y0023323D01*
X0253664Y0023333D01*
X0253597Y0023347D01*
X0253530Y0023365D01*
X0253465Y0023386D01*
X0253401Y0023412D01*
X0253339Y0023441D01*
X0253278Y0023473D01*
X0253220Y0023509D01*
X0253164Y0023549D01*
X0253110Y0023591D01*
X0253059Y0023637D01*
X0253010Y0023686D01*
X0252964Y0023737D01*
X0252922Y0023791D01*
X0252882Y0023847D01*
X0252846Y0023905D01*
X0252814Y0023966D01*
X0252785Y0024028D01*
X0252759Y0024092D01*
X0252738Y0024157D01*
X0252720Y0024224D01*
X0252706Y0024291D01*
X0252696Y0024359D01*
X0252690Y0024427D01*
X0252688Y0024496D01*
X0206753Y0043719D02*
X0205361Y0042328D01*
X0206753Y0043719D02*
X0205361Y0045111D01*
X0169171Y0045111D02*
X0167779Y0043719D01*
X0169171Y0042328D01*
X0185874Y0025624D02*
X0187266Y0024232D01*
X0188658Y0025624D01*
X0104656Y0024889D02*
X0101704Y0024889D01*
X0104656Y0024889D02*
X0104656Y0027842D01*
X0087924Y0024889D02*
X0084971Y0024889D01*
X0084971Y0027842D01*
X0084971Y0041622D02*
X0084971Y0044574D01*
X0087924Y0044574D01*
X0101704Y0044574D02*
X0104656Y0041622D01*
X0101703Y0042015D02*
X0101705Y0042054D01*
X0101711Y0042093D01*
X0101721Y0042131D01*
X0101734Y0042168D01*
X0101751Y0042203D01*
X0101771Y0042237D01*
X0101795Y0042268D01*
X0101822Y0042297D01*
X0101851Y0042323D01*
X0101883Y0042346D01*
X0101917Y0042366D01*
X0101953Y0042382D01*
X0101990Y0042394D01*
X0102029Y0042403D01*
X0102068Y0042408D01*
X0102107Y0042409D01*
X0102146Y0042406D01*
X0102185Y0042399D01*
X0102222Y0042388D01*
X0102259Y0042374D01*
X0102294Y0042356D01*
X0102327Y0042335D01*
X0102358Y0042310D01*
X0102386Y0042283D01*
X0102411Y0042253D01*
X0102433Y0042220D01*
X0102452Y0042186D01*
X0102467Y0042150D01*
X0102479Y0042112D01*
X0102487Y0042074D01*
X0102491Y0042035D01*
X0102491Y0041995D01*
X0102487Y0041956D01*
X0102479Y0041918D01*
X0102467Y0041880D01*
X0102452Y0041844D01*
X0102433Y0041810D01*
X0102411Y0041777D01*
X0102386Y0041747D01*
X0102358Y0041720D01*
X0102327Y0041695D01*
X0102294Y0041674D01*
X0102259Y0041656D01*
X0102222Y0041642D01*
X0102185Y0041631D01*
X0102146Y0041624D01*
X0102107Y0041621D01*
X0102068Y0041622D01*
X0102029Y0041627D01*
X0101990Y0041636D01*
X0101953Y0041648D01*
X0101917Y0041664D01*
X0101883Y0041684D01*
X0101851Y0041707D01*
X0101822Y0041733D01*
X0101795Y0041762D01*
X0101771Y0041793D01*
X0101751Y0041827D01*
X0101734Y0041862D01*
X0101721Y0041899D01*
X0101711Y0041937D01*
X0101705Y0041976D01*
X0101703Y0042015D01*
X0185874Y0061815D02*
X0187266Y0063207D01*
X0188658Y0061815D01*
X0185874Y0061815D01*
D13*
X0238790Y0041031D02*
X0255956Y0041031D01*
X0255956Y0022133D01*
X0238790Y0022133D01*
X0255956Y0022133D02*
X0257924Y0022133D01*
X0257924Y0041031D02*
X0255956Y0041031D01*
X0083790Y0050283D02*
X0079066Y0050283D01*
X0079066Y0055795D01*
X0061743Y0055795D01*
X0061743Y0050283D01*
X0057019Y0050283D01*
X0057019Y0056582D01*
X0057019Y0067212D02*
X0083790Y0067212D01*
X0083790Y0056582D02*
X0083790Y0050283D01*
D14*
X0235404Y0039082D03*
X0235404Y0034082D03*
X0235404Y0029082D03*
X0235404Y0024082D03*
X0261310Y0024082D03*
X0261310Y0029082D03*
X0261310Y0034082D03*
X0261310Y0039082D03*
D15*
X0245156Y0053697D02*
X0244589Y0053130D01*
X0243455Y0053130D01*
X0242888Y0053697D01*
X0241473Y0053130D02*
X0239205Y0053130D01*
X0239205Y0056533D01*
X0241473Y0056533D01*
X0242888Y0055966D02*
X0243455Y0056533D01*
X0244589Y0056533D01*
X0245156Y0055966D01*
X0245156Y0055399D01*
X0244589Y0054832D01*
X0245156Y0054265D01*
X0245156Y0053697D01*
X0244589Y0054832D02*
X0244022Y0054832D01*
X0246544Y0055116D02*
X0246544Y0057316D01*
X0246544Y0055116D02*
X0249744Y0055116D01*
X0240339Y0054832D02*
X0239205Y0054832D01*
X0237790Y0055399D02*
X0237223Y0054832D01*
X0235521Y0054832D01*
X0235521Y0056533D02*
X0235521Y0053130D01*
X0237223Y0053130D01*
X0237790Y0053697D01*
X0237790Y0054265D01*
X0237223Y0054832D01*
X0237790Y0055399D02*
X0237790Y0055966D01*
X0237223Y0056533D01*
X0235521Y0056533D01*
X0234107Y0055966D02*
X0233540Y0056533D01*
X0232405Y0056533D01*
X0231838Y0055966D01*
X0231838Y0053697D01*
X0232405Y0053130D01*
X0233540Y0053130D01*
X0234107Y0053697D01*
X0234107Y0055966D01*
X0230424Y0055966D02*
X0230424Y0054832D01*
X0229857Y0054265D01*
X0228155Y0054265D01*
X0229289Y0054265D02*
X0230424Y0053130D01*
X0228155Y0053130D02*
X0228155Y0056533D01*
X0229857Y0056533D01*
X0230424Y0055966D01*
X0226741Y0055966D02*
X0226741Y0054832D01*
X0226173Y0054265D01*
X0224472Y0054265D01*
X0224472Y0053130D02*
X0224472Y0056533D01*
X0226173Y0056533D01*
X0226741Y0055966D01*
X0230471Y0057791D02*
X0232471Y0057791D01*
X0230471Y0057791D02*
X0230471Y0059791D01*
X0237471Y0057791D02*
X0239471Y0057791D01*
X0239471Y0059791D01*
X0246544Y0064116D02*
X0246544Y0066316D01*
X0249744Y0066316D01*
X0239471Y0066791D02*
X0239471Y0064791D01*
X0239471Y0066791D02*
X0237471Y0066791D01*
X0232471Y0066791D02*
X0230471Y0066791D01*
X0230471Y0064791D01*
X0144196Y0050256D02*
X0144196Y0048256D01*
X0144196Y0050256D02*
X0142196Y0050256D01*
X0137196Y0050256D02*
X0135196Y0050256D01*
X0135196Y0048256D01*
X0134133Y0049193D02*
X0131864Y0049193D01*
X0132998Y0049193D02*
X0132998Y0052596D01*
X0131864Y0051462D01*
X0130450Y0052596D02*
X0128181Y0052596D01*
X0128181Y0049193D01*
X0130450Y0049193D01*
X0126766Y0049760D02*
X0126199Y0049193D01*
X0124498Y0049193D01*
X0124498Y0052596D01*
X0126199Y0052596D01*
X0126766Y0052029D01*
X0126766Y0051462D01*
X0126199Y0050895D01*
X0124498Y0050895D01*
X0126199Y0050895D02*
X0126766Y0050328D01*
X0126766Y0049760D01*
X0128181Y0050895D02*
X0129315Y0050895D01*
X0123083Y0049760D02*
X0123083Y0052029D01*
X0122516Y0052596D01*
X0121382Y0052596D01*
X0120815Y0052029D01*
X0120815Y0049760D01*
X0121382Y0049193D01*
X0122516Y0049193D01*
X0123083Y0049760D01*
X0119400Y0049193D02*
X0118266Y0050328D01*
X0118833Y0050328D02*
X0117132Y0050328D01*
X0117132Y0049193D02*
X0117132Y0052596D01*
X0118833Y0052596D01*
X0119400Y0052029D01*
X0119400Y0050895D01*
X0118833Y0050328D01*
X0115717Y0050895D02*
X0115150Y0050328D01*
X0113448Y0050328D01*
X0113448Y0049193D02*
X0113448Y0052596D01*
X0115150Y0052596D01*
X0115717Y0052029D01*
X0115717Y0050895D01*
X0118857Y0054354D02*
X0140357Y0054354D01*
X0140357Y0054854D01*
X0140357Y0061854D01*
X0140357Y0062354D01*
X0118857Y0062354D01*
X0118797Y0062352D01*
X0118736Y0062347D01*
X0118677Y0062338D01*
X0118618Y0062325D01*
X0118559Y0062309D01*
X0118502Y0062289D01*
X0118447Y0062266D01*
X0118392Y0062239D01*
X0118340Y0062210D01*
X0118289Y0062177D01*
X0118240Y0062141D01*
X0118194Y0062103D01*
X0118150Y0062061D01*
X0118108Y0062017D01*
X0118070Y0061971D01*
X0118034Y0061922D01*
X0118001Y0061871D01*
X0117972Y0061819D01*
X0117945Y0061764D01*
X0117922Y0061709D01*
X0117902Y0061652D01*
X0117886Y0061593D01*
X0117873Y0061534D01*
X0117864Y0061475D01*
X0117859Y0061414D01*
X0117857Y0061354D01*
X0117857Y0055354D01*
X0117859Y0055294D01*
X0117864Y0055233D01*
X0117873Y0055174D01*
X0117886Y0055115D01*
X0117902Y0055056D01*
X0117922Y0054999D01*
X0117945Y0054944D01*
X0117972Y0054889D01*
X0118001Y0054837D01*
X0118034Y0054786D01*
X0118070Y0054737D01*
X0118108Y0054691D01*
X0118150Y0054647D01*
X0118194Y0054605D01*
X0118240Y0054567D01*
X0118289Y0054531D01*
X0118340Y0054498D01*
X0118392Y0054469D01*
X0118447Y0054442D01*
X0118502Y0054419D01*
X0118559Y0054399D01*
X0118618Y0054383D01*
X0118677Y0054370D01*
X0118736Y0054361D01*
X0118797Y0054356D01*
X0118857Y0054354D01*
X0127357Y0056354D02*
X0127357Y0058354D01*
X0127357Y0060354D01*
X0128857Y0060354D02*
X0128857Y0056354D01*
X0130357Y0056354D01*
X0130357Y0060354D01*
X0128857Y0060354D01*
X0127357Y0058354D02*
X0125357Y0058354D01*
X0131857Y0058354D02*
X0131857Y0056354D01*
X0131857Y0058354D02*
X0131857Y0060354D01*
X0131857Y0058354D02*
X0133857Y0058354D01*
X0140357Y0061854D02*
X0141857Y0061854D01*
X0141857Y0054854D01*
X0140357Y0054854D01*
X0122148Y0045531D02*
X0120148Y0045531D01*
X0122148Y0045531D02*
X0122148Y0043531D01*
X0115148Y0045531D02*
X0113148Y0045531D01*
X0113148Y0043531D01*
X0111848Y0044130D02*
X0111848Y0041861D01*
X0109580Y0044130D01*
X0109013Y0044130D01*
X0108446Y0043562D01*
X0108446Y0042428D01*
X0109013Y0041861D01*
X0108446Y0040446D02*
X0108446Y0038178D01*
X0111848Y0038178D01*
X0111848Y0040446D01*
X0110147Y0039312D02*
X0110147Y0038178D01*
X0110714Y0036763D02*
X0111281Y0036763D01*
X0111848Y0036196D01*
X0111848Y0034495D01*
X0108446Y0034495D01*
X0108446Y0036196D01*
X0109013Y0036763D01*
X0109580Y0036763D01*
X0110147Y0036196D01*
X0110147Y0034495D01*
X0110147Y0036196D02*
X0110714Y0036763D01*
X0113148Y0036531D02*
X0115148Y0036531D01*
X0113148Y0036531D02*
X0113148Y0038531D01*
X0120148Y0036531D02*
X0122148Y0036531D01*
X0122148Y0038531D01*
X0111848Y0032513D02*
X0111281Y0033080D01*
X0109013Y0033080D01*
X0108446Y0032513D01*
X0108446Y0031379D01*
X0109013Y0030812D01*
X0111281Y0030812D01*
X0111848Y0031379D01*
X0111848Y0032513D01*
X0111848Y0029397D02*
X0110714Y0028263D01*
X0110714Y0028830D02*
X0110714Y0027128D01*
X0111848Y0027128D02*
X0108446Y0027128D01*
X0108446Y0028830D01*
X0109013Y0029397D01*
X0110147Y0029397D01*
X0110714Y0028830D01*
X0110147Y0025714D02*
X0110714Y0025147D01*
X0110714Y0023445D01*
X0111848Y0023445D02*
X0108446Y0023445D01*
X0108446Y0025147D01*
X0109013Y0025714D01*
X0110147Y0025714D01*
X0120710Y0029407D02*
X0120710Y0032607D01*
X0122910Y0032607D01*
X0129710Y0032607D02*
X0131910Y0032607D01*
X0131910Y0029407D01*
X0134096Y0031770D02*
X0134096Y0034970D01*
X0136296Y0034970D01*
X0143096Y0034970D02*
X0145296Y0034970D01*
X0145296Y0031770D01*
X0144196Y0041256D02*
X0142196Y0041256D01*
X0144196Y0041256D02*
X0144196Y0043256D01*
X0137196Y0041256D02*
X0135196Y0041256D01*
X0135196Y0043256D01*
X0109675Y0050105D02*
X0106272Y0050105D01*
X0109675Y0052373D01*
X0106272Y0052373D01*
X0106272Y0053788D02*
X0106272Y0056056D01*
X0106272Y0054922D02*
X0109675Y0054922D01*
X0109108Y0057471D02*
X0106839Y0057471D01*
X0106272Y0058038D01*
X0106272Y0059172D01*
X0106839Y0059739D01*
X0109108Y0059739D02*
X0109675Y0059172D01*
X0109675Y0058038D01*
X0109108Y0057471D01*
X0099314Y0057791D02*
X0097314Y0057791D01*
X0099314Y0057791D02*
X0099314Y0059791D01*
X0092314Y0057791D02*
X0090314Y0057791D01*
X0090314Y0059791D01*
X0090140Y0055746D02*
X0089573Y0055179D01*
X0089573Y0052910D01*
X0090140Y0052343D01*
X0091274Y0052343D01*
X0091841Y0052910D01*
X0091841Y0054044D01*
X0090707Y0054044D01*
X0091841Y0055179D02*
X0091274Y0055746D01*
X0090140Y0055746D01*
X0088158Y0055179D02*
X0088158Y0054044D01*
X0087591Y0053477D01*
X0085889Y0053477D01*
X0085889Y0052343D02*
X0085889Y0055746D01*
X0087591Y0055746D01*
X0088158Y0055179D01*
X0093256Y0055746D02*
X0095524Y0052343D01*
X0095524Y0055746D01*
X0096939Y0055746D02*
X0098640Y0055746D01*
X0099207Y0055179D01*
X0099207Y0052910D01*
X0098640Y0052343D01*
X0096939Y0052343D01*
X0096939Y0055746D01*
X0093256Y0055746D02*
X0093256Y0052343D01*
X0090314Y0064791D02*
X0090314Y0066791D01*
X0092314Y0066791D01*
X0097314Y0066791D02*
X0099314Y0066791D01*
X0099314Y0064791D01*
X0027022Y0046633D02*
X0020873Y0046633D01*
X0013487Y0056216D02*
X0011487Y0056216D01*
X0013487Y0056216D02*
X0013487Y0058216D01*
X0006487Y0056216D02*
X0004487Y0056216D01*
X0004487Y0058216D01*
X0004487Y0063216D02*
X0004487Y0065216D01*
X0006487Y0065216D01*
X0011487Y0065216D02*
X0013487Y0065216D01*
X0013487Y0063216D01*
X0020873Y0035433D02*
X0027022Y0035433D01*
X0173480Y0025982D02*
X0173480Y0025415D01*
X0174047Y0024848D01*
X0175181Y0024848D01*
X0175749Y0024280D01*
X0175749Y0023713D01*
X0175181Y0023146D01*
X0174047Y0023146D01*
X0173480Y0023713D01*
X0173480Y0025982D02*
X0174047Y0026549D01*
X0175181Y0026549D01*
X0175749Y0025982D01*
X0177163Y0026549D02*
X0179432Y0026549D01*
X0178297Y0026549D02*
X0178297Y0023146D01*
X0369841Y0039681D02*
X0371841Y0039681D01*
X0369841Y0039681D02*
X0369841Y0041681D01*
X0376841Y0039681D02*
X0378841Y0039681D01*
X0378841Y0041681D01*
X0378841Y0046681D02*
X0378841Y0048681D01*
X0376841Y0048681D01*
X0377855Y0049981D02*
X0377855Y0053384D01*
X0378989Y0053384D02*
X0376720Y0053384D01*
X0375306Y0053384D02*
X0375306Y0049981D01*
X0373037Y0053384D01*
X0373037Y0049981D01*
X0371623Y0049981D02*
X0371623Y0052249D01*
X0370488Y0053384D01*
X0369354Y0052249D01*
X0369354Y0049981D01*
X0369841Y0048681D02*
X0369841Y0046681D01*
X0369841Y0048681D02*
X0371841Y0048681D01*
X0371623Y0051682D02*
X0369354Y0051682D01*
D16*
X0021979Y0045559D03*
D17*
X0296585Y0042409D03*
D18*
X0164105Y0028925D03*
D19*
X0145357Y0056354D02*
X0143357Y0056354D01*
X0143857Y0060354D02*
X0145357Y0060354D01*
D20*
X0143207Y0060354D03*
X0143207Y0056354D03*
M02*
