G75*
%MOIN*%
%OFA0B0*%
%FSLAX25Y25*%
%IPPOS*%
%LPD*%
%AMOC8*
5,1,8,0,0,1.08239X$1,22.5*
%
%ADD10C,0.00000*%
%ADD11C,0.00600*%
D10*
X0007412Y0020559D02*
X0374341Y0020559D01*
X0374341Y0020558D02*
X0374488Y0020560D01*
X0374634Y0020566D01*
X0374781Y0020576D01*
X0374927Y0020589D01*
X0375073Y0020607D01*
X0375218Y0020628D01*
X0375362Y0020653D01*
X0375506Y0020683D01*
X0375649Y0020715D01*
X0375791Y0020752D01*
X0375932Y0020793D01*
X0376072Y0020837D01*
X0376211Y0020885D01*
X0376348Y0020936D01*
X0376484Y0020992D01*
X0376619Y0021051D01*
X0376751Y0021113D01*
X0376883Y0021179D01*
X0377012Y0021248D01*
X0377139Y0021321D01*
X0377265Y0021397D01*
X0377388Y0021477D01*
X0377509Y0021560D01*
X0377628Y0021645D01*
X0377745Y0021735D01*
X0377859Y0021827D01*
X0377971Y0021922D01*
X0378080Y0022020D01*
X0378186Y0022121D01*
X0378290Y0022225D01*
X0378391Y0022331D01*
X0378489Y0022440D01*
X0378584Y0022552D01*
X0378676Y0022666D01*
X0378766Y0022783D01*
X0378851Y0022902D01*
X0378934Y0023023D01*
X0379014Y0023146D01*
X0379090Y0023272D01*
X0379163Y0023399D01*
X0379232Y0023528D01*
X0379298Y0023660D01*
X0379360Y0023792D01*
X0379419Y0023927D01*
X0379475Y0024063D01*
X0379526Y0024200D01*
X0379574Y0024339D01*
X0379618Y0024479D01*
X0379659Y0024620D01*
X0379696Y0024762D01*
X0379728Y0024905D01*
X0379758Y0025049D01*
X0379783Y0025193D01*
X0379804Y0025338D01*
X0379822Y0025484D01*
X0379835Y0025630D01*
X0379845Y0025777D01*
X0379851Y0025923D01*
X0379853Y0026070D01*
X0379853Y0062291D01*
X0379851Y0062438D01*
X0379845Y0062584D01*
X0379835Y0062731D01*
X0379822Y0062877D01*
X0379804Y0063023D01*
X0379783Y0063168D01*
X0379758Y0063312D01*
X0379728Y0063456D01*
X0379696Y0063599D01*
X0379659Y0063741D01*
X0379618Y0063882D01*
X0379574Y0064022D01*
X0379526Y0064161D01*
X0379475Y0064298D01*
X0379419Y0064434D01*
X0379360Y0064569D01*
X0379298Y0064701D01*
X0379232Y0064833D01*
X0379163Y0064962D01*
X0379090Y0065089D01*
X0379014Y0065215D01*
X0378934Y0065338D01*
X0378851Y0065459D01*
X0378766Y0065578D01*
X0378676Y0065695D01*
X0378584Y0065809D01*
X0378489Y0065921D01*
X0378391Y0066030D01*
X0378290Y0066136D01*
X0378186Y0066240D01*
X0378080Y0066341D01*
X0377971Y0066439D01*
X0377859Y0066534D01*
X0377745Y0066626D01*
X0377628Y0066716D01*
X0377509Y0066801D01*
X0377388Y0066884D01*
X0377265Y0066964D01*
X0377139Y0067040D01*
X0377012Y0067113D01*
X0376883Y0067182D01*
X0376751Y0067248D01*
X0376619Y0067310D01*
X0376484Y0067369D01*
X0376348Y0067425D01*
X0376211Y0067476D01*
X0376072Y0067524D01*
X0375932Y0067568D01*
X0375791Y0067609D01*
X0375649Y0067646D01*
X0375506Y0067678D01*
X0375362Y0067708D01*
X0375218Y0067733D01*
X0375073Y0067754D01*
X0374927Y0067772D01*
X0374781Y0067785D01*
X0374634Y0067795D01*
X0374488Y0067801D01*
X0374341Y0067803D01*
X0007412Y0067803D01*
X0007265Y0067801D01*
X0007119Y0067795D01*
X0006972Y0067785D01*
X0006826Y0067772D01*
X0006680Y0067754D01*
X0006535Y0067733D01*
X0006391Y0067708D01*
X0006247Y0067678D01*
X0006104Y0067646D01*
X0005962Y0067609D01*
X0005821Y0067568D01*
X0005681Y0067524D01*
X0005542Y0067476D01*
X0005405Y0067425D01*
X0005269Y0067369D01*
X0005134Y0067310D01*
X0005002Y0067248D01*
X0004870Y0067182D01*
X0004741Y0067113D01*
X0004614Y0067040D01*
X0004488Y0066964D01*
X0004365Y0066884D01*
X0004244Y0066801D01*
X0004125Y0066716D01*
X0004008Y0066626D01*
X0003894Y0066534D01*
X0003782Y0066439D01*
X0003673Y0066341D01*
X0003567Y0066240D01*
X0003463Y0066136D01*
X0003362Y0066030D01*
X0003264Y0065921D01*
X0003169Y0065809D01*
X0003077Y0065695D01*
X0002987Y0065578D01*
X0002902Y0065459D01*
X0002819Y0065338D01*
X0002739Y0065215D01*
X0002663Y0065089D01*
X0002590Y0064962D01*
X0002521Y0064833D01*
X0002455Y0064701D01*
X0002393Y0064569D01*
X0002334Y0064434D01*
X0002278Y0064298D01*
X0002227Y0064161D01*
X0002179Y0064022D01*
X0002135Y0063882D01*
X0002094Y0063741D01*
X0002057Y0063599D01*
X0002025Y0063456D01*
X0001995Y0063312D01*
X0001970Y0063168D01*
X0001949Y0063023D01*
X0001931Y0062877D01*
X0001918Y0062731D01*
X0001908Y0062584D01*
X0001902Y0062438D01*
X0001900Y0062291D01*
X0001900Y0026070D01*
X0001902Y0025923D01*
X0001908Y0025777D01*
X0001918Y0025630D01*
X0001931Y0025484D01*
X0001949Y0025338D01*
X0001970Y0025193D01*
X0001995Y0025049D01*
X0002025Y0024905D01*
X0002057Y0024762D01*
X0002094Y0024620D01*
X0002135Y0024479D01*
X0002179Y0024339D01*
X0002227Y0024200D01*
X0002278Y0024063D01*
X0002334Y0023927D01*
X0002393Y0023792D01*
X0002455Y0023660D01*
X0002521Y0023528D01*
X0002590Y0023399D01*
X0002663Y0023272D01*
X0002739Y0023146D01*
X0002819Y0023023D01*
X0002902Y0022902D01*
X0002987Y0022783D01*
X0003077Y0022666D01*
X0003169Y0022552D01*
X0003264Y0022440D01*
X0003362Y0022331D01*
X0003463Y0022225D01*
X0003567Y0022121D01*
X0003673Y0022020D01*
X0003782Y0021922D01*
X0003894Y0021827D01*
X0004008Y0021735D01*
X0004125Y0021645D01*
X0004244Y0021560D01*
X0004365Y0021477D01*
X0004488Y0021397D01*
X0004614Y0021321D01*
X0004741Y0021248D01*
X0004870Y0021179D01*
X0005002Y0021113D01*
X0005134Y0021051D01*
X0005269Y0020992D01*
X0005405Y0020936D01*
X0005542Y0020885D01*
X0005681Y0020837D01*
X0005821Y0020793D01*
X0005962Y0020752D01*
X0006104Y0020715D01*
X0006247Y0020683D01*
X0006391Y0020653D01*
X0006535Y0020628D01*
X0006680Y0020607D01*
X0006826Y0020589D01*
X0006972Y0020576D01*
X0007119Y0020566D01*
X0007265Y0020560D01*
X0007412Y0020558D01*
D11*
X0019662Y0031158D02*
X0021931Y0031158D01*
X0020797Y0031158D02*
X0020797Y0034561D01*
X0021931Y0033426D01*
X0023345Y0032859D02*
X0023913Y0032292D01*
X0025614Y0032292D01*
X0025614Y0031158D02*
X0025614Y0034561D01*
X0023913Y0034561D01*
X0023345Y0033994D01*
X0023345Y0032859D01*
X0028163Y0031158D02*
X0028163Y0034561D01*
X0029297Y0034561D02*
X0027029Y0034561D01*
X0040922Y0026687D02*
X0040922Y0026120D01*
X0043191Y0023851D01*
X0043191Y0023284D01*
X0044605Y0024985D02*
X0045172Y0024418D01*
X0046874Y0024418D01*
X0046874Y0023284D02*
X0046874Y0026687D01*
X0045172Y0026687D01*
X0044605Y0026120D01*
X0044605Y0024985D01*
X0043191Y0026687D02*
X0040922Y0026687D01*
X0048288Y0026687D02*
X0050557Y0026687D01*
X0049423Y0026687D02*
X0049423Y0023284D01*
X0052200Y0035095D02*
X0054468Y0035095D01*
X0053334Y0035095D02*
X0053334Y0038498D01*
X0054468Y0037363D01*
X0057017Y0038498D02*
X0057017Y0035095D01*
X0058151Y0035095D02*
X0055883Y0035095D01*
X0059566Y0036796D02*
X0060133Y0036229D01*
X0061835Y0036229D01*
X0061835Y0035095D02*
X0061835Y0038498D01*
X0060133Y0038498D01*
X0059566Y0037931D01*
X0059566Y0036796D01*
X0058151Y0037363D02*
X0057017Y0038498D01*
X0063249Y0038498D02*
X0065518Y0038498D01*
X0064383Y0038498D02*
X0064383Y0035095D01*
X0064011Y0041394D02*
X0066279Y0041394D01*
X0064011Y0043663D01*
X0064011Y0044230D01*
X0064578Y0044797D01*
X0065712Y0044797D01*
X0066279Y0044230D01*
X0068828Y0044797D02*
X0068828Y0041394D01*
X0069962Y0041394D02*
X0067694Y0041394D01*
X0069962Y0043663D02*
X0068828Y0044797D01*
X0071377Y0044230D02*
X0071377Y0043096D01*
X0071944Y0042528D01*
X0073646Y0042528D01*
X0073646Y0041394D02*
X0073646Y0044797D01*
X0071944Y0044797D01*
X0071377Y0044230D01*
X0075060Y0044797D02*
X0077329Y0044797D01*
X0076194Y0044797D02*
X0076194Y0041394D01*
X0092775Y0040744D02*
X0095043Y0044147D01*
X0096458Y0043580D02*
X0096458Y0042446D01*
X0097025Y0041879D01*
X0098726Y0041879D01*
X0097592Y0041879D02*
X0096458Y0040744D01*
X0095043Y0040744D02*
X0092775Y0044147D01*
X0096458Y0043580D02*
X0097025Y0044147D01*
X0098726Y0044147D01*
X0098726Y0040744D01*
X0098726Y0028399D02*
X0096458Y0028399D01*
X0097592Y0028399D02*
X0097592Y0024996D01*
X0095043Y0024996D02*
X0092775Y0028399D01*
X0095043Y0028399D02*
X0092775Y0024996D01*
X0141710Y0036449D02*
X0142277Y0035882D01*
X0143411Y0035882D01*
X0143978Y0036449D01*
X0142844Y0037584D02*
X0142277Y0037584D01*
X0141710Y0037017D01*
X0141710Y0036449D01*
X0142277Y0037584D02*
X0141710Y0038151D01*
X0141710Y0038718D01*
X0142277Y0039285D01*
X0143411Y0039285D01*
X0143978Y0038718D01*
X0145393Y0038718D02*
X0145393Y0037584D01*
X0145960Y0037017D01*
X0147661Y0037017D01*
X0147661Y0035882D02*
X0147661Y0039285D01*
X0145960Y0039285D01*
X0145393Y0038718D01*
X0149076Y0039285D02*
X0151344Y0039285D01*
X0150210Y0039285D02*
X0150210Y0035882D01*
X0164324Y0053993D02*
X0164324Y0057395D01*
X0166025Y0055694D01*
X0163757Y0055694D01*
X0167440Y0055694D02*
X0167440Y0056828D01*
X0168007Y0057395D01*
X0169709Y0057395D01*
X0169709Y0053993D01*
X0169709Y0055127D02*
X0168007Y0055127D01*
X0167440Y0055694D01*
X0171123Y0057395D02*
X0173392Y0057395D01*
X0172257Y0057395D02*
X0172257Y0053993D01*
X0206277Y0055347D02*
X0206277Y0055914D01*
X0206844Y0056481D01*
X0208545Y0056481D01*
X0208545Y0055347D01*
X0207978Y0054780D01*
X0206844Y0054780D01*
X0206277Y0055347D01*
X0208545Y0056481D02*
X0207411Y0057616D01*
X0206277Y0058183D01*
X0209960Y0057616D02*
X0209960Y0056481D01*
X0210527Y0055914D01*
X0212228Y0055914D01*
X0212228Y0054780D02*
X0212228Y0058183D01*
X0210527Y0058183D01*
X0209960Y0057616D01*
X0213643Y0058183D02*
X0215911Y0058183D01*
X0214777Y0058183D02*
X0214777Y0054780D01*
X0218937Y0052325D02*
X0219504Y0052892D01*
X0221772Y0052892D01*
X0222340Y0052325D01*
X0222340Y0051191D01*
X0221772Y0050623D01*
X0219504Y0050623D01*
X0218937Y0051191D01*
X0218937Y0052325D01*
X0218937Y0049302D02*
X0218937Y0048168D01*
X0218937Y0048735D02*
X0222340Y0048735D01*
X0222340Y0048168D02*
X0222340Y0049302D01*
X0221772Y0046753D02*
X0222340Y0046186D01*
X0222340Y0044485D01*
X0218937Y0044485D01*
X0218937Y0046186D01*
X0219504Y0046753D01*
X0221772Y0046753D01*
X0222340Y0043070D02*
X0218937Y0043070D01*
X0220071Y0041936D01*
X0218937Y0040802D01*
X0222340Y0040802D01*
X0221772Y0039387D02*
X0222340Y0038820D01*
X0222340Y0037686D01*
X0221772Y0037119D01*
X0221205Y0037119D01*
X0220638Y0037686D01*
X0220638Y0038820D01*
X0220071Y0039387D01*
X0219504Y0039387D01*
X0218937Y0038820D01*
X0218937Y0037686D01*
X0219504Y0037119D01*
X0229960Y0037686D02*
X0230527Y0037119D01*
X0229960Y0037686D02*
X0229960Y0038820D01*
X0230527Y0039387D01*
X0231095Y0039387D01*
X0231662Y0038820D01*
X0231662Y0037686D01*
X0232229Y0037119D01*
X0232796Y0037119D01*
X0233363Y0037686D01*
X0233363Y0038820D01*
X0232796Y0039387D01*
X0233363Y0040802D02*
X0229960Y0040802D01*
X0231095Y0041936D01*
X0229960Y0043070D01*
X0233363Y0043070D01*
X0232796Y0044485D02*
X0230527Y0044485D01*
X0229960Y0045052D01*
X0229960Y0046186D01*
X0230527Y0046753D01*
X0229960Y0048168D02*
X0229960Y0050437D01*
X0229960Y0051851D02*
X0233363Y0051851D01*
X0231662Y0052418D02*
X0229960Y0054120D01*
X0231095Y0051851D02*
X0233363Y0054120D01*
X0233363Y0048168D02*
X0229960Y0048168D01*
X0232796Y0046753D02*
X0233363Y0046186D01*
X0233363Y0045052D01*
X0232796Y0044485D01*
X0245900Y0031631D02*
X0245900Y0031064D01*
X0246468Y0030497D01*
X0245900Y0029930D01*
X0245900Y0029363D01*
X0246468Y0028796D01*
X0247602Y0028796D01*
X0248169Y0029363D01*
X0249584Y0028796D02*
X0251852Y0028796D01*
X0250718Y0028796D02*
X0250718Y0032199D01*
X0251852Y0031064D01*
X0253267Y0030497D02*
X0253834Y0029930D01*
X0255535Y0029930D01*
X0255535Y0028796D02*
X0255535Y0032199D01*
X0253834Y0032199D01*
X0253267Y0031631D01*
X0253267Y0030497D01*
X0256950Y0032199D02*
X0259219Y0032199D01*
X0258084Y0032199D02*
X0258084Y0028796D01*
X0266373Y0027694D02*
X0266373Y0025426D01*
X0266940Y0024859D01*
X0268074Y0024859D01*
X0268642Y0025426D01*
X0266373Y0027694D01*
X0266940Y0028262D01*
X0268074Y0028262D01*
X0268642Y0027694D01*
X0268642Y0025426D01*
X0270056Y0024859D02*
X0272325Y0024859D01*
X0271190Y0024859D02*
X0271190Y0028262D01*
X0272325Y0027127D01*
X0273739Y0026560D02*
X0274306Y0025993D01*
X0276008Y0025993D01*
X0276008Y0024859D02*
X0276008Y0028262D01*
X0274306Y0028262D01*
X0273739Y0027694D01*
X0273739Y0026560D01*
X0277422Y0028262D02*
X0279691Y0028262D01*
X0278557Y0028262D02*
X0278557Y0024859D01*
X0289741Y0033300D02*
X0290308Y0032733D01*
X0291443Y0032733D01*
X0292010Y0033300D01*
X0291443Y0034434D02*
X0289741Y0034434D01*
X0289741Y0033300D02*
X0289741Y0035568D01*
X0290308Y0036136D01*
X0291443Y0036136D01*
X0292010Y0035568D01*
X0292010Y0035001D01*
X0291443Y0034434D01*
X0293424Y0034434D02*
X0293991Y0033867D01*
X0295693Y0033867D01*
X0295693Y0032733D02*
X0295693Y0036136D01*
X0293991Y0036136D01*
X0293424Y0035568D01*
X0293424Y0034434D01*
X0297107Y0036136D02*
X0299376Y0036136D01*
X0298242Y0036136D02*
X0298242Y0032733D01*
X0291637Y0039409D02*
X0291070Y0039409D01*
X0290503Y0039977D01*
X0290503Y0042812D01*
X0292204Y0042812D01*
X0292771Y0042245D01*
X0292771Y0041111D01*
X0292204Y0040544D01*
X0290503Y0040544D01*
X0294139Y0042812D02*
X0294706Y0042812D01*
X0295841Y0041678D01*
X0295841Y0040544D02*
X0295841Y0042812D01*
X0297255Y0042245D02*
X0297822Y0042812D01*
X0298957Y0042812D01*
X0299524Y0042245D01*
X0299524Y0041111D01*
X0298957Y0040544D01*
X0297822Y0040544D01*
X0297255Y0041111D01*
X0297255Y0042245D01*
X0300798Y0041111D02*
X0300798Y0040544D01*
X0301365Y0040544D01*
X0301365Y0041111D01*
X0300798Y0041111D01*
X0302780Y0041111D02*
X0302780Y0042245D01*
X0303347Y0042812D01*
X0304481Y0042812D01*
X0305048Y0042245D01*
X0305048Y0041111D01*
X0304481Y0040544D01*
X0303347Y0040544D01*
X0302780Y0041111D01*
X0306416Y0040544D02*
X0308118Y0041678D01*
X0306416Y0042812D01*
X0308118Y0043947D02*
X0308118Y0040544D01*
X0309439Y0040544D02*
X0310006Y0041111D01*
X0310006Y0043379D01*
X0310573Y0042812D02*
X0309439Y0042812D01*
X0311941Y0042812D02*
X0312508Y0042812D01*
X0313642Y0041678D01*
X0313642Y0040544D02*
X0313642Y0042812D01*
X0315010Y0042812D02*
X0316712Y0041678D01*
X0315010Y0040544D01*
X0316712Y0040544D02*
X0316712Y0043947D01*
X0318126Y0043379D02*
X0318126Y0042245D01*
X0318693Y0041678D01*
X0318693Y0042812D01*
X0319828Y0042812D01*
X0319828Y0041678D01*
X0318693Y0041678D01*
X0318126Y0041111D02*
X0318693Y0040544D01*
X0319828Y0040544D01*
X0320395Y0041111D01*
X0320395Y0043379D01*
X0319828Y0043947D01*
X0318693Y0043947D01*
X0318126Y0043379D01*
X0321809Y0042812D02*
X0324078Y0040544D01*
X0325492Y0040544D02*
X0327194Y0040544D01*
X0327761Y0041111D01*
X0327761Y0042812D01*
X0329176Y0042812D02*
X0330877Y0042812D01*
X0331444Y0042245D01*
X0331444Y0041111D01*
X0330877Y0040544D01*
X0329176Y0040544D01*
X0329176Y0039409D02*
X0329176Y0042812D01*
X0325492Y0042812D02*
X0325492Y0039977D01*
X0326060Y0039409D01*
X0326627Y0039409D01*
X0324078Y0042812D02*
X0321809Y0040544D01*
X0336542Y0040544D02*
X0336542Y0042812D01*
X0337676Y0043947D01*
X0338811Y0042812D01*
X0338811Y0040544D01*
X0340225Y0041111D02*
X0340792Y0040544D01*
X0341927Y0040544D01*
X0342494Y0041111D01*
X0341927Y0042245D02*
X0340792Y0042245D01*
X0340225Y0041678D01*
X0340225Y0041111D01*
X0338811Y0042245D02*
X0336542Y0042245D01*
X0340225Y0043379D02*
X0340792Y0043947D01*
X0341927Y0043947D01*
X0342494Y0043379D01*
X0342494Y0042812D01*
X0341927Y0042245D01*
X0343908Y0042245D02*
X0346177Y0042245D01*
X0347591Y0043379D02*
X0347591Y0043947D01*
X0347591Y0043379D02*
X0348726Y0042245D01*
X0348726Y0040544D01*
X0348726Y0042245D02*
X0349860Y0043379D01*
X0349860Y0043947D01*
X0351274Y0043379D02*
X0351274Y0042812D01*
X0351842Y0042245D01*
X0353543Y0042245D01*
X0354958Y0042245D02*
X0357226Y0042245D01*
X0358641Y0041111D02*
X0359208Y0040544D01*
X0360342Y0040544D01*
X0360909Y0041111D01*
X0360909Y0043379D01*
X0360342Y0043947D01*
X0359208Y0043947D01*
X0358641Y0043379D01*
X0357226Y0044921D02*
X0357226Y0048324D01*
X0355525Y0048324D01*
X0354958Y0047757D01*
X0354958Y0046623D01*
X0355525Y0046056D01*
X0357226Y0046056D01*
X0358641Y0046056D02*
X0360342Y0046056D01*
X0360909Y0046623D01*
X0360342Y0047190D01*
X0358641Y0047190D01*
X0358641Y0047757D02*
X0358641Y0046056D01*
X0358641Y0047757D02*
X0359208Y0048324D01*
X0360342Y0048324D01*
X0362324Y0048324D02*
X0364025Y0048324D01*
X0364593Y0047757D01*
X0364593Y0046623D01*
X0364025Y0046056D01*
X0362324Y0046056D01*
X0362891Y0043947D02*
X0364025Y0043947D01*
X0364593Y0043379D01*
X0364593Y0041111D01*
X0364025Y0040544D01*
X0362891Y0040544D01*
X0362324Y0041111D01*
X0362324Y0043379D02*
X0362891Y0043947D01*
X0353543Y0043947D02*
X0353543Y0040544D01*
X0351842Y0040544D01*
X0351274Y0041111D01*
X0351274Y0041678D01*
X0351842Y0042245D01*
X0351274Y0043379D02*
X0351842Y0043947D01*
X0353543Y0043947D01*
X0353543Y0046056D02*
X0351842Y0046056D01*
X0351274Y0046623D01*
X0351842Y0047190D01*
X0352976Y0047190D01*
X0353543Y0047757D01*
X0352976Y0048324D01*
X0351274Y0048324D01*
X0349860Y0047757D02*
X0349293Y0048324D01*
X0348158Y0048324D01*
X0347591Y0047757D01*
X0347591Y0047190D01*
X0349860Y0047190D01*
X0349860Y0046623D02*
X0349860Y0047757D01*
X0349860Y0046623D02*
X0349293Y0046056D01*
X0348158Y0046056D01*
X0346177Y0046056D02*
X0346177Y0048324D01*
X0344475Y0048324D01*
X0343908Y0047757D01*
X0343908Y0046056D01*
X0342494Y0046056D02*
X0340792Y0046056D01*
X0340225Y0046623D01*
X0340792Y0047190D01*
X0341927Y0047190D01*
X0342494Y0047757D01*
X0341927Y0048324D01*
X0340225Y0048324D01*
X0338811Y0047757D02*
X0338243Y0048324D01*
X0337109Y0048324D01*
X0336542Y0047757D01*
X0336542Y0047190D01*
X0338811Y0047190D01*
X0338811Y0046623D02*
X0338811Y0047757D01*
X0338811Y0046623D02*
X0338243Y0046056D01*
X0337109Y0046056D01*
X0335127Y0047757D02*
X0332859Y0047757D01*
X0331444Y0047757D02*
X0330877Y0048324D01*
X0329176Y0048324D01*
X0329743Y0047190D02*
X0330877Y0047190D01*
X0331444Y0047757D01*
X0331444Y0046056D02*
X0329743Y0046056D01*
X0329176Y0046623D01*
X0329743Y0047190D01*
X0327761Y0047757D02*
X0327761Y0046623D01*
X0327194Y0046056D01*
X0326060Y0046056D01*
X0325492Y0046623D01*
X0325492Y0047757D01*
X0326060Y0048324D01*
X0327194Y0048324D01*
X0327761Y0047757D01*
X0324078Y0048324D02*
X0323511Y0048324D01*
X0323511Y0046056D01*
X0324078Y0046056D02*
X0322944Y0046056D01*
X0321623Y0046056D02*
X0320488Y0046056D01*
X0321055Y0046056D02*
X0321055Y0049458D01*
X0321623Y0049458D01*
X0323511Y0049458D02*
X0323511Y0050026D01*
X0319167Y0047757D02*
X0316898Y0047757D01*
X0315484Y0047757D02*
X0314917Y0048324D01*
X0313215Y0048324D01*
X0313782Y0047190D02*
X0314917Y0047190D01*
X0315484Y0047757D01*
X0315484Y0046056D02*
X0313782Y0046056D01*
X0313215Y0046623D01*
X0313782Y0047190D01*
X0311801Y0047190D02*
X0309532Y0047190D01*
X0309532Y0047757D01*
X0310099Y0048324D01*
X0311234Y0048324D01*
X0311801Y0047757D01*
X0311801Y0046623D01*
X0311234Y0046056D01*
X0310099Y0046056D01*
X0308118Y0046056D02*
X0308118Y0048324D01*
X0306416Y0048324D01*
X0305849Y0047757D01*
X0305849Y0046056D01*
X0304434Y0046056D02*
X0302733Y0046056D01*
X0302166Y0046623D01*
X0302733Y0047190D01*
X0303867Y0047190D01*
X0304434Y0047757D01*
X0303867Y0048324D01*
X0302166Y0048324D01*
X0300751Y0047757D02*
X0300751Y0046623D01*
X0300184Y0046056D01*
X0299050Y0046056D01*
X0298483Y0046623D01*
X0298483Y0047757D01*
X0299050Y0048324D01*
X0300184Y0048324D01*
X0300751Y0047757D01*
X0297068Y0048324D02*
X0297068Y0046056D01*
X0297068Y0047190D02*
X0295934Y0048324D01*
X0295367Y0048324D01*
X0293999Y0047757D02*
X0291730Y0047757D01*
X0290316Y0048324D02*
X0289181Y0049458D01*
X0289181Y0046056D01*
X0288047Y0046056D02*
X0290316Y0046056D01*
X0286633Y0046056D02*
X0286065Y0046056D01*
X0286065Y0046623D01*
X0286633Y0046623D01*
X0286633Y0046056D01*
X0284791Y0046623D02*
X0282522Y0048891D01*
X0282522Y0046623D01*
X0283090Y0046056D01*
X0284224Y0046056D01*
X0284791Y0046623D01*
X0284791Y0048891D01*
X0284224Y0049458D01*
X0283090Y0049458D01*
X0282522Y0048891D01*
X0279266Y0048891D02*
X0278699Y0049458D01*
X0277565Y0049458D01*
X0276998Y0048891D01*
X0279266Y0046623D01*
X0278699Y0046056D01*
X0277565Y0046056D01*
X0276998Y0046623D01*
X0276998Y0048891D01*
X0279266Y0048891D02*
X0279266Y0046623D01*
X0280541Y0046623D02*
X0280541Y0046056D01*
X0281108Y0046056D01*
X0281108Y0046623D01*
X0280541Y0046623D01*
X0287946Y0053993D02*
X0289080Y0053993D01*
X0289647Y0054560D01*
X0289647Y0055127D01*
X0289080Y0055694D01*
X0287946Y0055694D01*
X0287379Y0055127D01*
X0287379Y0054560D01*
X0287946Y0053993D01*
X0287946Y0055694D02*
X0287379Y0056261D01*
X0287379Y0056828D01*
X0287946Y0057395D01*
X0289080Y0057395D01*
X0289647Y0056828D01*
X0289647Y0056261D01*
X0289080Y0055694D01*
X0291062Y0055694D02*
X0291062Y0056828D01*
X0291629Y0057395D01*
X0293331Y0057395D01*
X0293331Y0053993D01*
X0293331Y0055127D02*
X0291629Y0055127D01*
X0291062Y0055694D01*
X0294745Y0057395D02*
X0297014Y0057395D01*
X0295879Y0057395D02*
X0295879Y0053993D01*
X0248169Y0031631D02*
X0247602Y0032199D01*
X0246468Y0032199D01*
X0245900Y0031631D01*
X0246468Y0030497D02*
X0247035Y0030497D01*
X0133234Y0065269D02*
X0130966Y0065269D01*
X0132100Y0065269D02*
X0132100Y0061867D01*
X0129551Y0061867D02*
X0129551Y0065269D01*
X0127850Y0065269D01*
X0127283Y0064702D01*
X0127283Y0063568D01*
X0127850Y0063001D01*
X0129551Y0063001D01*
X0125868Y0063568D02*
X0124734Y0064135D01*
X0124167Y0064135D01*
X0123599Y0063568D01*
X0123599Y0062434D01*
X0124167Y0061867D01*
X0125301Y0061867D01*
X0125868Y0062434D01*
X0125868Y0063568D02*
X0125868Y0065269D01*
X0123599Y0065269D01*
X0026148Y0062120D02*
X0023879Y0062120D01*
X0025013Y0062120D02*
X0025013Y0058717D01*
X0022464Y0058717D02*
X0022464Y0062120D01*
X0020763Y0062120D01*
X0020196Y0061553D01*
X0020196Y0060418D01*
X0020763Y0059851D01*
X0022464Y0059851D01*
X0018781Y0058717D02*
X0016513Y0060986D01*
X0016513Y0061553D01*
X0017080Y0062120D01*
X0018214Y0062120D01*
X0018781Y0061553D01*
X0018781Y0058717D02*
X0016513Y0058717D01*
M02*
