G75*
%MOIN*%
%OFA0B0*%
%FSLAX25Y25*%
%IPPOS*%
%LPD*%
%AMOC8*
5,1,8,0,0,1.08239X$1,22.5*
%
%ADD10C,0.00000*%
%ADD11R,0.04331X0.03937*%
%ADD12R,0.03937X0.04331*%
%ADD13R,0.05118X0.05906*%
%ADD14R,0.05906X0.05118*%
%ADD15R,0.21260X0.21260*%
%ADD16C,0.00591*%
%ADD17R,0.08661X0.02362*%
%ADD18R,0.03543X0.02362*%
%ADD19R,0.05512X0.09449*%
%ADD20C,0.03307*%
%ADD21C,0.00354*%
%ADD22R,0.03937X0.03937*%
%ADD23R,0.03150X0.03150*%
%ADD24R,0.05512X0.04724*%
%ADD25R,0.01378X0.05512*%
%ADD26R,0.07087X0.07480*%
%ADD27C,0.02953*%
%ADD28C,0.00492*%
%ADD29R,0.10000X0.20000*%
%ADD30R,0.03937X0.05512*%
%ADD31R,0.05512X0.03937*%
%ADD32R,0.03937X0.03150*%
D10*
X0007412Y0020559D02*
X0374341Y0020559D01*
X0374341Y0020558D02*
X0374488Y0020560D01*
X0374634Y0020566D01*
X0374781Y0020576D01*
X0374927Y0020589D01*
X0375073Y0020607D01*
X0375218Y0020628D01*
X0375362Y0020653D01*
X0375506Y0020683D01*
X0375649Y0020715D01*
X0375791Y0020752D01*
X0375932Y0020793D01*
X0376072Y0020837D01*
X0376211Y0020885D01*
X0376348Y0020936D01*
X0376484Y0020992D01*
X0376619Y0021051D01*
X0376751Y0021113D01*
X0376883Y0021179D01*
X0377012Y0021248D01*
X0377139Y0021321D01*
X0377265Y0021397D01*
X0377388Y0021477D01*
X0377509Y0021560D01*
X0377628Y0021645D01*
X0377745Y0021735D01*
X0377859Y0021827D01*
X0377971Y0021922D01*
X0378080Y0022020D01*
X0378186Y0022121D01*
X0378290Y0022225D01*
X0378391Y0022331D01*
X0378489Y0022440D01*
X0378584Y0022552D01*
X0378676Y0022666D01*
X0378766Y0022783D01*
X0378851Y0022902D01*
X0378934Y0023023D01*
X0379014Y0023146D01*
X0379090Y0023272D01*
X0379163Y0023399D01*
X0379232Y0023528D01*
X0379298Y0023660D01*
X0379360Y0023792D01*
X0379419Y0023927D01*
X0379475Y0024063D01*
X0379526Y0024200D01*
X0379574Y0024339D01*
X0379618Y0024479D01*
X0379659Y0024620D01*
X0379696Y0024762D01*
X0379728Y0024905D01*
X0379758Y0025049D01*
X0379783Y0025193D01*
X0379804Y0025338D01*
X0379822Y0025484D01*
X0379835Y0025630D01*
X0379845Y0025777D01*
X0379851Y0025923D01*
X0379853Y0026070D01*
X0379853Y0062291D01*
X0379851Y0062438D01*
X0379845Y0062584D01*
X0379835Y0062731D01*
X0379822Y0062877D01*
X0379804Y0063023D01*
X0379783Y0063168D01*
X0379758Y0063312D01*
X0379728Y0063456D01*
X0379696Y0063599D01*
X0379659Y0063741D01*
X0379618Y0063882D01*
X0379574Y0064022D01*
X0379526Y0064161D01*
X0379475Y0064298D01*
X0379419Y0064434D01*
X0379360Y0064569D01*
X0379298Y0064701D01*
X0379232Y0064833D01*
X0379163Y0064962D01*
X0379090Y0065089D01*
X0379014Y0065215D01*
X0378934Y0065338D01*
X0378851Y0065459D01*
X0378766Y0065578D01*
X0378676Y0065695D01*
X0378584Y0065809D01*
X0378489Y0065921D01*
X0378391Y0066030D01*
X0378290Y0066136D01*
X0378186Y0066240D01*
X0378080Y0066341D01*
X0377971Y0066439D01*
X0377859Y0066534D01*
X0377745Y0066626D01*
X0377628Y0066716D01*
X0377509Y0066801D01*
X0377388Y0066884D01*
X0377265Y0066964D01*
X0377139Y0067040D01*
X0377012Y0067113D01*
X0376883Y0067182D01*
X0376751Y0067248D01*
X0376619Y0067310D01*
X0376484Y0067369D01*
X0376348Y0067425D01*
X0376211Y0067476D01*
X0376072Y0067524D01*
X0375932Y0067568D01*
X0375791Y0067609D01*
X0375649Y0067646D01*
X0375506Y0067678D01*
X0375362Y0067708D01*
X0375218Y0067733D01*
X0375073Y0067754D01*
X0374927Y0067772D01*
X0374781Y0067785D01*
X0374634Y0067795D01*
X0374488Y0067801D01*
X0374341Y0067803D01*
X0007412Y0067803D01*
X0007265Y0067801D01*
X0007119Y0067795D01*
X0006972Y0067785D01*
X0006826Y0067772D01*
X0006680Y0067754D01*
X0006535Y0067733D01*
X0006391Y0067708D01*
X0006247Y0067678D01*
X0006104Y0067646D01*
X0005962Y0067609D01*
X0005821Y0067568D01*
X0005681Y0067524D01*
X0005542Y0067476D01*
X0005405Y0067425D01*
X0005269Y0067369D01*
X0005134Y0067310D01*
X0005002Y0067248D01*
X0004870Y0067182D01*
X0004741Y0067113D01*
X0004614Y0067040D01*
X0004488Y0066964D01*
X0004365Y0066884D01*
X0004244Y0066801D01*
X0004125Y0066716D01*
X0004008Y0066626D01*
X0003894Y0066534D01*
X0003782Y0066439D01*
X0003673Y0066341D01*
X0003567Y0066240D01*
X0003463Y0066136D01*
X0003362Y0066030D01*
X0003264Y0065921D01*
X0003169Y0065809D01*
X0003077Y0065695D01*
X0002987Y0065578D01*
X0002902Y0065459D01*
X0002819Y0065338D01*
X0002739Y0065215D01*
X0002663Y0065089D01*
X0002590Y0064962D01*
X0002521Y0064833D01*
X0002455Y0064701D01*
X0002393Y0064569D01*
X0002334Y0064434D01*
X0002278Y0064298D01*
X0002227Y0064161D01*
X0002179Y0064022D01*
X0002135Y0063882D01*
X0002094Y0063741D01*
X0002057Y0063599D01*
X0002025Y0063456D01*
X0001995Y0063312D01*
X0001970Y0063168D01*
X0001949Y0063023D01*
X0001931Y0062877D01*
X0001918Y0062731D01*
X0001908Y0062584D01*
X0001902Y0062438D01*
X0001900Y0062291D01*
X0001900Y0026070D01*
X0001902Y0025923D01*
X0001908Y0025777D01*
X0001918Y0025630D01*
X0001931Y0025484D01*
X0001949Y0025338D01*
X0001970Y0025193D01*
X0001995Y0025049D01*
X0002025Y0024905D01*
X0002057Y0024762D01*
X0002094Y0024620D01*
X0002135Y0024479D01*
X0002179Y0024339D01*
X0002227Y0024200D01*
X0002278Y0024063D01*
X0002334Y0023927D01*
X0002393Y0023792D01*
X0002455Y0023660D01*
X0002521Y0023528D01*
X0002590Y0023399D01*
X0002663Y0023272D01*
X0002739Y0023146D01*
X0002819Y0023023D01*
X0002902Y0022902D01*
X0002987Y0022783D01*
X0003077Y0022666D01*
X0003169Y0022552D01*
X0003264Y0022440D01*
X0003362Y0022331D01*
X0003463Y0022225D01*
X0003567Y0022121D01*
X0003673Y0022020D01*
X0003782Y0021922D01*
X0003894Y0021827D01*
X0004008Y0021735D01*
X0004125Y0021645D01*
X0004244Y0021560D01*
X0004365Y0021477D01*
X0004488Y0021397D01*
X0004614Y0021321D01*
X0004741Y0021248D01*
X0004870Y0021179D01*
X0005002Y0021113D01*
X0005134Y0021051D01*
X0005269Y0020992D01*
X0005405Y0020936D01*
X0005542Y0020885D01*
X0005681Y0020837D01*
X0005821Y0020793D01*
X0005962Y0020752D01*
X0006104Y0020715D01*
X0006247Y0020683D01*
X0006391Y0020653D01*
X0006535Y0020628D01*
X0006680Y0020607D01*
X0006826Y0020589D01*
X0006972Y0020576D01*
X0007119Y0020566D01*
X0007265Y0020560D01*
X0007412Y0020558D01*
D11*
X0042845Y0025874D03*
X0050719Y0030598D03*
X0042845Y0032567D03*
X0050719Y0037291D03*
X0042845Y0038472D03*
X0042845Y0045165D03*
X0069420Y0041819D03*
X0076113Y0041819D03*
X0102688Y0051858D03*
X0102688Y0058551D03*
X0149735Y0046543D03*
X0156428Y0046543D03*
X0164105Y0042803D03*
X0156428Y0040244D03*
X0149735Y0040244D03*
X0164105Y0036110D03*
X0156231Y0034141D03*
X0149932Y0034141D03*
X0149932Y0027448D03*
X0156231Y0027448D03*
X0206428Y0024496D03*
X0213121Y0024496D03*
X0234774Y0044968D03*
X0241467Y0044968D03*
X0261743Y0057370D03*
X0261743Y0064063D03*
X0298554Y0063866D03*
X0305247Y0063866D03*
X0345011Y0052055D03*
X0351704Y0052055D03*
X0358396Y0052055D03*
X0365089Y0052055D03*
X0309971Y0031582D03*
X0303278Y0031582D03*
X0303278Y0025283D03*
X0309971Y0025283D03*
X0280050Y0025283D03*
X0273357Y0025283D03*
X0273357Y0031582D03*
X0280050Y0031582D03*
X0206822Y0064653D03*
X0200129Y0064653D03*
X0174538Y0060716D03*
X0167845Y0060716D03*
D12*
X0160168Y0061700D03*
X0154656Y0064063D03*
X0154656Y0057370D03*
X0160168Y0055007D03*
X0132019Y0041031D03*
X0125326Y0041031D03*
X0169617Y0032567D03*
X0169617Y0025874D03*
X0211349Y0040834D03*
X0211349Y0047527D03*
X0217452Y0059929D03*
X0224144Y0059929D03*
X0316861Y0059338D03*
X0322373Y0059338D03*
X0333396Y0059338D03*
X0333396Y0052645D03*
X0322373Y0052645D03*
X0316861Y0052645D03*
X0316861Y0046740D03*
X0322373Y0046740D03*
X0333396Y0046740D03*
X0333396Y0040047D03*
X0322373Y0040047D03*
X0316861Y0040047D03*
X0357806Y0041228D03*
X0365680Y0041228D03*
X0365680Y0034535D03*
X0357806Y0034535D03*
X0109184Y0063866D03*
X0102491Y0063866D03*
X0036546Y0045165D03*
X0036546Y0038472D03*
X0036546Y0032567D03*
X0036546Y0025874D03*
X0050522Y0024496D03*
X0057215Y0024496D03*
X0065680Y0029023D03*
X0057019Y0030598D03*
X0065680Y0035716D03*
X0057019Y0037291D03*
X0078278Y0035716D03*
X0078278Y0029023D03*
D13*
X0027688Y0029220D03*
X0020207Y0029220D03*
D14*
X0037333Y0051464D03*
X0045207Y0051464D03*
X0045207Y0058944D03*
X0037333Y0058944D03*
D15*
G36*
X0187266Y0028686D02*
X0172233Y0043719D01*
X0187266Y0058752D01*
X0202299Y0043719D01*
X0187266Y0028686D01*
G37*
D16*
X0188658Y0027433D02*
X0190467Y0025624D01*
X0190050Y0025207D01*
X0188241Y0027016D01*
X0188658Y0027433D01*
X0189460Y0025797D02*
X0190294Y0025797D01*
X0189704Y0026387D02*
X0188870Y0026387D01*
X0189114Y0026977D02*
X0188280Y0026977D01*
X0190050Y0028825D02*
X0191859Y0027016D01*
X0191442Y0026599D01*
X0189633Y0028408D01*
X0190050Y0028825D01*
X0190852Y0027189D02*
X0191686Y0027189D01*
X0191096Y0027779D02*
X0190262Y0027779D01*
X0190506Y0028369D02*
X0189672Y0028369D01*
X0191442Y0030217D02*
X0193251Y0028408D01*
X0192834Y0027991D01*
X0191025Y0029800D01*
X0191442Y0030217D01*
X0192244Y0028581D02*
X0193078Y0028581D01*
X0192488Y0029171D02*
X0191654Y0029171D01*
X0191898Y0029761D02*
X0191064Y0029761D01*
X0192834Y0031609D02*
X0194643Y0029800D01*
X0194226Y0029383D01*
X0192417Y0031192D01*
X0192834Y0031609D01*
X0193636Y0029973D02*
X0194470Y0029973D01*
X0193880Y0030563D02*
X0193046Y0030563D01*
X0193290Y0031153D02*
X0192456Y0031153D01*
X0194226Y0033001D02*
X0196035Y0031192D01*
X0195618Y0030775D01*
X0193809Y0032584D01*
X0194226Y0033001D01*
X0195028Y0031365D02*
X0195862Y0031365D01*
X0195272Y0031955D02*
X0194438Y0031955D01*
X0194682Y0032545D02*
X0193848Y0032545D01*
X0195618Y0034393D02*
X0197427Y0032584D01*
X0197010Y0032167D01*
X0195201Y0033976D01*
X0195618Y0034393D01*
X0196420Y0032757D02*
X0197254Y0032757D01*
X0196664Y0033347D02*
X0195830Y0033347D01*
X0196074Y0033937D02*
X0195240Y0033937D01*
X0197009Y0035785D02*
X0198818Y0033976D01*
X0198401Y0033559D01*
X0196592Y0035368D01*
X0197009Y0035785D01*
X0197811Y0034149D02*
X0198645Y0034149D01*
X0198055Y0034739D02*
X0197221Y0034739D01*
X0197465Y0035329D02*
X0196631Y0035329D01*
X0198401Y0037177D02*
X0200210Y0035368D01*
X0199793Y0034951D01*
X0197984Y0036760D01*
X0198401Y0037177D01*
X0199203Y0035541D02*
X0200037Y0035541D01*
X0199447Y0036131D02*
X0198613Y0036131D01*
X0198857Y0036721D02*
X0198023Y0036721D01*
X0199793Y0038569D02*
X0201602Y0036760D01*
X0201185Y0036343D01*
X0199376Y0038152D01*
X0199793Y0038569D01*
X0200595Y0036933D02*
X0201429Y0036933D01*
X0200839Y0037523D02*
X0200005Y0037523D01*
X0200249Y0038113D02*
X0199415Y0038113D01*
X0201185Y0039961D02*
X0202994Y0038152D01*
X0202577Y0037735D01*
X0200768Y0039544D01*
X0201185Y0039961D01*
X0201987Y0038325D02*
X0202821Y0038325D01*
X0202231Y0038915D02*
X0201397Y0038915D01*
X0201641Y0039505D02*
X0200807Y0039505D01*
X0202577Y0041353D02*
X0204386Y0039544D01*
X0203969Y0039127D01*
X0202160Y0040936D01*
X0202577Y0041353D01*
X0203379Y0039717D02*
X0204213Y0039717D01*
X0203623Y0040307D02*
X0202789Y0040307D01*
X0203033Y0040897D02*
X0202199Y0040897D01*
X0203969Y0042745D02*
X0205778Y0040936D01*
X0205361Y0040519D01*
X0203552Y0042328D01*
X0203969Y0042745D01*
X0204771Y0041109D02*
X0205605Y0041109D01*
X0205015Y0041699D02*
X0204181Y0041699D01*
X0204425Y0042289D02*
X0203591Y0042289D01*
X0203552Y0045111D02*
X0205361Y0046920D01*
X0205778Y0046503D01*
X0203969Y0044694D01*
X0203552Y0045111D01*
X0203725Y0045284D02*
X0204559Y0045284D01*
X0204315Y0045874D02*
X0205149Y0045874D01*
X0204905Y0046464D02*
X0205739Y0046464D01*
X0203969Y0048312D02*
X0202160Y0046503D01*
X0203969Y0048312D02*
X0204386Y0047895D01*
X0202577Y0046086D01*
X0202160Y0046503D01*
X0202333Y0046676D02*
X0203167Y0046676D01*
X0202923Y0047266D02*
X0203757Y0047266D01*
X0203513Y0047856D02*
X0204347Y0047856D01*
X0202577Y0049704D02*
X0200768Y0047895D01*
X0202577Y0049704D02*
X0202994Y0049287D01*
X0201185Y0047478D01*
X0200768Y0047895D01*
X0200941Y0048068D02*
X0201775Y0048068D01*
X0201531Y0048658D02*
X0202365Y0048658D01*
X0202121Y0049248D02*
X0202955Y0049248D01*
X0201185Y0051096D02*
X0199376Y0049287D01*
X0201185Y0051096D02*
X0201602Y0050679D01*
X0199793Y0048870D01*
X0199376Y0049287D01*
X0199549Y0049460D02*
X0200383Y0049460D01*
X0200139Y0050050D02*
X0200973Y0050050D01*
X0200729Y0050640D02*
X0201563Y0050640D01*
X0199793Y0052488D02*
X0197984Y0050679D01*
X0199793Y0052488D02*
X0200210Y0052071D01*
X0198401Y0050262D01*
X0197984Y0050679D01*
X0198157Y0050852D02*
X0198991Y0050852D01*
X0198747Y0051442D02*
X0199581Y0051442D01*
X0199337Y0052032D02*
X0200171Y0052032D01*
X0198401Y0053880D02*
X0196592Y0052071D01*
X0198401Y0053880D02*
X0198818Y0053463D01*
X0197009Y0051654D01*
X0196592Y0052071D01*
X0196765Y0052244D02*
X0197599Y0052244D01*
X0197355Y0052834D02*
X0198189Y0052834D01*
X0197945Y0053424D02*
X0198779Y0053424D01*
X0197010Y0055272D02*
X0195201Y0053463D01*
X0197010Y0055272D02*
X0197427Y0054855D01*
X0195618Y0053046D01*
X0195201Y0053463D01*
X0195374Y0053636D02*
X0196208Y0053636D01*
X0195964Y0054226D02*
X0196798Y0054226D01*
X0196554Y0054816D02*
X0197388Y0054816D01*
X0195618Y0056664D02*
X0193809Y0054855D01*
X0195618Y0056664D02*
X0196035Y0056247D01*
X0194226Y0054438D01*
X0193809Y0054855D01*
X0193982Y0055028D02*
X0194816Y0055028D01*
X0194572Y0055618D02*
X0195406Y0055618D01*
X0195162Y0056208D02*
X0195996Y0056208D01*
X0194226Y0058056D02*
X0192417Y0056247D01*
X0194226Y0058056D02*
X0194643Y0057639D01*
X0192834Y0055830D01*
X0192417Y0056247D01*
X0192590Y0056420D02*
X0193424Y0056420D01*
X0193180Y0057010D02*
X0194014Y0057010D01*
X0193770Y0057600D02*
X0194604Y0057600D01*
X0192834Y0059448D02*
X0191025Y0057639D01*
X0192834Y0059448D02*
X0193251Y0059031D01*
X0191442Y0057222D01*
X0191025Y0057639D01*
X0191198Y0057812D02*
X0192032Y0057812D01*
X0191788Y0058402D02*
X0192622Y0058402D01*
X0192378Y0058992D02*
X0193212Y0058992D01*
X0191442Y0060840D02*
X0189633Y0059031D01*
X0191442Y0060840D02*
X0191859Y0060423D01*
X0190050Y0058614D01*
X0189633Y0059031D01*
X0189806Y0059204D02*
X0190640Y0059204D01*
X0190396Y0059794D02*
X0191230Y0059794D01*
X0190986Y0060384D02*
X0191820Y0060384D01*
X0190050Y0062232D02*
X0188241Y0060423D01*
X0190050Y0062232D02*
X0190467Y0061815D01*
X0188658Y0060006D01*
X0188241Y0060423D01*
X0188414Y0060596D02*
X0189248Y0060596D01*
X0189004Y0061186D02*
X0189838Y0061186D01*
X0189594Y0061776D02*
X0190428Y0061776D01*
X0185874Y0060006D02*
X0184065Y0061815D01*
X0184482Y0062232D01*
X0186291Y0060423D01*
X0185874Y0060006D01*
X0186118Y0060596D02*
X0185284Y0060596D01*
X0185528Y0061186D02*
X0184694Y0061186D01*
X0184938Y0061776D02*
X0184104Y0061776D01*
X0182673Y0060423D02*
X0184482Y0058614D01*
X0182673Y0060423D02*
X0183090Y0060840D01*
X0184899Y0059031D01*
X0184482Y0058614D01*
X0184726Y0059204D02*
X0183892Y0059204D01*
X0184136Y0059794D02*
X0183302Y0059794D01*
X0183546Y0060384D02*
X0182712Y0060384D01*
X0181281Y0059031D02*
X0183090Y0057222D01*
X0181281Y0059031D02*
X0181698Y0059448D01*
X0183507Y0057639D01*
X0183090Y0057222D01*
X0183334Y0057812D02*
X0182500Y0057812D01*
X0182744Y0058402D02*
X0181910Y0058402D01*
X0182154Y0058992D02*
X0181320Y0058992D01*
X0179889Y0057639D02*
X0181698Y0055830D01*
X0179889Y0057639D02*
X0180306Y0058056D01*
X0182115Y0056247D01*
X0181698Y0055830D01*
X0181942Y0056420D02*
X0181108Y0056420D01*
X0181352Y0057010D02*
X0180518Y0057010D01*
X0180762Y0057600D02*
X0179928Y0057600D01*
X0178497Y0056247D02*
X0180306Y0054438D01*
X0178497Y0056247D02*
X0178914Y0056664D01*
X0180723Y0054855D01*
X0180306Y0054438D01*
X0180550Y0055028D02*
X0179716Y0055028D01*
X0179960Y0055618D02*
X0179126Y0055618D01*
X0179370Y0056208D02*
X0178536Y0056208D01*
X0177105Y0054855D02*
X0178914Y0053046D01*
X0177105Y0054855D02*
X0177522Y0055272D01*
X0179331Y0053463D01*
X0178914Y0053046D01*
X0179158Y0053636D02*
X0178324Y0053636D01*
X0178568Y0054226D02*
X0177734Y0054226D01*
X0177978Y0054816D02*
X0177144Y0054816D01*
X0175713Y0053463D02*
X0177522Y0051654D01*
X0175713Y0053463D02*
X0176130Y0053880D01*
X0177939Y0052071D01*
X0177522Y0051654D01*
X0177766Y0052244D02*
X0176932Y0052244D01*
X0177176Y0052834D02*
X0176342Y0052834D01*
X0176586Y0053424D02*
X0175752Y0053424D01*
X0174321Y0052071D02*
X0176130Y0050262D01*
X0174321Y0052071D02*
X0174738Y0052488D01*
X0176547Y0050679D01*
X0176130Y0050262D01*
X0176374Y0050852D02*
X0175540Y0050852D01*
X0175784Y0051442D02*
X0174950Y0051442D01*
X0175194Y0052032D02*
X0174360Y0052032D01*
X0172929Y0050679D02*
X0174738Y0048870D01*
X0172929Y0050679D02*
X0173346Y0051096D01*
X0175155Y0049287D01*
X0174738Y0048870D01*
X0174982Y0049460D02*
X0174148Y0049460D01*
X0174392Y0050050D02*
X0173558Y0050050D01*
X0173802Y0050640D02*
X0172968Y0050640D01*
X0171538Y0049287D02*
X0173347Y0047478D01*
X0171538Y0049287D02*
X0171955Y0049704D01*
X0173764Y0047895D01*
X0173347Y0047478D01*
X0173591Y0048068D02*
X0172757Y0048068D01*
X0173001Y0048658D02*
X0172167Y0048658D01*
X0172411Y0049248D02*
X0171577Y0049248D01*
X0170146Y0047895D02*
X0171955Y0046086D01*
X0170146Y0047895D02*
X0170563Y0048312D01*
X0172372Y0046503D01*
X0171955Y0046086D01*
X0172199Y0046676D02*
X0171365Y0046676D01*
X0171609Y0047266D02*
X0170775Y0047266D01*
X0171019Y0047856D02*
X0170185Y0047856D01*
X0168754Y0046503D02*
X0170563Y0044694D01*
X0168754Y0046503D02*
X0169171Y0046920D01*
X0170980Y0045111D01*
X0170563Y0044694D01*
X0170807Y0045284D02*
X0169973Y0045284D01*
X0170217Y0045874D02*
X0169383Y0045874D01*
X0169627Y0046464D02*
X0168793Y0046464D01*
X0170980Y0042328D02*
X0169171Y0040519D01*
X0168754Y0040936D01*
X0170563Y0042745D01*
X0170980Y0042328D01*
X0169761Y0041109D02*
X0168927Y0041109D01*
X0169517Y0041699D02*
X0170351Y0041699D01*
X0170107Y0042289D02*
X0170941Y0042289D01*
X0172372Y0040936D02*
X0170563Y0039127D01*
X0170146Y0039544D01*
X0171955Y0041353D01*
X0172372Y0040936D01*
X0171153Y0039717D02*
X0170319Y0039717D01*
X0170909Y0040307D02*
X0171743Y0040307D01*
X0171499Y0040897D02*
X0172333Y0040897D01*
X0173764Y0039544D02*
X0171955Y0037735D01*
X0171538Y0038152D01*
X0173347Y0039961D01*
X0173764Y0039544D01*
X0172545Y0038325D02*
X0171711Y0038325D01*
X0172301Y0038915D02*
X0173135Y0038915D01*
X0172891Y0039505D02*
X0173725Y0039505D01*
X0175155Y0038152D02*
X0173346Y0036343D01*
X0172929Y0036760D01*
X0174738Y0038569D01*
X0175155Y0038152D01*
X0173936Y0036933D02*
X0173102Y0036933D01*
X0173692Y0037523D02*
X0174526Y0037523D01*
X0174282Y0038113D02*
X0175116Y0038113D01*
X0176547Y0036760D02*
X0174738Y0034951D01*
X0174321Y0035368D01*
X0176130Y0037177D01*
X0176547Y0036760D01*
X0175328Y0035541D02*
X0174494Y0035541D01*
X0175084Y0036131D02*
X0175918Y0036131D01*
X0175674Y0036721D02*
X0176508Y0036721D01*
X0177939Y0035368D02*
X0176130Y0033559D01*
X0175713Y0033976D01*
X0177522Y0035785D01*
X0177939Y0035368D01*
X0176720Y0034149D02*
X0175886Y0034149D01*
X0176476Y0034739D02*
X0177310Y0034739D01*
X0177066Y0035329D02*
X0177900Y0035329D01*
X0179331Y0033976D02*
X0177522Y0032167D01*
X0177105Y0032584D01*
X0178914Y0034393D01*
X0179331Y0033976D01*
X0178112Y0032757D02*
X0177278Y0032757D01*
X0177868Y0033347D02*
X0178702Y0033347D01*
X0178458Y0033937D02*
X0179292Y0033937D01*
X0180723Y0032584D02*
X0178914Y0030775D01*
X0178497Y0031192D01*
X0180306Y0033001D01*
X0180723Y0032584D01*
X0179504Y0031365D02*
X0178670Y0031365D01*
X0179260Y0031955D02*
X0180094Y0031955D01*
X0179850Y0032545D02*
X0180684Y0032545D01*
X0182115Y0031192D02*
X0180306Y0029383D01*
X0179889Y0029800D01*
X0181698Y0031609D01*
X0182115Y0031192D01*
X0180896Y0029973D02*
X0180062Y0029973D01*
X0180652Y0030563D02*
X0181486Y0030563D01*
X0181242Y0031153D02*
X0182076Y0031153D01*
X0183507Y0029800D02*
X0181698Y0027991D01*
X0181281Y0028408D01*
X0183090Y0030217D01*
X0183507Y0029800D01*
X0182288Y0028581D02*
X0181454Y0028581D01*
X0182044Y0029171D02*
X0182878Y0029171D01*
X0182634Y0029761D02*
X0183468Y0029761D01*
X0184899Y0028408D02*
X0183090Y0026599D01*
X0182673Y0027016D01*
X0184482Y0028825D01*
X0184899Y0028408D01*
X0183680Y0027189D02*
X0182846Y0027189D01*
X0183436Y0027779D02*
X0184270Y0027779D01*
X0184026Y0028369D02*
X0184860Y0028369D01*
X0186291Y0027016D02*
X0184482Y0025207D01*
X0184065Y0025624D01*
X0185874Y0027433D01*
X0186291Y0027016D01*
X0185072Y0025797D02*
X0184238Y0025797D01*
X0184828Y0026387D02*
X0185662Y0026387D01*
X0185418Y0026977D02*
X0186252Y0026977D01*
D17*
X0235247Y0029082D03*
X0235247Y0034082D03*
X0235247Y0039082D03*
X0261467Y0039082D03*
X0261467Y0034082D03*
X0261467Y0029082D03*
X0261467Y0024082D03*
X0235247Y0024082D03*
D18*
X0028475Y0037291D03*
X0019420Y0037291D03*
X0019420Y0041031D03*
X0019420Y0044771D03*
X0028475Y0044771D03*
D19*
X0029459Y0056779D03*
X0020011Y0056779D03*
D20*
X0286230Y0052764D02*
X0293948Y0052764D01*
X0293948Y0045046D01*
X0286230Y0045046D01*
X0286230Y0052764D01*
X0286230Y0048352D02*
X0293948Y0048352D01*
X0293948Y0051658D02*
X0286230Y0051658D01*
D21*
X0283416Y0050461D02*
X0279834Y0050461D01*
X0279834Y0051287D01*
X0283416Y0051287D01*
X0283416Y0050461D01*
X0283416Y0050814D02*
X0279834Y0050814D01*
X0279834Y0051167D02*
X0283416Y0051167D01*
X0283416Y0052429D02*
X0279834Y0052429D01*
X0279834Y0053255D01*
X0283416Y0053255D01*
X0283416Y0052429D01*
X0283416Y0052782D02*
X0279834Y0052782D01*
X0279834Y0053135D02*
X0283416Y0053135D01*
X0283416Y0048492D02*
X0279834Y0048492D01*
X0279834Y0049318D01*
X0283416Y0049318D01*
X0283416Y0048492D01*
X0283416Y0048845D02*
X0279834Y0048845D01*
X0279834Y0049198D02*
X0283416Y0049198D01*
X0283416Y0046524D02*
X0279834Y0046524D01*
X0279834Y0047350D01*
X0283416Y0047350D01*
X0283416Y0046524D01*
X0283416Y0046877D02*
X0279834Y0046877D01*
X0279834Y0047230D02*
X0283416Y0047230D01*
X0283416Y0044555D02*
X0279834Y0044555D01*
X0279834Y0045381D01*
X0283416Y0045381D01*
X0283416Y0044555D01*
X0283416Y0044908D02*
X0279834Y0044908D01*
X0279834Y0045261D02*
X0283416Y0045261D01*
X0286565Y0042232D02*
X0286565Y0038650D01*
X0285739Y0038650D01*
X0285739Y0042232D01*
X0286565Y0042232D01*
X0286565Y0039003D02*
X0285739Y0039003D01*
X0285739Y0039356D02*
X0286565Y0039356D01*
X0286565Y0039709D02*
X0285739Y0039709D01*
X0285739Y0040062D02*
X0286565Y0040062D01*
X0286565Y0040415D02*
X0285739Y0040415D01*
X0285739Y0040768D02*
X0286565Y0040768D01*
X0286565Y0041121D02*
X0285739Y0041121D01*
X0285739Y0041474D02*
X0286565Y0041474D01*
X0286565Y0041827D02*
X0285739Y0041827D01*
X0285739Y0042180D02*
X0286565Y0042180D01*
X0288534Y0042232D02*
X0288534Y0038650D01*
X0287708Y0038650D01*
X0287708Y0042232D01*
X0288534Y0042232D01*
X0288534Y0039003D02*
X0287708Y0039003D01*
X0287708Y0039356D02*
X0288534Y0039356D01*
X0288534Y0039709D02*
X0287708Y0039709D01*
X0287708Y0040062D02*
X0288534Y0040062D01*
X0288534Y0040415D02*
X0287708Y0040415D01*
X0287708Y0040768D02*
X0288534Y0040768D01*
X0288534Y0041121D02*
X0287708Y0041121D01*
X0287708Y0041474D02*
X0288534Y0041474D01*
X0288534Y0041827D02*
X0287708Y0041827D01*
X0287708Y0042180D02*
X0288534Y0042180D01*
X0290502Y0042232D02*
X0290502Y0038650D01*
X0289676Y0038650D01*
X0289676Y0042232D01*
X0290502Y0042232D01*
X0290502Y0039003D02*
X0289676Y0039003D01*
X0289676Y0039356D02*
X0290502Y0039356D01*
X0290502Y0039709D02*
X0289676Y0039709D01*
X0289676Y0040062D02*
X0290502Y0040062D01*
X0290502Y0040415D02*
X0289676Y0040415D01*
X0289676Y0040768D02*
X0290502Y0040768D01*
X0290502Y0041121D02*
X0289676Y0041121D01*
X0289676Y0041474D02*
X0290502Y0041474D01*
X0290502Y0041827D02*
X0289676Y0041827D01*
X0289676Y0042180D02*
X0290502Y0042180D01*
X0292471Y0042232D02*
X0292471Y0038650D01*
X0291645Y0038650D01*
X0291645Y0042232D01*
X0292471Y0042232D01*
X0292471Y0039003D02*
X0291645Y0039003D01*
X0291645Y0039356D02*
X0292471Y0039356D01*
X0292471Y0039709D02*
X0291645Y0039709D01*
X0291645Y0040062D02*
X0292471Y0040062D01*
X0292471Y0040415D02*
X0291645Y0040415D01*
X0291645Y0040768D02*
X0292471Y0040768D01*
X0292471Y0041121D02*
X0291645Y0041121D01*
X0291645Y0041474D02*
X0292471Y0041474D01*
X0292471Y0041827D02*
X0291645Y0041827D01*
X0291645Y0042180D02*
X0292471Y0042180D01*
X0294439Y0042232D02*
X0294439Y0038650D01*
X0293613Y0038650D01*
X0293613Y0042232D01*
X0294439Y0042232D01*
X0294439Y0039003D02*
X0293613Y0039003D01*
X0293613Y0039356D02*
X0294439Y0039356D01*
X0294439Y0039709D02*
X0293613Y0039709D01*
X0293613Y0040062D02*
X0294439Y0040062D01*
X0294439Y0040415D02*
X0293613Y0040415D01*
X0293613Y0040768D02*
X0294439Y0040768D01*
X0294439Y0041121D02*
X0293613Y0041121D01*
X0293613Y0041474D02*
X0294439Y0041474D01*
X0294439Y0041827D02*
X0293613Y0041827D01*
X0293613Y0042180D02*
X0294439Y0042180D01*
X0296763Y0045381D02*
X0300345Y0045381D01*
X0300345Y0044555D01*
X0296763Y0044555D01*
X0296763Y0045381D01*
X0296763Y0044908D02*
X0300345Y0044908D01*
X0300345Y0045261D02*
X0296763Y0045261D01*
X0296763Y0047350D02*
X0300345Y0047350D01*
X0300345Y0046524D01*
X0296763Y0046524D01*
X0296763Y0047350D01*
X0296763Y0046877D02*
X0300345Y0046877D01*
X0300345Y0047230D02*
X0296763Y0047230D01*
X0296763Y0049318D02*
X0300345Y0049318D01*
X0300345Y0048492D01*
X0296763Y0048492D01*
X0296763Y0049318D01*
X0296763Y0048845D02*
X0300345Y0048845D01*
X0300345Y0049198D02*
X0296763Y0049198D01*
X0296763Y0051287D02*
X0300345Y0051287D01*
X0300345Y0050461D01*
X0296763Y0050461D01*
X0296763Y0051287D01*
X0296763Y0050814D02*
X0300345Y0050814D01*
X0300345Y0051167D02*
X0296763Y0051167D01*
X0296763Y0053255D02*
X0300345Y0053255D01*
X0300345Y0052429D01*
X0296763Y0052429D01*
X0296763Y0053255D01*
X0296763Y0052782D02*
X0300345Y0052782D01*
X0300345Y0053135D02*
X0296763Y0053135D01*
X0293613Y0055579D02*
X0293613Y0059161D01*
X0294439Y0059161D01*
X0294439Y0055579D01*
X0293613Y0055579D01*
X0293613Y0055932D02*
X0294439Y0055932D01*
X0294439Y0056285D02*
X0293613Y0056285D01*
X0293613Y0056638D02*
X0294439Y0056638D01*
X0294439Y0056991D02*
X0293613Y0056991D01*
X0293613Y0057344D02*
X0294439Y0057344D01*
X0294439Y0057697D02*
X0293613Y0057697D01*
X0293613Y0058050D02*
X0294439Y0058050D01*
X0294439Y0058403D02*
X0293613Y0058403D01*
X0293613Y0058756D02*
X0294439Y0058756D01*
X0294439Y0059109D02*
X0293613Y0059109D01*
X0291645Y0059161D02*
X0291645Y0055579D01*
X0291645Y0059161D02*
X0292471Y0059161D01*
X0292471Y0055579D01*
X0291645Y0055579D01*
X0291645Y0055932D02*
X0292471Y0055932D01*
X0292471Y0056285D02*
X0291645Y0056285D01*
X0291645Y0056638D02*
X0292471Y0056638D01*
X0292471Y0056991D02*
X0291645Y0056991D01*
X0291645Y0057344D02*
X0292471Y0057344D01*
X0292471Y0057697D02*
X0291645Y0057697D01*
X0291645Y0058050D02*
X0292471Y0058050D01*
X0292471Y0058403D02*
X0291645Y0058403D01*
X0291645Y0058756D02*
X0292471Y0058756D01*
X0292471Y0059109D02*
X0291645Y0059109D01*
X0289676Y0059161D02*
X0289676Y0055579D01*
X0289676Y0059161D02*
X0290502Y0059161D01*
X0290502Y0055579D01*
X0289676Y0055579D01*
X0289676Y0055932D02*
X0290502Y0055932D01*
X0290502Y0056285D02*
X0289676Y0056285D01*
X0289676Y0056638D02*
X0290502Y0056638D01*
X0290502Y0056991D02*
X0289676Y0056991D01*
X0289676Y0057344D02*
X0290502Y0057344D01*
X0290502Y0057697D02*
X0289676Y0057697D01*
X0289676Y0058050D02*
X0290502Y0058050D01*
X0290502Y0058403D02*
X0289676Y0058403D01*
X0289676Y0058756D02*
X0290502Y0058756D01*
X0290502Y0059109D02*
X0289676Y0059109D01*
X0287708Y0059161D02*
X0287708Y0055579D01*
X0287708Y0059161D02*
X0288534Y0059161D01*
X0288534Y0055579D01*
X0287708Y0055579D01*
X0287708Y0055932D02*
X0288534Y0055932D01*
X0288534Y0056285D02*
X0287708Y0056285D01*
X0287708Y0056638D02*
X0288534Y0056638D01*
X0288534Y0056991D02*
X0287708Y0056991D01*
X0287708Y0057344D02*
X0288534Y0057344D01*
X0288534Y0057697D02*
X0287708Y0057697D01*
X0287708Y0058050D02*
X0288534Y0058050D01*
X0288534Y0058403D02*
X0287708Y0058403D01*
X0287708Y0058756D02*
X0288534Y0058756D01*
X0288534Y0059109D02*
X0287708Y0059109D01*
X0285739Y0059161D02*
X0285739Y0055579D01*
X0285739Y0059161D02*
X0286565Y0059161D01*
X0286565Y0055579D01*
X0285739Y0055579D01*
X0285739Y0055932D02*
X0286565Y0055932D01*
X0286565Y0056285D02*
X0285739Y0056285D01*
X0285739Y0056638D02*
X0286565Y0056638D01*
X0286565Y0056991D02*
X0285739Y0056991D01*
X0285739Y0057344D02*
X0286565Y0057344D01*
X0286565Y0057697D02*
X0285739Y0057697D01*
X0285739Y0058050D02*
X0286565Y0058050D01*
X0286565Y0058403D02*
X0285739Y0058403D01*
X0285739Y0058756D02*
X0286565Y0058756D01*
X0286565Y0059109D02*
X0285739Y0059109D01*
D22*
X0310562Y0059929D03*
X0327885Y0059929D03*
X0338908Y0059929D03*
X0338908Y0052055D03*
X0327885Y0052055D03*
X0327885Y0047330D03*
X0310562Y0047330D03*
X0310562Y0052055D03*
X0310562Y0039456D03*
X0327885Y0039456D03*
X0344420Y0046543D03*
X0352294Y0046543D03*
X0357806Y0046543D03*
X0365680Y0046543D03*
X0071979Y0036307D03*
X0071979Y0028433D03*
D23*
X0164105Y0031385D03*
X0164105Y0025480D03*
D24*
X0287333Y0025086D03*
X0295995Y0025086D03*
X0295995Y0031779D03*
X0287333Y0031779D03*
D25*
X0075522Y0051070D03*
X0072963Y0051070D03*
X0070404Y0051070D03*
X0067845Y0051070D03*
X0065286Y0051070D03*
D26*
X0054656Y0061504D03*
X0086152Y0061504D03*
D27*
X0090385Y0039161D02*
X0090385Y0030303D01*
X0090385Y0039161D02*
X0099243Y0039161D01*
X0099243Y0030303D01*
X0090385Y0030303D01*
X0090385Y0033255D02*
X0099243Y0033255D01*
X0099243Y0036207D02*
X0090385Y0036207D01*
X0090385Y0039159D02*
X0099243Y0039159D01*
D28*
X0103327Y0038915D02*
X0105985Y0038915D01*
X0105985Y0038423D01*
X0103327Y0038423D01*
X0103327Y0038915D01*
X0103327Y0038914D02*
X0105985Y0038914D01*
X0105985Y0040883D02*
X0103327Y0040883D01*
X0105985Y0040883D02*
X0105985Y0040391D01*
X0103327Y0040391D01*
X0103327Y0040883D01*
X0103327Y0040882D02*
X0105985Y0040882D01*
X0105985Y0036946D02*
X0103327Y0036946D01*
X0105985Y0036946D02*
X0105985Y0036454D01*
X0103327Y0036454D01*
X0103327Y0036946D01*
X0103327Y0036945D02*
X0105985Y0036945D01*
X0105985Y0034978D02*
X0103327Y0034978D01*
X0105985Y0034978D02*
X0105985Y0034486D01*
X0103327Y0034486D01*
X0103327Y0034978D01*
X0103327Y0034977D02*
X0105985Y0034977D01*
X0105985Y0033009D02*
X0103327Y0033009D01*
X0105985Y0033009D02*
X0105985Y0032517D01*
X0103327Y0032517D01*
X0103327Y0033009D01*
X0103327Y0033008D02*
X0105985Y0033008D01*
X0105985Y0031041D02*
X0103327Y0031041D01*
X0105985Y0031041D02*
X0105985Y0030549D01*
X0103327Y0030549D01*
X0103327Y0031041D01*
X0103327Y0031040D02*
X0105985Y0031040D01*
X0105985Y0029072D02*
X0103327Y0029072D01*
X0105985Y0029072D02*
X0105985Y0028580D01*
X0103327Y0028580D01*
X0103327Y0029072D01*
X0103327Y0029071D02*
X0105985Y0029071D01*
X0100473Y0026218D02*
X0100473Y0023560D01*
X0100473Y0026218D02*
X0100965Y0026218D01*
X0100965Y0023560D01*
X0100473Y0023560D01*
X0100473Y0024051D02*
X0100965Y0024051D01*
X0100965Y0024542D02*
X0100473Y0024542D01*
X0100473Y0025033D02*
X0100965Y0025033D01*
X0100965Y0025524D02*
X0100473Y0025524D01*
X0100473Y0026015D02*
X0100965Y0026015D01*
X0098505Y0026218D02*
X0098505Y0023560D01*
X0098505Y0026218D02*
X0098997Y0026218D01*
X0098997Y0023560D01*
X0098505Y0023560D01*
X0098505Y0024051D02*
X0098997Y0024051D01*
X0098997Y0024542D02*
X0098505Y0024542D01*
X0098505Y0025033D02*
X0098997Y0025033D01*
X0098997Y0025524D02*
X0098505Y0025524D01*
X0098505Y0026015D02*
X0098997Y0026015D01*
X0096536Y0026218D02*
X0096536Y0023560D01*
X0096536Y0026218D02*
X0097028Y0026218D01*
X0097028Y0023560D01*
X0096536Y0023560D01*
X0096536Y0024051D02*
X0097028Y0024051D01*
X0097028Y0024542D02*
X0096536Y0024542D01*
X0096536Y0025033D02*
X0097028Y0025033D01*
X0097028Y0025524D02*
X0096536Y0025524D01*
X0096536Y0026015D02*
X0097028Y0026015D01*
X0095060Y0026218D02*
X0095060Y0023560D01*
X0094568Y0023560D01*
X0094568Y0026218D01*
X0095060Y0026218D01*
X0095060Y0024051D02*
X0094568Y0024051D01*
X0094568Y0024542D02*
X0095060Y0024542D01*
X0095060Y0025033D02*
X0094568Y0025033D01*
X0094568Y0025524D02*
X0095060Y0025524D01*
X0095060Y0026015D02*
X0094568Y0026015D01*
X0093091Y0026218D02*
X0093091Y0023560D01*
X0092599Y0023560D01*
X0092599Y0026218D01*
X0093091Y0026218D01*
X0093091Y0024051D02*
X0092599Y0024051D01*
X0092599Y0024542D02*
X0093091Y0024542D01*
X0093091Y0025033D02*
X0092599Y0025033D01*
X0092599Y0025524D02*
X0093091Y0025524D01*
X0093091Y0026015D02*
X0092599Y0026015D01*
X0091123Y0026218D02*
X0091123Y0023560D01*
X0090631Y0023560D01*
X0090631Y0026218D01*
X0091123Y0026218D01*
X0091123Y0024051D02*
X0090631Y0024051D01*
X0090631Y0024542D02*
X0091123Y0024542D01*
X0091123Y0025033D02*
X0090631Y0025033D01*
X0090631Y0025524D02*
X0091123Y0025524D01*
X0091123Y0026015D02*
X0090631Y0026015D01*
X0089154Y0026218D02*
X0089154Y0023560D01*
X0088662Y0023560D01*
X0088662Y0026218D01*
X0089154Y0026218D01*
X0089154Y0024051D02*
X0088662Y0024051D01*
X0088662Y0024542D02*
X0089154Y0024542D01*
X0089154Y0025033D02*
X0088662Y0025033D01*
X0088662Y0025524D02*
X0089154Y0025524D01*
X0089154Y0026015D02*
X0088662Y0026015D01*
X0086300Y0028580D02*
X0083642Y0028580D01*
X0083642Y0029072D01*
X0086300Y0029072D01*
X0086300Y0028580D01*
X0086300Y0029071D02*
X0083642Y0029071D01*
X0083642Y0030549D02*
X0086300Y0030549D01*
X0083642Y0030549D02*
X0083642Y0031041D01*
X0086300Y0031041D01*
X0086300Y0030549D01*
X0086300Y0031040D02*
X0083642Y0031040D01*
X0083642Y0032517D02*
X0086300Y0032517D01*
X0083642Y0032517D02*
X0083642Y0033009D01*
X0086300Y0033009D01*
X0086300Y0032517D01*
X0086300Y0033008D02*
X0083642Y0033008D01*
X0083642Y0034486D02*
X0086300Y0034486D01*
X0083642Y0034486D02*
X0083642Y0034978D01*
X0086300Y0034978D01*
X0086300Y0034486D01*
X0086300Y0034977D02*
X0083642Y0034977D01*
X0083642Y0036454D02*
X0086300Y0036454D01*
X0083642Y0036454D02*
X0083642Y0036946D01*
X0086300Y0036946D01*
X0086300Y0036454D01*
X0086300Y0036945D02*
X0083642Y0036945D01*
X0083642Y0038423D02*
X0086300Y0038423D01*
X0083642Y0038423D02*
X0083642Y0038915D01*
X0086300Y0038915D01*
X0086300Y0038423D01*
X0086300Y0038914D02*
X0083642Y0038914D01*
X0083642Y0040391D02*
X0086300Y0040391D01*
X0083642Y0040391D02*
X0083642Y0040883D01*
X0086300Y0040883D01*
X0086300Y0040391D01*
X0086300Y0040882D02*
X0083642Y0040882D01*
X0088662Y0043245D02*
X0088662Y0045903D01*
X0089154Y0045903D01*
X0089154Y0043245D01*
X0088662Y0043245D01*
X0088662Y0043736D02*
X0089154Y0043736D01*
X0089154Y0044227D02*
X0088662Y0044227D01*
X0088662Y0044718D02*
X0089154Y0044718D01*
X0089154Y0045209D02*
X0088662Y0045209D01*
X0088662Y0045700D02*
X0089154Y0045700D01*
X0090631Y0045903D02*
X0090631Y0043245D01*
X0090631Y0045903D02*
X0091123Y0045903D01*
X0091123Y0043245D01*
X0090631Y0043245D01*
X0090631Y0043736D02*
X0091123Y0043736D01*
X0091123Y0044227D02*
X0090631Y0044227D01*
X0090631Y0044718D02*
X0091123Y0044718D01*
X0091123Y0045209D02*
X0090631Y0045209D01*
X0090631Y0045700D02*
X0091123Y0045700D01*
X0092599Y0045903D02*
X0092599Y0043245D01*
X0092599Y0045903D02*
X0093091Y0045903D01*
X0093091Y0043245D01*
X0092599Y0043245D01*
X0092599Y0043736D02*
X0093091Y0043736D01*
X0093091Y0044227D02*
X0092599Y0044227D01*
X0092599Y0044718D02*
X0093091Y0044718D01*
X0093091Y0045209D02*
X0092599Y0045209D01*
X0092599Y0045700D02*
X0093091Y0045700D01*
X0094568Y0045903D02*
X0094568Y0043245D01*
X0094568Y0045903D02*
X0095060Y0045903D01*
X0095060Y0043245D01*
X0094568Y0043245D01*
X0094568Y0043736D02*
X0095060Y0043736D01*
X0095060Y0044227D02*
X0094568Y0044227D01*
X0094568Y0044718D02*
X0095060Y0044718D01*
X0095060Y0045209D02*
X0094568Y0045209D01*
X0094568Y0045700D02*
X0095060Y0045700D01*
X0096536Y0045903D02*
X0096536Y0043245D01*
X0096536Y0045903D02*
X0097028Y0045903D01*
X0097028Y0043245D01*
X0096536Y0043245D01*
X0096536Y0043736D02*
X0097028Y0043736D01*
X0097028Y0044227D02*
X0096536Y0044227D01*
X0096536Y0044718D02*
X0097028Y0044718D01*
X0097028Y0045209D02*
X0096536Y0045209D01*
X0096536Y0045700D02*
X0097028Y0045700D01*
X0098505Y0045903D02*
X0098505Y0043245D01*
X0098505Y0045903D02*
X0098997Y0045903D01*
X0098997Y0043245D01*
X0098505Y0043245D01*
X0098505Y0043736D02*
X0098997Y0043736D01*
X0098997Y0044227D02*
X0098505Y0044227D01*
X0098505Y0044718D02*
X0098997Y0044718D01*
X0098997Y0045209D02*
X0098505Y0045209D01*
X0098505Y0045700D02*
X0098997Y0045700D01*
X0100473Y0045903D02*
X0100473Y0043245D01*
X0100473Y0045903D02*
X0100965Y0045903D01*
X0100965Y0043245D01*
X0100473Y0043245D01*
X0100473Y0043736D02*
X0100965Y0043736D01*
X0100965Y0044227D02*
X0100473Y0044227D01*
X0100473Y0044718D02*
X0100965Y0044718D01*
X0100965Y0045209D02*
X0100473Y0045209D01*
X0100473Y0045700D02*
X0100965Y0045700D01*
D29*
X0008200Y0044181D03*
D30*
X0122570Y0025677D03*
X0130050Y0025677D03*
X0135956Y0028039D03*
X0143436Y0028039D03*
X0126310Y0034338D03*
X0139696Y0036700D03*
D31*
X0244814Y0060716D03*
X0253475Y0064456D03*
X0253475Y0056976D03*
D32*
X0013711Y0031385D03*
X0013711Y0023905D03*
M02*
