G75*
%MOIN*%
%OFA0B0*%
%FSLAX25Y25*%
%IPPOS*%
%LPD*%
%AMOC8*
5,1,8,0,0,1.08239X$1,22.5*
%
%ADD10C,0.00000*%
%ADD11C,0.10400*%
%ADD12C,0.05200*%
%ADD13R,0.10400X0.20400*%
%ADD14OC8,0.08900*%
%ADD15C,0.05400*%
%ADD16C,0.06306*%
D10*
X0007412Y0020559D02*
X0374341Y0020559D01*
X0374341Y0020558D02*
X0374488Y0020560D01*
X0374634Y0020566D01*
X0374781Y0020576D01*
X0374927Y0020589D01*
X0375073Y0020607D01*
X0375218Y0020628D01*
X0375362Y0020653D01*
X0375506Y0020683D01*
X0375649Y0020715D01*
X0375791Y0020752D01*
X0375932Y0020793D01*
X0376072Y0020837D01*
X0376211Y0020885D01*
X0376348Y0020936D01*
X0376484Y0020992D01*
X0376619Y0021051D01*
X0376751Y0021113D01*
X0376883Y0021179D01*
X0377012Y0021248D01*
X0377139Y0021321D01*
X0377265Y0021397D01*
X0377388Y0021477D01*
X0377509Y0021560D01*
X0377628Y0021645D01*
X0377745Y0021735D01*
X0377859Y0021827D01*
X0377971Y0021922D01*
X0378080Y0022020D01*
X0378186Y0022121D01*
X0378290Y0022225D01*
X0378391Y0022331D01*
X0378489Y0022440D01*
X0378584Y0022552D01*
X0378676Y0022666D01*
X0378766Y0022783D01*
X0378851Y0022902D01*
X0378934Y0023023D01*
X0379014Y0023146D01*
X0379090Y0023272D01*
X0379163Y0023399D01*
X0379232Y0023528D01*
X0379298Y0023660D01*
X0379360Y0023792D01*
X0379419Y0023927D01*
X0379475Y0024063D01*
X0379526Y0024200D01*
X0379574Y0024339D01*
X0379618Y0024479D01*
X0379659Y0024620D01*
X0379696Y0024762D01*
X0379728Y0024905D01*
X0379758Y0025049D01*
X0379783Y0025193D01*
X0379804Y0025338D01*
X0379822Y0025484D01*
X0379835Y0025630D01*
X0379845Y0025777D01*
X0379851Y0025923D01*
X0379853Y0026070D01*
X0379853Y0062291D01*
X0379851Y0062438D01*
X0379845Y0062584D01*
X0379835Y0062731D01*
X0379822Y0062877D01*
X0379804Y0063023D01*
X0379783Y0063168D01*
X0379758Y0063312D01*
X0379728Y0063456D01*
X0379696Y0063599D01*
X0379659Y0063741D01*
X0379618Y0063882D01*
X0379574Y0064022D01*
X0379526Y0064161D01*
X0379475Y0064298D01*
X0379419Y0064434D01*
X0379360Y0064569D01*
X0379298Y0064701D01*
X0379232Y0064833D01*
X0379163Y0064962D01*
X0379090Y0065089D01*
X0379014Y0065215D01*
X0378934Y0065338D01*
X0378851Y0065459D01*
X0378766Y0065578D01*
X0378676Y0065695D01*
X0378584Y0065809D01*
X0378489Y0065921D01*
X0378391Y0066030D01*
X0378290Y0066136D01*
X0378186Y0066240D01*
X0378080Y0066341D01*
X0377971Y0066439D01*
X0377859Y0066534D01*
X0377745Y0066626D01*
X0377628Y0066716D01*
X0377509Y0066801D01*
X0377388Y0066884D01*
X0377265Y0066964D01*
X0377139Y0067040D01*
X0377012Y0067113D01*
X0376883Y0067182D01*
X0376751Y0067248D01*
X0376619Y0067310D01*
X0376484Y0067369D01*
X0376348Y0067425D01*
X0376211Y0067476D01*
X0376072Y0067524D01*
X0375932Y0067568D01*
X0375791Y0067609D01*
X0375649Y0067646D01*
X0375506Y0067678D01*
X0375362Y0067708D01*
X0375218Y0067733D01*
X0375073Y0067754D01*
X0374927Y0067772D01*
X0374781Y0067785D01*
X0374634Y0067795D01*
X0374488Y0067801D01*
X0374341Y0067803D01*
X0007412Y0067803D01*
X0007265Y0067801D01*
X0007119Y0067795D01*
X0006972Y0067785D01*
X0006826Y0067772D01*
X0006680Y0067754D01*
X0006535Y0067733D01*
X0006391Y0067708D01*
X0006247Y0067678D01*
X0006104Y0067646D01*
X0005962Y0067609D01*
X0005821Y0067568D01*
X0005681Y0067524D01*
X0005542Y0067476D01*
X0005405Y0067425D01*
X0005269Y0067369D01*
X0005134Y0067310D01*
X0005002Y0067248D01*
X0004870Y0067182D01*
X0004741Y0067113D01*
X0004614Y0067040D01*
X0004488Y0066964D01*
X0004365Y0066884D01*
X0004244Y0066801D01*
X0004125Y0066716D01*
X0004008Y0066626D01*
X0003894Y0066534D01*
X0003782Y0066439D01*
X0003673Y0066341D01*
X0003567Y0066240D01*
X0003463Y0066136D01*
X0003362Y0066030D01*
X0003264Y0065921D01*
X0003169Y0065809D01*
X0003077Y0065695D01*
X0002987Y0065578D01*
X0002902Y0065459D01*
X0002819Y0065338D01*
X0002739Y0065215D01*
X0002663Y0065089D01*
X0002590Y0064962D01*
X0002521Y0064833D01*
X0002455Y0064701D01*
X0002393Y0064569D01*
X0002334Y0064434D01*
X0002278Y0064298D01*
X0002227Y0064161D01*
X0002179Y0064022D01*
X0002135Y0063882D01*
X0002094Y0063741D01*
X0002057Y0063599D01*
X0002025Y0063456D01*
X0001995Y0063312D01*
X0001970Y0063168D01*
X0001949Y0063023D01*
X0001931Y0062877D01*
X0001918Y0062731D01*
X0001908Y0062584D01*
X0001902Y0062438D01*
X0001900Y0062291D01*
X0001900Y0026070D01*
X0001902Y0025923D01*
X0001908Y0025777D01*
X0001918Y0025630D01*
X0001931Y0025484D01*
X0001949Y0025338D01*
X0001970Y0025193D01*
X0001995Y0025049D01*
X0002025Y0024905D01*
X0002057Y0024762D01*
X0002094Y0024620D01*
X0002135Y0024479D01*
X0002179Y0024339D01*
X0002227Y0024200D01*
X0002278Y0024063D01*
X0002334Y0023927D01*
X0002393Y0023792D01*
X0002455Y0023660D01*
X0002521Y0023528D01*
X0002590Y0023399D01*
X0002663Y0023272D01*
X0002739Y0023146D01*
X0002819Y0023023D01*
X0002902Y0022902D01*
X0002987Y0022783D01*
X0003077Y0022666D01*
X0003169Y0022552D01*
X0003264Y0022440D01*
X0003362Y0022331D01*
X0003463Y0022225D01*
X0003567Y0022121D01*
X0003673Y0022020D01*
X0003782Y0021922D01*
X0003894Y0021827D01*
X0004008Y0021735D01*
X0004125Y0021645D01*
X0004244Y0021560D01*
X0004365Y0021477D01*
X0004488Y0021397D01*
X0004614Y0021321D01*
X0004741Y0021248D01*
X0004870Y0021179D01*
X0005002Y0021113D01*
X0005134Y0021051D01*
X0005269Y0020992D01*
X0005405Y0020936D01*
X0005542Y0020885D01*
X0005681Y0020837D01*
X0005821Y0020793D01*
X0005962Y0020752D01*
X0006104Y0020715D01*
X0006247Y0020683D01*
X0006391Y0020653D01*
X0006535Y0020628D01*
X0006680Y0020607D01*
X0006826Y0020589D01*
X0006972Y0020576D01*
X0007119Y0020566D01*
X0007265Y0020560D01*
X0007412Y0020558D01*
D11*
X0105837Y0028433D03*
X0105837Y0039456D03*
X0220798Y0030007D03*
X0231822Y0030007D03*
D12*
X0148357Y0053354D03*
X0148357Y0063354D03*
D13*
X0008200Y0044181D03*
D14*
X0008987Y0060716D03*
X0094814Y0062291D03*
X0139696Y0045756D03*
X0117648Y0041031D03*
X0234971Y0062291D03*
X0374341Y0044181D03*
D15*
X0302688Y0033944D03*
X0283003Y0026070D03*
X0252294Y0024496D03*
X0300326Y0054417D03*
X0219223Y0055992D03*
X0177491Y0055992D03*
X0137333Y0063866D03*
X0079853Y0039456D03*
X0069617Y0036307D03*
X0054656Y0024496D03*
X0033396Y0032370D03*
X0030247Y0059929D03*
X0155444Y0037881D03*
D16*
X0008200Y0044181D03*
M02*
