%
M48
M72
T01C0.0118
T02C0.0320
T03C0.0394
T04C0.0400
%
T01
X584Y2450
X37592Y6387
X37592Y2450
X35702Y2371
X36174Y3079
X35308Y3473
X37040Y3631
X37670Y3709
X35229Y4182
X34521Y4182
X33812Y4182
X33182Y3473
X32395Y3473
X31529Y3473
X30584Y3946
X29796Y3788
X30190Y3473
X28930Y3631
X28064Y3867
X27119Y3788
X25308Y3946
X24599Y4024
X24206Y4654
X22946Y4339
X22316Y3867
X21607Y3631
X22237Y3316
X22552Y3552
X20899Y3946
X21371Y4182
X21529Y4733
X21844Y4891
X21056Y4733
X19875Y4339
X18773Y4418
X19324Y4891
X18143Y4969
X17592Y4418
X16096Y4654
X15623Y5048
X14678Y4654
X14521Y4969
X14363Y5442
X14048Y5757
X14285Y5993
X14285Y6308
X13891Y6465
X11922Y6465
X11450Y5993
X11214Y5757
X10820Y5757
X9560Y5205
X10426Y4654
X10899Y3709
X9796Y3788
X9166Y3788
X7670Y4103
X7198Y3631
X6096Y3316
X3970Y3237
X2474Y3473
X2395Y4103
X3182Y4103
X4836Y4182
X6489Y4497
X5151Y4812
X5229Y5442
X5229Y5914
X5702Y5914
X6174Y6308
X5702Y6387
X5229Y6387
X4757Y6465
X4127Y6465
X3418Y6465
X1607Y6465
X2946Y5835
X1135Y5205
X505Y5205
X505Y3631
X1135Y3631
X505Y3158
X2159Y2292
X2788Y2450
X3182Y2450
X4599Y2607
X5859Y2292
X6568Y2607
X7119Y2528
X8222Y2528
X9166Y3158
X9796Y3158
X10977Y3001
X11450Y2607
X11056Y2292
X12552Y2607
X13576Y2607
X12159Y3158
X12710Y3316
X12159Y3552
X13576Y3237
X14442Y3709
X15623Y4182
X16883Y3709
X16962Y3394
X17592Y2922
X16096Y2843
X18773Y3237
X19324Y3788
X18143Y3867
X20820Y2607
X21292Y2607
X18773Y2292
X24166Y2331
X25072Y2371
X24363Y3001
X24836Y3079
X26804Y2371
X27355Y2292
X28300Y2765
X28694Y3158
X29639Y2528
X31529Y2371
X33812Y2371
X30426Y4576
X29324Y4576
X28694Y4576
X29009Y4891
X29324Y5205
X28694Y5205
X30190Y5599
X30505Y5363
X30584Y5914
X29718Y5914
X29324Y6465
X31056Y6465
X31765Y6465
X32552Y6465
X33497Y6465
X34442Y5678
X35623Y5678
X36489Y5678
X37040Y5205
X37670Y5127
X35623Y6465
X27434Y5363
X27119Y5520
X26804Y5520
X25702Y5678
X25072Y5678
X24993Y6308
X26725Y6465
X22788Y5993
X22237Y5993
X21844Y5993
X21135Y6150
X21056Y6465
X19481Y6150
X20033Y5757
X20348Y5599
X18694Y5520
X17670Y5993
X17119Y5599
X16017Y6072
X8851Y5914
X8379Y5914
X7828Y6308
X8379Y6387
X8851Y6387
X6804Y5678
X7985Y4733
X26962Y4891
X27277Y4891
X27513Y4654
T02
X14836Y5335
X14836Y6335
T03
X820Y4418
T04
X11765Y4103
X13970Y4576
X9481Y6229
X899Y6072
X23497Y6229
X37434Y4418
M30
